<svg width="31" height="34" viewBox="0 0 31 34" fill="none" xmlns="http://www.w3.org/2000/svg">
<path d="M22.7239 4.27933e-05C21.3872 -0.00805706 19.3206 1.13402 16.6964 3.14279C14.0721 5.15155 11.1937 7.82451 8.97949 10.3193L9.23371 12.166C9.39773 11.9635 9.56174 11.7529 9.75856 11.5342C11.9482 9.02328 14.884 6.26933 17.5492 4.23627C18.886 3.21569 20.0997 2.4219 21.0674 1.92781C21.5512 1.68481 21.9694 1.51472 22.3057 1.43372C22.4533 1.39322 22.5845 1.37702 22.6911 1.37702C22.7649 1.37702 22.8141 1.38512 22.8469 1.39322C22.9699 1.44182 22.9945 1.51472 22.9371 1.87921C22.8551 2.3814 22.5681 3.12659 22.0268 4.24437C21.8054 4.71416 21.543 5.22445 21.1494 5.99394C21.0428 6.19643 20.2555 7.75161 20.0833 8.0837C19.132 9.96287 18.3693 11.5585 17.6231 13.2676C17.4836 13.5916 17.3524 13.9237 17.213 14.2477L16.5078 15.973C16.1797 16.8234 15.8681 17.6739 15.5729 18.5325L17.7051 16.7505C17.8855 16.2808 18.0659 15.8191 18.2545 15.3574L18.9516 13.6807C19.665 12.0526 20.4031 10.5137 21.3216 8.70739C21.4938 8.3753 22.2811 6.82822 22.3877 6.62573C22.7895 5.84814 23.0519 5.32975 23.2816 4.84376C23.872 3.61258 24.2 2.77829 24.3066 2.10601C24.4625 1.17452 24.1672 0.445535 23.3718 0.121541C23.216 0.0567418 23.0437 0.0243422 22.8469 0.00814253C22.8141 4.26695e-05 22.7731 4.27933e-05 22.7239 4.27933e-05ZM11.3249 0.0648419C9.99638 0.0648419 8.93849 0.664231 8.23322 1.78201C7.61817 2.74589 7.26554 4.09047 7.12612 5.77524C7.12612 5.81574 7.11793 5.86434 7.11793 5.91294L8.76627 4.21197C9.18451 2.349 10.0292 1.43372 11.3249 1.43372C11.4315 1.43372 11.5053 1.44182 11.5791 1.44992C11.5545 1.52282 11.5463 1.57952 11.4807 1.70101C11.3577 1.92781 11.1609 2.2032 10.8985 2.5191C10.431 3.10229 9.78316 3.81508 8.79087 4.82756C8.77447 4.84376 8.64326 4.98146 8.61046 5.01385L7.06872 6.58523C6.61768 7.04692 6.23225 7.43571 6.00263 7.67061C5.10055 8.61019 4.35428 9.41208 3.68182 10.1897C1.45942 12.7492 0.204713 14.7904 0.0242972 16.5319C-0.221725 18.8241 1.40202 20.3307 4.82992 20.922C5.20716 20.9868 5.56799 20.7357 5.63359 20.3631C5.6992 19.9905 5.44498 19.6341 5.06774 19.5693C2.2795 19.0914 1.25441 18.1356 1.41022 16.6858C1.55783 15.3088 2.69773 13.4458 4.73971 11.0968C5.39577 10.3436 6.12564 9.55787 7.01132 8.63449C7.02772 8.61829 7.06052 8.58589 7.07692 8.56969L8.44644 7.16842C9.01229 6.59333 9.67655 5.91294 9.79136 5.79144C10.8083 4.74656 11.4807 4.01757 11.981 3.38578C12.6452 2.5596 12.9978 1.93591 13.0142 1.37702C13.0306 0.939626 12.8338 0.558933 12.4566 0.332137C12.1778 0.14584 11.8005 0.0648419 11.3249 0.0648419ZM8.45464 7.81641L7.11793 9.19338C7.16713 10.1492 7.26554 11.1697 7.39675 12.2389L7.66737 14.2639C7.79858 15.1225 7.9462 15.9973 8.11841 16.9125L8.79907 16.7748L9.47973 16.6371C9.21731 15.2278 9.01229 13.9156 8.84828 12.6601L8.61046 10.7486C8.51205 9.68747 8.46284 8.71549 8.45464 7.81641ZM7.00311 12.7573C5.55159 14.7337 4.83812 16.3294 5.10055 17.4228C5.34657 18.4515 6.30605 18.9132 7.74118 18.816C7.9708 18.7998 8.23322 18.7512 8.49565 18.7107L9.84877 18.411C10.8493 18.1437 12.0056 17.7468 13.3669 17.196C14.3346 16.7991 15.1628 16.4833 15.9419 16.1836L16.639 14.4502C15.5647 14.839 14.31 15.325 12.8338 15.9244C11.5627 16.4428 10.4802 16.8153 9.56994 17.0664L8.20862 17.3661C8.02001 17.3985 7.81499 17.4309 7.64277 17.439C6.8063 17.4957 6.51107 17.3499 6.45367 17.1069C6.34706 16.6695 6.67509 15.8677 7.29014 14.8471L7.00311 12.7573ZM20.9608 13.2676C20.7229 13.2757 20.4605 13.3081 20.1571 13.3729C19.9685 13.4134 19.7552 13.462 19.5256 13.5187L18.845 15.1549C19.4846 14.9524 20.0259 14.7985 20.4277 14.7175C20.4605 14.7094 20.4687 14.7094 20.5015 14.7094C20.0341 15.2602 19.1894 16.0702 17.8527 17.2122C17.7707 17.2851 17.5 17.5038 17.377 17.6091L15.294 19.3587C14.2198 20.2578 13.0799 21.2136 12.7682 21.4728C12.2352 21.9264 11.7513 22.3395 11.2839 22.7444L11.6611 24.251C11.7267 24.1862 11.7923 24.1214 11.8743 24.0566C12.4238 23.5706 13.0142 23.0684 13.6703 22.5176C13.7769 22.4286 14.2854 21.9993 14.5396 21.7968L16.4914 20.1606C17.459 19.3506 18.3693 18.5892 18.763 18.249C20.4769 16.7748 21.4692 15.8191 21.9284 15.1306C22.0924 14.8876 22.1991 14.6689 22.2319 14.4421C22.2975 14.0857 22.1827 13.7455 21.8874 13.5106C21.6496 13.3324 21.3544 13.2595 20.9608 13.2676ZM9.94718 18.8646L8.58585 19.1562C8.93028 20.7762 9.30752 22.4286 9.74216 24.1457L10.144 25.6523C10.5376 27.1427 10.9477 28.6006 11.3577 29.9938C11.4561 29.9533 11.9646 29.7265 12.637 29.4025C12.186 27.8555 11.7349 26.2436 11.3003 24.5912L10.9149 23.0684C10.554 21.6267 10.2342 20.2335 9.94718 18.8646ZM30.2768 19.5612C30.1456 19.5612 30.0062 19.6017 29.8913 19.6827C29.8831 19.6908 29.3255 20.0634 29.0959 20.2092C28.4562 20.6304 27.7346 21.1002 26.9555 21.6105C24.7085 23.0603 22.3795 24.5183 20.0833 25.871C19.1156 26.4461 18.1643 26.9888 17.254 27.4991C16.2289 28.0742 15.2694 28.5763 14.351 29.0542C14.351 29.0542 13.5309 29.4754 12.8256 29.8237C12.8174 29.8237 12.8092 29.8318 12.801 29.8318H12.7928C12.7846 29.8318 12.7764 29.8399 12.7764 29.8399C12.0712 30.1801 11.4971 30.4231 11.4971 30.4231C10.6196 30.8119 9.79136 31.1602 9.0779 31.4113C6.92111 32.1565 5.78941 32.1322 5.63359 31.6543C5.46958 31.1359 5.96162 30.1072 7.12612 28.714C7.78218 27.9284 8.70887 27.0131 9.75856 26.0168L9.37313 24.4859C8.02001 25.7333 6.8719 26.8592 6.05183 27.8312C4.6003 29.5645 3.95244 30.9334 4.30508 32.0512C4.5757 32.9179 5.33017 33.3472 6.37986 33.3634C7.19993 33.3796 8.24962 33.1528 9.52894 32.7073C10.2424 32.4643 11.0461 32.1241 11.8989 31.7515L14.0967 30.7147C15.294 30.1234 16.5652 29.4592 17.9429 28.6897C18.8696 28.1713 19.8209 27.6206 20.8049 27.0455C23.1175 25.6766 25.4711 24.2186 27.7346 22.7525C28.53 22.2423 29.2517 21.7644 29.8913 21.3351C30.1128 21.1893 30.6868 20.8005 30.695 20.8005C31.0148 20.5818 31.0968 20.1606 30.8754 19.8447C30.7196 19.6665 30.4982 19.5612 30.2768 19.5612ZM16.2371 20.9706L14.3264 22.5824C13.7277 24.7613 13.2521 26.9888 12.8994 29.281C13.6375 28.9246 14.3838 28.5358 14.433 28.5034C14.8758 25.9196 15.4827 23.4248 16.2371 20.9706ZM14.0147 31.2817L12.0302 32.2132C12.0958 32.4157 12.1532 32.6344 12.2106 32.8045C12.2762 33.007 12.4402 33.5173 12.4402 33.5254C12.678 34.2381 13.7277 34.1166 13.7933 33.3715C13.8589 32.6668 13.9327 31.9702 14.0147 31.2817Z" fill="white"/>
</svg>
