<svg width="44" height="48" viewBox="0 0 44 48" fill="none" xmlns="http://www.w3.org/2000/svg">
<path d="M32.2533 6.04141e-05C30.356 -0.0113747 27.4228 1.60097 23.6981 4.43688C19.9734 7.27278 15.8878 11.0464 12.7451 14.5684L13.1059 17.1756C13.3387 16.8897 13.5715 16.5924 13.8509 16.2836C16.9587 12.7388 21.1257 8.85082 24.9086 5.98061C26.8059 4.53979 28.5286 3.41915 29.9021 2.72161C30.5888 2.37856 31.1824 2.13842 31.6597 2.02407C31.8692 1.9669 32.0554 1.94403 32.2067 1.94403C32.3115 1.94403 32.3813 1.95546 32.4279 1.9669C32.6025 2.03551 32.6374 2.13842 32.5559 2.653C32.4395 3.36198 32.0321 4.41401 31.2639 5.99205C30.9496 6.65528 30.5772 7.3757 30.0185 8.46203C29.8671 8.74791 28.7497 10.9434 28.5053 11.4123C27.1551 14.0652 26.0726 16.3179 25.0134 18.7307C24.8155 19.1881 24.6293 19.657 24.4314 20.1144L23.4304 22.5501C22.9648 23.7507 22.5225 24.9514 22.1034 26.1636L25.1298 23.6478C25.3858 22.9846 25.6419 22.3328 25.9096 21.681L26.899 19.3139C27.9117 17.0155 28.9592 14.8428 30.2629 12.2928C30.5073 11.8239 31.6247 9.63984 31.7761 9.35397C32.3464 8.2562 32.7189 7.52435 33.0448 6.83825C33.8828 5.10011 34.3484 3.9223 34.4998 2.97318C34.7209 1.65815 34.3019 0.628991 33.1728 0.171587C32.9517 0.0801061 32.7072 0.0343655 32.4279 0.0114953C32.3813 6.02393e-05 32.3231 6.04141e-05 32.2533 6.04141e-05ZM16.074 0.0915415C14.1884 0.0915415 12.6869 0.937738 11.6859 2.51578C10.8129 3.87656 10.3124 5.77478 10.1145 8.15328C10.1145 8.21046 10.1029 8.27907 10.1029 8.34768L12.4424 5.94631C13.0361 3.31624 14.235 2.02407 16.074 2.02407C16.2254 2.02407 16.3301 2.03551 16.4349 2.04694C16.4 2.14986 16.3883 2.2299 16.2952 2.40143C16.1206 2.72161 15.8413 3.11041 15.4688 3.55637C14.8053 4.3797 13.8858 5.38599 12.4774 6.81538C12.4541 6.83825 12.2679 7.03264 12.2213 7.07838L10.033 9.29679C9.39284 9.94859 8.84577 10.4975 8.51986 10.8291C7.23948 12.1556 6.18027 13.2876 5.22581 14.3854C2.07144 17.9989 0.290561 20.8805 0.0344863 23.3391C-0.314706 26.5752 1.98996 28.7021 6.85537 29.5369C7.3908 29.6284 7.90295 29.2739 7.99607 28.7479C8.08919 28.2219 7.72835 27.7187 7.19293 27.6272C3.23541 26.9526 1.78045 25.6032 2.0016 23.5564C2.21112 21.6124 3.82904 18.9823 6.72734 15.6661C7.65852 14.6027 8.69445 13.4935 9.95154 12.1899C9.97482 12.167 10.0214 12.1213 10.0447 12.0984L11.9885 10.1201C12.7916 9.30823 13.7345 8.34768 13.8974 8.17615C15.3407 6.70103 16.2952 5.67187 17.0052 4.77993C17.948 3.61355 18.4486 2.73305 18.4718 1.94403C18.4951 1.32653 18.2158 0.789082 17.6803 0.468899C17.2846 0.205892 16.7492 0.0915415 16.074 0.0915415ZM12.0001 11.0349L10.1029 12.9789C10.1727 14.3282 10.3124 15.7691 10.4986 17.2785L10.8827 20.1373C11.069 21.3494 11.2785 22.5844 11.5229 23.8765L12.489 23.6821L13.4551 23.4877C13.0826 21.498 12.7916 19.6455 12.5588 17.8731L12.2213 15.1744C12.0816 13.6764 12.0118 12.3042 12.0001 11.0349ZM9.9399 18.0103C7.87967 20.8005 6.86701 23.0532 7.23948 24.5969C7.58868 26.0492 8.95053 26.701 10.9875 26.5638C11.3134 26.5409 11.6859 26.4723 12.0583 26.4151L13.9789 25.992C15.3989 25.6147 17.0401 25.0543 18.9723 24.2768C20.3458 23.7164 21.5214 23.2705 22.6272 22.8474L23.6166 20.4003C22.0918 20.9492 20.3109 21.6353 18.2158 22.4815C16.4116 23.2133 14.8752 23.7393 13.5831 24.0938L11.6509 24.5169C11.3832 24.5626 11.0922 24.6084 10.8478 24.6198C9.66055 24.6999 9.24152 24.494 9.16004 24.151C9.00872 23.5335 9.47431 22.4014 10.3473 20.9606L9.9399 18.0103ZM29.7507 18.7307C29.4132 18.7422 29.0407 18.7879 28.61 18.8794C28.3423 18.9366 28.0397 19.0052 27.7138 19.0852L26.7477 21.3951C27.6556 21.1092 28.4238 20.892 28.9942 20.7776C29.0407 20.7662 29.0524 20.7662 29.0989 20.7662C28.4355 21.5438 27.2366 22.6873 25.3393 24.2996C25.2229 24.4025 24.8388 24.7113 24.6642 24.86L21.7077 27.3299C20.1829 28.5992 18.565 29.9486 18.1226 30.3145C17.3661 30.9549 16.6793 31.538 16.0158 32.1098L16.5513 34.2367C16.6444 34.1452 16.7375 34.0538 16.8539 33.9623C17.6338 33.2762 18.4718 32.5672 19.403 31.7896C19.5543 31.6638 20.276 31.0578 20.6368 30.7719L23.4071 28.462C24.7806 27.3185 26.0726 26.2436 26.6313 25.7633C29.064 23.6821 30.4724 22.3328 31.1242 21.3608C31.357 21.0178 31.5083 20.709 31.5549 20.3888C31.648 19.8857 31.4851 19.4054 31.066 19.0738C30.7285 18.8222 30.3094 18.7193 29.7507 18.7307ZM14.1186 26.6324L12.1864 27.0441C12.6752 29.3311 13.2107 31.6638 13.8276 34.0881L14.3979 36.215C14.9566 38.3191 15.5386 40.3774 16.1206 42.3442C16.2603 42.287 16.9819 41.9669 17.9364 41.5095C17.2962 39.3253 16.656 37.0498 16.0391 34.717L15.4921 32.5672C14.9799 30.5318 14.526 28.5649 14.1186 26.6324ZM42.9735 27.6158C42.7873 27.6158 42.5894 27.673 42.4264 27.7873C42.4148 27.7988 41.6233 28.3248 41.2974 28.5306C40.3895 29.1252 39.3652 29.7885 38.2594 30.5089C35.0701 32.5558 31.7644 34.6141 28.5053 36.5237C27.1318 37.3356 25.7816 38.1018 24.4896 38.8222C23.0346 39.6341 21.6728 40.3431 20.3691 41.0177C20.3691 41.0177 19.2051 41.6124 18.2041 42.1041C18.1925 42.1041 18.1808 42.1155 18.1692 42.1155H18.1576C18.1459 42.1155 18.1343 42.1269 18.1343 42.1269C17.1333 42.6072 16.3185 42.9503 16.3185 42.9503C15.073 43.4992 13.8974 43.9909 12.8848 44.3454C9.82351 45.3974 8.21722 45.3631 7.99607 44.6884C7.76327 43.9566 8.46166 42.5043 10.1145 40.5375C11.0457 39.4283 12.361 38.1361 13.8509 36.7296L13.3038 34.5683C11.3832 36.3294 9.75367 37.9188 8.58969 39.291C6.52946 41.7382 5.60992 43.6707 6.11043 45.2487C6.49454 46.4723 7.5654 47.0783 9.05528 47.1012C10.2193 47.1241 11.7091 46.8039 13.5249 46.175C14.5376 45.8319 15.6783 45.3516 16.8888 44.8256L20.0083 43.3619C21.7077 42.5272 23.5118 41.5895 25.4673 40.5032C26.7826 39.7713 28.1328 38.9937 29.5296 38.1818C32.812 36.2493 36.1526 34.191 39.3652 32.1212C40.4942 31.4008 41.5185 30.7262 42.4264 30.1201C42.7407 29.9143 43.5555 29.3654 43.5671 29.3654C44.0211 29.0566 44.1375 28.462 43.8232 28.016C43.602 27.7645 43.2878 27.6158 42.9735 27.6158ZM23.0463 29.6055L20.3342 31.8811C19.4845 34.9571 18.8094 38.1018 18.3089 41.3379C19.3565 40.8348 20.4157 40.2859 20.4855 40.2402C21.1141 36.5924 21.9754 33.0704 23.0463 29.6055ZM19.8919 44.1624L17.0751 45.4774C17.1682 45.7633 17.2497 46.0721 17.3311 46.3122C17.4243 46.5981 17.6571 47.3185 17.6571 47.3299C17.9946 48.3362 19.4845 48.1647 19.5776 47.1126C19.6707 46.1178 19.7755 45.1344 19.8919 44.1624Z" fill="black"/>
</svg>
