<svg width="56" height="56" viewBox="0 0 56 56" fill="none" xmlns="http://www.w3.org/2000/svg">
<path d="M35.2309 6.41766L37.2067 1.80645C37.2305 1.74703 37.29 1.68761 37.3495 1.66384C37.409 1.64007 37.4804 1.64007 37.5518 1.67572C37.9565 1.84211 40.3488 2.86418 40.7416 3.04244C40.8725 3.10187 40.932 3.24448 40.8725 3.37521L40.7059 3.75552C40.6464 3.88625 40.5035 3.94567 40.3726 3.88625L37.8494 2.80475L37.3257 4.00509L39.6704 5.0034C39.8013 5.06282 39.8608 5.20543 39.8013 5.33616L39.6347 5.71647C39.5752 5.8472 39.4324 5.90662 39.3014 5.8472L36.9567 4.8489L36.3735 6.21562L38.9206 7.29711C39.0515 7.35654 39.111 7.51104 39.0634 7.62988L38.8968 7.9983C38.8373 8.12903 38.6944 8.18845 38.5635 8.14092L35.3381 6.76231C35.2309 6.691 35.1714 6.5365 35.2309 6.41766ZM24.9952 50.4975L23.8764 55.3939C23.8407 55.5246 23.7217 55.6078 23.5788 55.584C23.2932 55.5246 21.615 55.1443 21.3294 55.073C21.1032 55.0255 20.889 54.9423 20.6986 54.8472C20.4962 54.7402 20.3415 54.6095 20.2106 54.455C20.0677 54.2886 19.9844 54.0985 19.9249 53.8845C19.8773 53.6587 19.8773 53.4211 19.9368 53.1715C20.0201 52.8149 20.1868 52.5178 20.4367 52.2801C20.5438 52.1851 20.6747 52.1138 20.8176 52.0543C20.7343 51.9593 20.6509 51.8642 20.6152 51.7572C20.5557 51.6146 20.5319 51.4601 20.5319 51.2937C20.5319 51.1511 20.5438 50.9847 20.5676 50.8302C20.5795 50.747 20.6033 50.652 20.6271 50.5212C20.6509 50.4024 20.6747 50.2835 20.6866 50.1647C20.6986 50.0577 20.6986 49.9508 20.6986 49.8557C20.6986 49.7725 20.6866 49.7131 20.6628 49.6774C20.5676 49.4873 20.7343 49.2733 20.9485 49.3209L21.4603 49.4397C21.5436 49.4635 21.6269 49.5229 21.6507 49.6061C21.6745 49.6893 21.6864 49.7725 21.6864 49.8676C21.6864 49.9508 21.6864 50.034 21.6745 50.1171C21.6626 50.1885 21.6269 50.4618 21.615 50.5212C21.5912 50.6876 21.5555 50.8659 21.5436 51.0323C21.5317 51.1868 21.5317 51.3175 21.5555 51.4482C21.5793 51.5552 21.6388 51.6384 21.7102 51.7216C21.7816 51.7929 21.8888 51.8404 22.0673 51.8761L23.6026 52.2207L24.043 50.2954C24.0787 50.1647 24.2097 50.0696 24.3525 50.0934L24.8167 50.2003C24.9357 50.2241 25.019 50.3667 24.9952 50.4975ZM23.3884 53.1002C22.9718 53.0051 22.0792 52.8031 21.8888 52.7674C21.7697 52.7436 21.6626 52.7436 21.5555 52.7555C21.4484 52.7674 21.3532 52.7912 21.2698 52.8387C21.1865 52.8862 21.1151 52.9457 21.0437 53.017C20.9842 53.0883 20.9485 53.1834 20.9247 53.2903C20.8652 53.528 20.889 53.7182 20.9961 53.8727C21.0913 54.0272 21.2698 54.1341 21.5674 54.2054L23.0671 54.5382L23.3884 53.1002ZM31.4342 5.77589L34.862 6.56027C34.9929 6.59593 35.1357 6.51273 35.1595 6.37012L35.2547 5.96604C35.2905 5.83531 35.1952 5.70458 35.0524 5.66893L32.3506 5.05093L32.672 3.6129L35.1595 4.17148C35.2905 4.20713 35.4214 4.12394 35.4571 3.98132L35.5523 3.57725C35.588 3.44652 35.4928 3.31579 35.3619 3.28014L32.8743 2.70968L33.16 1.43803L35.8379 2.03226C35.9689 2.06791 36.1117 1.98472 36.1474 1.84211L36.2426 1.44992C36.2783 1.31919 36.195 1.17657 36.0522 1.14092C35.6237 1.04584 33.0886 0.475382 32.6601 0.380306C32.5292 0.344652 32.3864 0.427844 32.3506 0.570458L31.2438 5.46689C31.22 5.60951 31.3033 5.74024 31.4342 5.77589ZM46.9783 48.2037C47.0259 48.2632 47.0378 48.3226 47.0378 48.3939C47.0259 48.4533 47.0021 48.5127 46.9425 48.5603C46.7164 48.7385 45.3715 49.82 45.1453 50.0102C44.9668 50.1528 44.7764 50.2716 44.574 50.3548C44.3717 50.438 44.1575 50.4856 43.9551 50.4975C43.7409 50.4975 43.5267 50.4618 43.3243 50.3667C43.122 50.2716 42.9435 50.1171 42.7768 49.9151C42.5507 49.6299 42.4079 49.309 42.3841 48.9762C42.3722 48.8217 42.4079 48.6791 42.4555 48.5365C42.3365 48.5484 42.2055 48.5603 42.0984 48.5246C41.9556 48.4771 41.8128 48.4058 41.6818 48.2988C41.5628 48.2037 41.4438 48.1087 41.3367 47.9898C41.2772 47.9304 41.2177 47.8472 41.1344 47.7521C41.0629 47.6689 40.9796 47.5857 40.8963 47.5025C40.813 47.4194 40.7297 47.3599 40.6464 47.3005C40.5869 47.253 40.5274 47.2292 40.4916 47.2173C40.2774 47.1817 40.206 46.9083 40.3726 46.7776L40.7892 46.4448C40.8606 46.3854 40.9558 46.3735 41.0391 46.4092C41.1224 46.4329 41.1939 46.4805 41.2653 46.528C41.3248 46.5756 41.3962 46.635 41.4557 46.7063C41.5033 46.7657 41.6937 46.9559 41.7295 47.0034C41.8485 47.1341 41.9556 47.253 42.0865 47.3718C42.1936 47.4788 42.3008 47.562 42.4198 47.6095C42.515 47.657 42.6221 47.6689 42.7292 47.657C42.8244 47.6452 42.9435 47.5857 43.0863 47.4669L44.3003 46.4924L43.0625 44.9474C42.9792 44.8404 42.9911 44.6859 43.0982 44.5908L43.4791 44.2937C43.5267 44.2462 43.5981 44.2343 43.6576 44.2343C43.7171 44.2462 43.7885 44.2699 43.8361 44.3294L46.9783 48.2037ZM45.8 48.3107L44.8716 47.1579C44.5383 47.4194 43.8242 48.0017 43.6814 48.1205C43.5862 48.1918 43.5148 48.2869 43.4553 48.3701C43.3957 48.4652 43.36 48.5484 43.3481 48.6435C43.3362 48.7385 43.3362 48.8217 43.36 48.9168C43.3838 49.0119 43.4314 49.0951 43.5029 49.1902C43.6576 49.3803 43.8123 49.4873 43.9908 49.4992C44.1694 49.5229 44.3717 49.4397 44.6097 49.2496L45.8 48.3107ZM55.762 27.7148L55.3454 27.691C55.2026 27.6791 55.0954 27.7861 55.0835 27.9287L54.9169 30.4839L51.3701 27.3107C51.3701 27.2869 51.3939 27.2632 51.3939 27.2394L51.0845 24.4941L52.5484 24.3158L52.8341 26.8472C52.846 26.9898 52.9769 27.0849 53.1197 27.073L53.5244 27.0374C53.6672 27.0255 53.7624 26.8947 53.7505 26.764L53.4649 24.2207L54.7622 24.0781L55.0716 26.7997C55.0835 26.9423 55.2145 27.0374 55.3454 27.0255L55.7501 26.9779C55.8929 26.966 55.9881 26.8353 55.9762 26.7046C55.9286 26.2767 55.6429 23.6978 55.5953 23.2581C55.5834 23.1154 55.4525 23.0204 55.3216 23.0323L50.3346 23.5908C50.1918 23.6027 50.0966 23.7334 50.1085 23.8761L50.4894 27.3582C50.4894 27.3701 50.5132 27.382 50.5132 27.3939C50.5132 27.4058 50.5013 27.4058 50.5013 27.4177L50.2513 31.3158C50.2394 31.4584 50.3465 31.5772 50.4894 31.5891L50.894 31.6129C51.0369 31.6248 51.1559 31.5178 51.1678 31.3752L51.3463 28.5229L54.9288 31.7436C54.9645 31.7793 55.024 31.8031 55.0835 31.8031L55.5001 31.8387C55.6429 31.8506 55.762 31.7436 55.7739 31.601C55.7977 31.1494 55.9643 28.4516 56 28C56 27.8455 55.9048 27.7148 55.762 27.7148ZM49.93 18.837C49.7038 18.9915 49.5134 19.1935 49.3825 19.4312C49.2396 19.6689 49.1682 19.9304 49.1444 20.2394C49.1206 20.5365 49.1563 20.8693 49.2753 21.2377C49.3944 21.6061 49.5372 21.9032 49.7395 22.129C49.93 22.3667 50.1561 22.5331 50.406 22.652C50.656 22.7589 50.9178 22.8302 51.1916 22.8302C51.4653 22.8302 51.7391 22.7827 52.0009 22.6995L55.0597 21.725C55.1907 21.6774 55.2621 21.5348 55.2264 21.4041L55.0835 20.9525C55.0478 20.8217 54.8931 20.7504 54.7622 20.7861L51.7986 21.725C51.5486 21.8081 51.3225 21.8438 51.1321 21.8438C50.9535 21.8438 50.8107 21.8081 50.6917 21.7487C50.5727 21.6893 50.4537 21.6061 50.3703 21.4754C50.2751 21.3447 50.1918 21.1783 50.1323 20.9762C50.0728 20.7861 50.0371 20.5959 50.0371 20.4295C50.0371 20.275 50.0728 20.1443 50.1323 20.0136C50.2037 19.8947 50.2989 19.7759 50.4417 19.6808C50.5965 19.5739 50.7988 19.4788 51.0488 19.3956L54.0243 18.4567C54.1552 18.4092 54.2266 18.2784 54.1909 18.1477C54.1671 18.0883 54.06 17.7436 54.0362 17.6842C53.9886 17.5535 53.8457 17.4822 53.7148 17.5178L50.656 18.4924C50.406 18.5518 50.1561 18.6825 49.93 18.837ZM21.2698 4.6944C21.4365 5.01528 21.6626 5.28862 21.9245 5.50255C22.1863 5.72835 22.4958 5.88285 22.8528 5.97793C23.0314 6.02547 23.2218 6.04924 23.4122 6.06112C23.6026 6.06112 23.805 6.04924 24.0192 6.01358C24.2216 5.97793 24.412 5.91851 24.5905 5.8472C24.769 5.77589 24.9357 5.66893 25.0904 5.55008C25.2213 5.44312 25.3403 5.31239 25.4475 5.16978L25.507 5.40747C25.5427 5.5382 25.6617 5.62139 25.7926 5.59762C25.8402 5.58574 26.0902 5.55008 26.1378 5.5382C26.2806 5.51443 26.3639 5.3837 26.3401 5.24109L25.8759 2.73345C25.8521 2.59083 25.7212 2.50764 25.5784 2.53141L23.4836 2.91171C23.3408 2.93548 23.2575 3.06621 23.2813 3.19694L23.3527 3.60102C23.3765 3.74363 23.5074 3.82683 23.6503 3.80306L25.0428 3.55348C25.0547 3.6961 25.0785 3.83871 25.0547 3.96944C25.0309 4.17148 24.9595 4.34975 24.8643 4.50424C24.769 4.65874 24.6262 4.80136 24.4596 4.90832C24.293 5.01528 24.0906 5.09847 23.8526 5.13413C23.5669 5.18166 23.317 5.16978 23.0909 5.09847C22.8647 5.02716 22.6743 4.9202 22.5196 4.7657C22.3529 4.61121 22.222 4.42105 22.1149 4.19525C22.0078 3.96944 21.9245 3.73175 21.8888 3.49406C21.8411 3.24448 21.8292 2.99491 21.853 2.74533C21.8769 2.50764 21.9364 2.28183 22.0316 2.0798C22.1268 1.87776 22.2696 1.71138 22.4482 1.55688C22.6267 1.41426 22.8528 1.31919 23.1504 1.27165C23.3527 1.23599 23.5431 1.23599 23.7098 1.27165C23.8883 1.3073 24.043 1.36672 24.1739 1.44992C24.3049 1.53311 24.4239 1.62818 24.5072 1.73514C24.5905 1.84211 24.65 1.93718 24.6857 2.04414C24.7214 2.17487 24.8405 2.24618 24.9714 2.22241L25.4356 2.13922C25.5903 2.11545 25.6855 1.94907 25.6379 1.80645C25.5308 1.50934 25.388 1.25976 25.1975 1.05772C25.019 0.855688 24.8048 0.689304 24.5667 0.570458C24.3287 0.451613 24.0787 0.368421 23.805 0.344652C23.5312 0.308998 23.2575 0.320883 22.9718 0.380306C22.5434 0.451613 22.1863 0.594228 21.8888 0.820034C21.5912 1.03396 21.3532 1.3073 21.1865 1.60441C21.0199 1.90153 20.9128 2.2343 20.8652 2.59083C20.8176 2.94737 20.8295 3.3039 20.9009 3.67233C20.9961 4.04075 21.1032 4.3854 21.2698 4.6944ZM49.0016 19.1579L49.3587 18.9559C49.4777 18.8845 49.5253 18.7301 49.4539 18.6112L48.2399 16.365L52.0842 14.2971C52.2033 14.2258 52.2509 14.0713 52.1794 13.9525C52.1556 13.9049 51.989 13.584 51.9533 13.5365C51.9176 13.4771 51.87 13.4295 51.8105 13.4177C51.751 13.3939 51.6796 13.4058 51.6081 13.4295L47.1806 15.8065C47.0616 15.8778 47.014 16.0204 47.0854 16.1392L48.6445 19.039C48.716 19.1698 48.8707 19.2173 49.0016 19.1579ZM44.3836 12.1817L48.3113 9.04414C48.3708 8.9966 48.4303 8.98472 48.4898 8.98472C48.5493 8.9966 48.6207 9.02037 48.6564 9.0798C48.8231 9.28183 49.8228 10.5297 49.9895 10.7436C50.1323 10.9219 50.2513 11.1121 50.3465 11.3022C50.4536 11.5042 50.5132 11.7063 50.537 11.9202C50.5608 12.1341 50.5251 12.348 50.4417 12.5501C50.3584 12.764 50.2037 12.9542 49.9895 13.1205C49.8704 13.2156 49.7276 13.2988 49.5729 13.3464C49.4182 13.4058 49.2634 13.4295 49.1087 13.4295C49.0016 13.4295 48.9064 13.4058 48.7993 13.3939C48.8231 13.5484 48.8231 13.7029 48.7993 13.8574C48.7398 14.202 48.5493 14.511 48.2518 14.7487C48.1804 14.8081 48.097 14.8676 48.0018 14.927C47.8947 14.9864 47.7757 15.034 47.6448 15.0696C47.5138 15.1053 47.371 15.129 47.2163 15.1409C47.0497 15.1409 46.883 15.1053 46.7164 15.0458C46.5498 14.9864 46.3713 14.8795 46.1927 14.7487C46.0142 14.618 45.8357 14.4397 45.6452 14.202L44.3122 12.5382C44.2646 12.4788 44.2527 12.4194 44.2646 12.348C44.3003 12.2767 44.3241 12.2173 44.3836 12.1817ZM47.3948 11.017C47.6448 11.326 48.1685 11.9677 48.2756 12.1104C48.3827 12.2411 48.4779 12.3362 48.585 12.4075C48.6802 12.4669 48.7755 12.5144 48.8588 12.5263C48.9421 12.5382 49.0135 12.5382 49.0849 12.5144C49.1563 12.4907 49.2396 12.4669 49.2992 12.4194C49.6681 12.1222 49.68 11.7776 49.2873 11.2903L48.4184 10.2088L47.3948 11.017ZM45.5143 12.5382C45.7642 12.8472 46.276 13.489 46.3832 13.6197C46.4903 13.7504 46.5855 13.8574 46.6926 13.9525C46.7878 14.0357 46.8949 14.0951 47.0021 14.1307C47.0973 14.1664 47.2044 14.1664 47.3115 14.1426C47.4186 14.1188 47.5257 14.0594 47.6567 13.9643C47.8471 13.8098 47.9304 13.6435 47.9185 13.4533C47.9066 13.2394 47.7876 12.9779 47.5496 12.6808L46.6807 11.5993L45.5143 12.5382ZM39.0396 8.37861L39.4324 8.65195C39.5514 8.73514 39.7061 8.69949 39.7894 8.58064L41.7533 5.74024L41.7652 10.1138C41.7652 10.1969 41.8009 10.2683 41.8723 10.3158L42.3127 10.6248C42.3722 10.6604 42.4436 10.6723 42.5031 10.6604C42.5626 10.6486 42.634 10.6129 42.6697 10.5535L45.5143 6.41766C45.55 6.35823 45.5619 6.28693 45.55 6.2275C45.5381 6.16808 45.5024 6.10866 45.4429 6.06112L45.0501 5.79966C44.9311 5.71647 44.7764 5.74024 44.6931 5.85908L42.7411 8.69949L42.7292 4.33786C42.7292 4.25467 42.6935 4.18336 42.6221 4.13582C42.5626 4.10017 42.2293 3.87436 42.1817 3.82683C42.1222 3.79117 42.0508 3.77929 41.9913 3.79117C41.9318 3.80306 41.8723 3.83871 41.8366 3.89813L38.992 8.03396C38.9087 8.14092 38.9325 8.29542 39.0396 8.37861ZM26.6496 5.26486L26.8162 0.249576C26.8162 0.106961 26.9352 0 27.078 0C27.3637 0.0118846 29.0895 0.0594228 29.3751 0.0713073C29.6013 0.0831919 29.8155 0.118846 30.0298 0.190153C30.244 0.26146 30.4344 0.356536 30.5891 0.487267C30.7558 0.617997 30.8867 0.796265 30.97 0.998302C31.0652 1.20034 31.1128 1.43803 31.1009 1.69949C31.089 2.06791 30.97 2.40068 30.7677 2.67402C30.6725 2.79287 30.5653 2.87606 30.4344 2.95925C30.5296 3.03056 30.6249 3.11375 30.6844 3.20883C30.7677 3.33956 30.8272 3.48217 30.8629 3.64856C30.8867 3.79117 30.9105 3.94567 30.9105 4.11205C30.9105 4.19525 30.9224 4.31409 30.9224 4.43294C30.9224 4.55178 30.9343 4.65874 30.9343 4.77759C30.9462 4.88455 30.9581 5.0034 30.9819 5.09847C31.0057 5.18166 31.0176 5.2292 31.0533 5.25297C31.1842 5.41935 31.0652 5.66893 30.851 5.66893L30.3154 5.65705C30.2321 5.65705 30.1488 5.59762 30.1131 5.52632C30.0774 5.45501 30.0417 5.37182 30.0178 5.27674C30.0059 5.19355 29.994 5.11036 29.9821 5.02716C29.9821 4.95586 29.9702 4.68251 29.9702 4.62309C29.9702 4.44482 29.9464 4.27844 29.9345 4.10017C29.9226 3.94567 29.8869 3.81494 29.8393 3.70798C29.7917 3.6129 29.7322 3.52971 29.637 3.47029C29.5537 3.41087 29.4346 3.37521 29.2561 3.37521L27.6969 3.32767L27.6255 5.31239C27.6255 5.45501 27.5065 5.55008 27.3637 5.55008L26.8876 5.5382C26.7567 5.52632 26.6496 5.40747 26.6496 5.26486ZM27.7327 2.40068C28.1492 2.41256 29.0776 2.44822 29.268 2.44822C29.387 2.44822 29.4942 2.43633 29.6013 2.41256C29.7084 2.37691 29.7917 2.32937 29.8631 2.26995C29.9345 2.21053 29.994 2.13922 30.0417 2.05603C30.0893 1.97284 30.1131 1.86587 30.1131 1.74703C30.125 1.49745 30.0536 1.31919 29.9345 1.18846C29.8155 1.05772 29.6132 0.986418 29.3037 0.974533L27.7684 0.926995L27.7327 2.40068ZM40.2179 47.1222C40.1822 47.0628 40.1346 47.0153 40.0751 47.0034C40.0156 46.9796 39.9441 46.9915 39.8727 47.0153L36.7782 48.6553C36.6592 48.7148 36.6116 48.8693 36.683 48.9881L36.8734 49.3447C36.9329 49.4635 37.0877 49.511 37.2067 49.4516L39.6704 48.1562L40.3488 49.4635L38.0993 50.652C37.9803 50.7114 37.9327 50.8659 37.9922 50.9847L38.1826 51.3413C38.2422 51.4601 38.4088 51.5076 38.5278 51.4482L40.7773 50.2598L41.3843 51.4126L38.9682 52.6961C38.8492 52.7555 38.8016 52.91 38.8611 53.0289L39.0634 53.3854C39.1348 53.5042 39.2776 53.5518 39.3967 53.4924C39.7775 53.2903 42.0865 52.0662 42.4674 51.8642C42.5864 51.8048 42.634 51.6503 42.5745 51.5314L40.2179 47.1222ZM6.9874 35.927L6.01143 32.7895C5.97573 32.6587 5.8329 32.5874 5.70198 32.6231L5.32112 32.7419C5.19019 32.7776 5.10688 32.9321 5.14259 33.0628L5.90432 35.4992L1.7386 36.7946C1.60768 36.8302 1.53627 36.9847 1.57197 37.1154C1.59578 37.1749 1.69099 37.5076 1.7148 37.5671C1.7505 37.6978 1.90523 37.7691 2.03615 37.7334L6.82077 36.2479C6.9517 36.2122 7.02311 36.0577 6.9874 35.927ZM13.4859 45.2564C13.4859 45.1969 13.474 45.1375 13.4145 45.0781L13.0812 44.7334C12.986 44.6384 12.8194 44.6384 12.7242 44.7334L10.2605 47.1579L11.0817 42.8676C11.0936 42.7844 11.0698 42.7012 11.0103 42.6418L10.6294 42.2615C10.5818 42.2139 10.5104 42.1902 10.4509 42.1902C10.3914 42.1902 10.32 42.2139 10.2724 42.2615L6.68985 45.7793C6.64224 45.8268 6.61844 45.8862 6.61844 45.9576C6.61844 46.017 6.64224 46.0883 6.68985 46.1358L7.02311 46.4805C7.11832 46.5756 7.27305 46.5756 7.38017 46.4805L9.84389 44.0441L9.02265 48.3345C9.01075 48.4177 9.03455 48.5008 9.09406 48.5603C9.14167 48.6078 9.42732 48.893 9.47493 48.9406C9.52254 48.9881 9.58205 49.0119 9.65346 49.0119C9.71297 49.0119 9.78438 48.9881 9.83199 48.9406L13.4145 45.4228C13.4621 45.3871 13.4859 45.3277 13.4859 45.2564ZM16.7233 47.3837L13.8311 45.4109C13.7716 45.3752 13.7002 45.3633 13.6406 45.3752C13.5811 45.3871 13.5097 45.4228 13.474 45.4822L13.2479 45.8149C13.1646 45.9338 13.2003 46.0764 13.3193 46.1596L15.6164 47.7165L14.7832 48.9406L12.6766 47.5144C12.5576 47.4312 12.4028 47.4669 12.3195 47.5857L12.0934 47.9185C12.0101 48.0374 12.0577 48.1919 12.1648 48.275L14.2715 49.7012L13.5335 50.7827L11.2721 49.2496C11.1531 49.1664 10.9984 49.2139 10.9151 49.3209L10.6889 49.6536C10.6056 49.7725 10.6532 49.9151 10.7603 49.9983C11.1174 50.236 13.2717 51.6978 13.6287 51.9474C13.7478 52.0306 13.8906 51.9949 13.9739 51.8761L16.8066 47.7165C16.878 47.6214 16.8423 47.4669 16.7233 47.3837ZM8.89173 40.348L4.44037 42.6774C4.32135 42.7368 4.16662 42.7012 4.10711 42.5823C3.98809 42.3447 3.23826 40.9423 3.10734 40.7046C3.00022 40.5025 2.9169 40.3005 2.85739 40.0866C2.79788 39.8608 2.77408 39.6587 2.78598 39.4448C2.80979 39.2309 2.8693 39.0289 2.98832 38.8506C3.10734 38.6604 3.29777 38.4941 3.53581 38.3633C3.67864 38.292 3.83336 38.2445 3.98809 38.2207C4.14281 38.1969 4.29754 38.1969 4.45227 38.2207C4.55939 38.2326 4.6546 38.292 4.74982 38.3277C4.74982 38.1732 4.77362 38.0187 4.83313 37.8761C4.96406 37.5433 5.2021 37.2818 5.54726 37.1036C5.63057 37.056 5.72579 37.0204 5.821 36.9847C5.94002 36.9372 6.07094 36.9134 6.20187 36.9015C6.34469 36.8896 6.47561 36.8896 6.63034 36.9134C6.79697 36.9372 6.9636 37.0085 7.11832 37.1036C7.27305 37.1986 7.41588 37.3294 7.5587 37.4958C7.71343 37.6621 7.85625 37.8761 7.98717 38.1256L8.98695 40.0034C9.07026 40.1222 9.02265 40.2886 8.89173 40.348ZM5.71388 40.9066C5.52345 40.5501 5.14259 39.8251 5.05927 39.6706C4.97596 39.528 4.90455 39.4092 4.82123 39.326C4.73792 39.2428 4.6546 39.1834 4.57129 39.1477C4.48797 39.1121 4.41656 39.1002 4.34515 39.1121C4.27374 39.1121 4.19042 39.1358 4.11901 39.1715C3.69054 39.3973 3.63103 39.7182 3.91668 40.2767L4.57129 41.5127L5.71388 40.9066ZM7.85625 39.7776C7.66582 39.4211 7.28495 38.6961 7.20164 38.5416C7.13023 38.399 7.04691 38.2683 6.9517 38.1613C6.86838 38.0543 6.77317 37.983 6.67795 37.9355C6.58273 37.8879 6.48752 37.8642 6.3804 37.8642C6.27328 37.8642 6.14236 37.8998 5.99953 37.9711C5.7853 38.09 5.66628 38.2326 5.64247 38.4227C5.61867 38.6367 5.69008 38.9219 5.86861 39.2547L6.52322 40.4907L7.85625 39.7776ZM29.6846 51.1511C29.4704 50.8778 29.1966 50.6638 28.8634 50.4975C28.5301 50.3311 28.1492 50.2479 27.7208 50.2479C27.5184 50.2479 27.328 50.2716 27.1376 50.3073C26.9471 50.343 26.7448 50.4143 26.5782 50.5093C26.4234 50.5925 26.2925 50.7114 26.1616 50.8302L26.1497 50.5806C26.1378 50.4499 26.0307 50.343 25.8997 50.343C25.8521 50.343 25.6022 50.343 25.5546 50.343C25.4118 50.343 25.3046 50.4499 25.3046 50.5925L25.2808 53.1477C25.2808 53.2903 25.388 53.3973 25.5308 53.3973L27.6612 53.4092C27.8041 53.4092 27.9112 53.3022 27.9112 53.1596L27.9231 52.7436C27.9231 52.601 27.8041 52.4941 27.6731 52.4941L26.2568 52.4822C26.2687 52.3514 26.2687 52.1969 26.3163 52.0781C26.3877 51.8879 26.471 51.7216 26.602 51.5908C26.7329 51.4601 26.8876 51.3531 27.0661 51.2818C27.2566 51.2105 27.4708 51.1749 27.7208 51.1749C28.0183 51.1749 28.2563 51.2343 28.4587 51.3413C28.661 51.4482 28.8276 51.6027 28.9586 51.781C29.0895 51.9711 29.1847 52.1732 29.2442 52.4109C29.3037 52.6604 29.3513 52.8981 29.3394 53.1477C29.3394 53.3973 29.2918 53.6469 29.2204 53.8845C29.149 54.1222 29.0538 54.3243 28.911 54.5144C28.78 54.6927 28.6134 54.8234 28.4111 54.9304C28.2087 55.0374 27.9588 55.0849 27.6731 55.0849C27.4708 55.0849 27.2685 55.0492 27.1138 54.9779C26.9471 54.9066 26.8043 54.8234 26.6972 54.7284C26.5782 54.6214 26.4948 54.5025 26.4234 54.3837C26.3639 54.2649 26.3282 54.146 26.3163 54.0391C26.3044 53.9083 26.1973 53.8132 26.0664 53.8132H25.5903C25.4356 53.8132 25.3165 53.944 25.3403 54.0985C25.388 54.4075 25.4832 54.6808 25.626 54.9185C25.7688 55.1562 25.9354 55.3464 26.1497 55.5127C26.352 55.6791 26.5901 55.798 26.8519 55.8693C27.1138 55.9525 27.3756 56 27.6612 56C28.0897 56 28.4825 55.9287 28.8157 55.7742C29.149 55.6197 29.4346 55.4058 29.6489 55.1443C29.875 54.8829 30.0297 54.5739 30.1369 54.2292C30.244 53.8964 30.3035 53.528 30.3154 53.1596C30.3154 52.7912 30.2678 52.4346 30.1726 52.09C30.0536 51.7216 29.8988 51.4126 29.6846 51.1511ZM4.71411 32.7657C4.96406 32.6469 5.19019 32.4924 5.36872 32.2903C5.54726 32.0883 5.67818 31.8387 5.76149 31.5416C5.84481 31.2564 5.85671 30.9236 5.821 30.5433C5.77339 30.163 5.69008 29.8421 5.54726 29.5688C5.40443 29.3073 5.214 29.0815 4.98786 28.927C4.76172 28.7725 4.52368 28.6655 4.24993 28.618C3.98809 28.5705 3.71434 28.5586 3.42869 28.5942L0.238946 28.9508C0.0961212 28.9626 0.000904927 29.0934 0.012807 29.236L0.0604151 29.7114C0.0723172 29.854 0.20324 29.9491 0.346064 29.9372L3.44059 29.5806C3.70244 29.545 3.92858 29.5569 4.11901 29.5925C4.29754 29.6282 4.42846 29.6876 4.53558 29.7708C4.6427 29.854 4.73792 29.9728 4.79743 30.1036C4.86884 30.2581 4.90455 30.4244 4.92835 30.6384C4.95215 30.8404 4.95215 31.0306 4.91645 31.1851C4.89264 31.3396 4.83313 31.4584 4.73792 31.5654C4.6546 31.6723 4.52368 31.7674 4.35705 31.8387C4.19042 31.91 3.97619 31.9694 3.70244 31.9932L0.607909 32.3497C0.465084 32.3616 0.369868 32.4924 0.38177 32.6231C0.393672 32.6825 0.429378 33.0272 0.44128 33.0866C0.453182 33.2292 0.584105 33.3243 0.715027 33.3124L3.91668 32.9559C4.20233 32.944 4.46417 32.8727 4.71411 32.7657ZM12.3552 11.4686C12.4028 11.528 12.4504 11.5518 12.5219 11.5637C12.5814 11.5756 12.6528 11.5637 12.7123 11.5161L15.4378 9.31749C15.4974 9.26995 15.5212 9.22241 15.5331 9.1511C15.545 9.09168 15.5212 9.02037 15.4736 8.96095L15.2236 8.64007C15.1403 8.53311 14.9737 8.52122 14.8666 8.60441L12.7123 10.3396L11.772 9.18676L13.7597 7.59423C13.8668 7.51104 13.8906 7.34465 13.7954 7.23769L13.5335 6.91681C13.4502 6.80985 13.2836 6.78608 13.1765 6.88115L11.2007 8.47368L10.3795 7.45161L12.5099 5.74024C12.6171 5.65705 12.6409 5.49066 12.5457 5.3837L12.2957 5.0747C12.2481 5.01528 12.1886 4.99151 12.1172 4.97963C12.0577 4.96774 11.9863 4.97963 11.9387 5.02716C11.6054 5.30051 9.57014 6.92869 9.23689 7.20204C9.17738 7.24958 9.15357 7.29711 9.14167 7.36842C9.12977 7.42784 9.14167 7.49915 9.18928 7.55857L12.3552 11.4686ZM13.2122 4.46859C13.1527 4.34975 13.2003 4.18336 13.3193 4.12394C13.5097 4.02886 14.6642 3.41087 14.8666 3.31579C15.2355 3.13752 15.5926 3.01868 15.9258 2.98302C16.2591 2.94737 16.5804 2.98302 16.8899 3.0781C17.4969 3.28014 17.9968 3.79117 18.4134 4.57555C18.8299 5.37182 18.9609 6.06112 18.7942 6.67912C18.6276 7.29711 18.1634 7.79626 17.4374 8.21222L15.902 9.02037C15.783 9.0798 15.6164 9.04414 15.5569 8.9253L13.2122 4.46859ZM14.3905 4.58744L16.1163 7.86757C16.3543 7.73684 16.7114 7.54669 16.7947 7.51104C17.0922 7.35654 17.3303 7.19015 17.5088 7.02377C17.6754 6.85739 17.7826 6.691 17.8421 6.50085C17.9016 6.3107 17.9016 6.09677 17.854 5.87097C17.8064 5.62139 17.6992 5.34805 17.5326 5.03905C17.366 4.73005 17.1994 4.48048 17.0208 4.30221C16.8542 4.13582 16.6757 4.02886 16.4971 3.96944C16.3067 3.91002 16.1044 3.89813 15.8663 3.94567C15.6283 3.99321 15.3545 4.10017 15.057 4.25467L14.3905 4.58744ZM38.0279 53.837C38.0636 53.9677 37.9922 54.1104 37.8494 54.146C37.6352 54.2054 36.3973 54.5857 36.1831 54.6452C35.3857 54.8591 34.7073 54.8234 34.1479 54.5025C33.6004 54.1817 33.1957 53.5874 32.9338 52.7317C32.8029 52.3039 32.7434 51.9117 32.7434 51.5433C32.7434 51.1868 32.8267 50.8659 32.9696 50.5806C33.2552 50.0102 33.8027 49.5942 34.5882 49.3447L36.2545 48.8455C36.3854 48.8098 36.5283 48.8812 36.564 49.0238L38.0279 53.837ZM36.8972 53.4924L35.8379 49.9389C35.5761 50.0221 35.1952 50.129 35.1 50.1647C34.7787 50.2598 34.5168 50.3786 34.3145 50.5093C34.1241 50.6401 33.9812 50.7946 33.886 50.9609C33.7908 51.1273 33.7432 51.3413 33.7432 51.5789C33.7432 51.8285 33.7908 52.1256 33.886 52.4584C33.9931 52.7912 34.1122 53.0645 34.2431 53.2784C34.374 53.4805 34.5287 53.6231 34.6953 53.7182C34.8739 53.8132 35.0762 53.8608 35.3024 53.8608C35.5523 53.8608 35.8379 53.8132 36.1593 53.7182L36.8972 53.4924ZM20.3891 49.0832L17.1755 47.6689C17.116 47.6452 17.0327 47.6333 16.9732 47.657C16.9137 47.6808 16.8661 47.7284 16.8304 47.7997L16.6638 48.1681C16.6042 48.2988 16.6638 48.4414 16.7947 48.5008L19.3417 49.6299L18.7347 50.9728L16.4019 49.9508C16.271 49.8913 16.1282 49.9508 16.0687 50.0815L15.902 50.4499C15.8425 50.5806 15.902 50.7351 16.0211 50.7827L18.3538 51.8048L17.8302 52.9932L15.3188 51.8879C15.1879 51.8285 15.0332 51.8879 14.9856 52.0187L14.8189 52.3871C14.7594 52.5178 14.8189 52.6723 14.9499 52.7199C15.3426 52.8981 17.723 53.944 18.1277 54.1104C18.2586 54.1698 18.4134 54.1104 18.461 53.9915L20.4843 49.4041C20.5676 49.2971 20.52 49.1426 20.3891 49.0832ZM5.40443 11.5161C5.40443 11.4567 5.41633 11.3854 5.46394 11.326C5.65437 11.1121 6.76126 9.79287 6.9517 9.57895C7.09452 9.40068 7.26115 9.25806 7.43968 9.13922C7.63011 9.00849 7.82055 8.9253 8.02288 8.88964C8.23712 8.84211 8.45135 8.84211 8.66559 8.90153C8.87983 8.96095 9.09406 9.06791 9.2964 9.23429C9.58205 9.47199 9.77248 9.75722 9.85579 10.09C9.8915 10.2326 9.8915 10.3871 9.8796 10.5297C9.99862 10.5059 10.1176 10.4822 10.2367 10.4941C10.3914 10.5059 10.5342 10.5535 10.677 10.6248C10.808 10.6961 10.9389 10.7674 11.0698 10.8744C11.1412 10.9219 11.2245 10.9932 11.3197 11.0764C11.415 11.1477 11.4983 11.219 11.5935 11.2784C11.6887 11.3379 11.7839 11.3973 11.8672 11.4329C11.9387 11.4686 11.9982 11.4805 12.0458 11.4805C12.26 11.4805 12.379 11.7301 12.2362 11.8964L11.9029 12.3005C11.8434 12.3718 11.7482 12.4075 11.6649 12.3956C11.5816 12.3837 11.4983 12.348 11.415 12.3005C11.3435 12.2649 11.2721 12.2292 11.2007 12.1817C11.1412 12.1341 10.9151 11.9796 10.8675 11.944C10.7246 11.837 10.5818 11.7419 10.439 11.6469C10.3081 11.5637 10.201 11.5042 10.0819 11.4686C9.97481 11.4448 9.8677 11.4448 9.76058 11.4805C9.66536 11.5042 9.57015 11.5874 9.45112 11.7301L8.43945 12.9185L9.95101 14.202C10.0581 14.2971 10.07 14.4516 9.97481 14.5586L9.66536 14.9151C9.61775 14.9626 9.55824 14.9983 9.48683 15.0102C9.42732 15.0102 9.35591 14.9983 9.2964 14.9508L5.49965 11.6825C5.44014 11.635 5.41633 11.5756 5.40443 11.5161ZM6.64224 11.3616L7.76103 12.3124C8.03478 11.9915 8.62988 11.2903 8.76081 11.1358C8.83222 11.0407 8.89173 10.9457 8.93934 10.8506C8.97504 10.7555 8.99885 10.6604 8.99885 10.5654C8.99885 10.4703 8.98694 10.3752 8.93934 10.292C8.90363 10.2088 8.84412 10.1256 8.7489 10.0424C8.55847 9.88795 8.37994 9.81664 8.20141 9.84041C8.02288 9.85229 7.84435 9.97114 7.64201 10.1969L6.64224 11.3616ZM0.227044 27.6316L5.2378 28.0119C5.38063 28.0238 5.49965 27.9168 5.51155 27.7861L5.7853 24.292C5.7853 24.2801 5.77339 24.2683 5.77339 24.2564C5.7853 24.2445 5.7972 24.2326 5.7972 24.2207L6.77317 20.4414C6.80887 20.3107 6.72556 20.1681 6.59463 20.1324L6.20187 20.0374C6.07094 20.0017 5.92812 20.0849 5.89241 20.2156L5.17829 22.9847L2.26229 19.146C2.22659 19.0985 2.19088 19.0747 2.13137 19.0509L1.7148 18.944C1.58388 18.9083 1.44105 18.9915 1.40535 19.1222C1.28633 19.562 0.619811 22.1885 0.500791 22.6163C0.465084 22.747 0.548399 22.8896 0.679321 22.9253L1.07209 23.0323C1.20301 23.0679 1.34584 22.9847 1.38154 22.854L2.03615 20.382L4.91645 24.1732C4.90455 24.1969 4.88074 24.2088 4.88074 24.2326L4.6665 27.0017L3.19065 26.8829L3.39299 24.3396C3.40489 24.1969 3.29777 24.0781 3.16685 24.0662L2.75028 24.0306C2.60745 24.0187 2.48843 24.1256 2.47653 24.2564L2.27419 26.7997L0.96497 26.6927L1.17921 23.9711C1.19111 23.8285 1.08399 23.7097 0.953068 23.6978L0.536497 23.6621C0.393672 23.6503 0.274652 23.7572 0.26275 23.8998C0.227044 24.3277 0.036611 26.9185 0.000904927 27.3464C-0.0109971 27.5008 0.0961212 27.6197 0.227044 27.6316ZM53.5839 40.6333C53.5839 42.2377 52.2747 43.545 50.6679 43.545C49.0611 43.545 47.7519 42.2377 47.7519 40.6333C47.7519 39.0289 49.0611 37.7216 50.6679 37.7216C52.2747 37.7216 53.5839 39.0289 53.5839 40.6333ZM52.9174 40.6333C52.9174 39.3973 51.9176 38.3871 50.6679 38.3871C49.4301 38.3871 48.4184 39.3973 48.4184 40.6333C48.4184 41.8693 49.4301 42.8795 50.6679 42.8795C51.9057 42.8795 52.9174 41.8812 52.9174 40.6333ZM51.6677 39.3022H49.6681C49.4777 39.3022 49.3349 39.4567 49.3349 39.635C49.3349 39.8251 49.4896 39.9677 49.6681 39.9677H50.8583L49.4301 41.3939C49.2158 41.6078 49.3706 41.9643 49.6681 41.9643H51.6677C51.8581 41.9643 52.0009 41.8098 52.0009 41.6316C52.0009 41.4414 51.8462 41.2988 51.6677 41.2988H50.4775L51.9057 39.8727C52.108 39.6706 51.9652 39.3022 51.6677 39.3022ZM34.1241 21.9745C34.1241 22.6638 34.1241 23.781 34.1241 24.2326C34.1241 24.3514 34.1836 24.4584 34.2907 24.5178C34.4692 24.6248 34.7787 24.8031 35.0762 24.9694C35.1595 25.017 35.2785 25.0051 35.3381 24.9338C35.4095 24.8625 35.4214 24.7555 35.3738 24.6723C35.1595 24.3158 34.9572 23.9474 34.9572 23.9474C34.8382 23.7334 34.8739 23.4601 35.0405 23.2818C35.219 23.1036 35.4928 23.0679 35.707 23.1986L43.1458 27.489C43.3124 27.584 43.4195 27.7742 43.4195 27.9643V36.4856C43.4195 36.5093 43.4195 36.5331 43.4195 36.5569C43.4195 36.7589 43.3124 36.9372 43.1458 37.0323L28.2563 45.6129C28.0897 45.708 27.8755 45.708 27.7089 45.6129L12.8194 37.0323C12.6528 36.9372 12.5457 36.747 12.5457 36.5569V19.3837C12.5457 19.1817 12.6528 19.0034 12.8194 18.9083L27.7089 10.3277L43.1577 18.8964C43.3243 18.9915 43.4314 19.1817 43.4314 19.3718V25.8132C43.4314 26.0153 43.3243 26.1935 43.1577 26.2886C42.9911 26.3837 42.7768 26.3837 42.6102 26.2886C42.6102 26.2886 36.4449 22.7351 34.6358 21.6893C34.5287 21.6299 34.4097 21.6299 34.3026 21.6893C34.1955 21.7487 34.1241 21.8557 34.1241 21.9745ZM14.1524 35.2971C15.1522 34.7267 17.3422 33.455 17.973 33.0985C18.0801 33.039 18.1396 32.9321 18.1396 32.8132C18.1396 31.399 18.1396 22.5925 18.1396 22.5925C18.1396 22.3905 18.2467 22.2122 18.4134 22.1171L22.1387 19.9779C22.3529 19.8472 22.6267 19.8947 22.8052 20.0611C22.9837 20.2394 23.0194 20.5127 22.8885 20.7267C22.8885 20.7267 21.8769 22.4737 21.4722 23.1868C21.4246 23.2581 21.4127 23.3531 21.4365 23.4363C21.4603 23.5195 21.5198 23.5908 21.5912 23.6384C21.9959 23.8761 22.6862 24.2683 22.6862 24.2683C22.8528 24.3633 22.9599 24.5535 22.9599 24.7436C22.9599 24.7436 22.9599 28.2496 22.9599 29.652C22.9599 29.7708 23.0194 29.8778 23.1266 29.9372C23.2337 29.9966 23.3527 29.9966 23.4598 29.9372C24.4596 29.3667 26.6496 28.0951 27.2685 27.7385C27.3756 27.6791 27.4351 27.5722 27.4351 27.4533C27.4351 25.8727 27.4351 14.9626 27.4351 12.3243C27.4351 12.2054 27.3756 12.0985 27.2685 12.039C27.1614 11.9796 27.0423 11.9796 26.9352 12.039C24.65 13.3582 15.1879 18.8132 13.8192 19.5976C13.7121 19.657 13.6525 19.764 13.6525 19.8829C13.6525 21.4635 13.6525 32.3735 13.6525 35.0119C13.6525 35.1307 13.7121 35.2377 13.8192 35.2971C13.9263 35.3565 14.0453 35.3565 14.1524 35.2971ZM20.0677 23.3888C20.0677 23.3888 20.282 23.0204 20.4843 22.6638C20.5319 22.5806 20.52 22.4737 20.4486 22.4024C20.3772 22.3311 20.2701 22.3192 20.1868 22.3667C19.9011 22.5331 19.5917 22.7114 19.4012 22.8183C19.2941 22.8778 19.2346 22.9847 19.2346 23.1036C19.2346 24.2207 19.2346 29.9491 19.2346 31.7912C19.2346 31.91 19.2941 32.017 19.4012 32.0764C19.5083 32.1358 19.6274 32.1358 19.7345 32.0764C20.3296 31.7317 21.3056 31.1732 21.6864 30.9474C21.7935 30.8879 21.853 30.781 21.853 30.6621C21.853 29.7827 21.853 26.1222 21.853 25.2428C21.853 25.1239 21.7935 25.017 21.6864 24.9576C21.2818 24.7199 20.2701 24.1375 20.2701 24.1375C20.1392 24.0662 20.0558 23.9474 20.0082 23.8048C19.9725 23.674 19.9963 23.5195 20.0677 23.3888ZM41.4438 36.545C41.4438 36.4261 41.3843 36.3192 41.2772 36.2598C38.992 34.9406 29.5299 29.4856 28.1492 28.6893C28.0421 28.6299 27.9231 28.6299 27.816 28.6893C26.9233 29.2122 22.6743 31.6486 22.6743 31.6486C22.6624 31.6486 22.6624 31.6604 22.6505 31.6604C22.6505 31.6604 16.509 35.202 14.688 36.2479C14.5809 36.3073 14.5214 36.4143 14.5214 36.5331C14.5214 36.652 14.5809 36.7589 14.688 36.8183C16.9732 38.1375 26.4353 43.5925 27.8041 44.3769C27.9112 44.4363 28.0302 44.4363 28.1373 44.3769C29.5061 43.5925 38.9682 38.1375 41.2653 36.8183C41.3843 36.7708 41.4438 36.6638 41.4438 36.545ZM33.0172 24.7436V20.4533C33.0172 20.2513 33.1243 20.073 33.2909 19.9779C33.4575 19.8829 33.6718 19.8829 33.8384 19.9779C33.8384 19.9779 40.0037 23.5314 41.8128 24.5772C41.9199 24.6367 42.0389 24.6367 42.146 24.5772C42.2531 24.5178 42.3127 24.4109 42.3127 24.292C42.3127 23.1392 42.3127 20.6078 42.3127 19.8947C42.3127 19.7759 42.2531 19.6689 42.146 19.6095C40.7773 18.8251 31.3152 13.3701 29.03 12.0509C28.9229 11.9915 28.8038 11.9915 28.6967 12.0509C28.5896 12.1104 28.5301 12.2173 28.5301 12.3362C28.5301 14.9745 28.5301 25.8846 28.5301 27.4652C28.5301 27.584 28.5896 27.691 28.6967 27.7504C30.0655 28.5348 39.5276 33.9898 41.8128 35.309C41.9199 35.3684 42.0389 35.3684 42.146 35.309C42.2531 35.2496 42.3127 35.1426 42.3127 35.0238C42.3127 33.5025 42.3127 29.4143 42.3127 28.4754C42.3127 28.3565 42.2531 28.2496 42.146 28.1902C41.4676 27.798 38.9087 26.3243 37.6471 25.5993C37.5637 25.5518 37.4566 25.5637 37.3852 25.635C37.3138 25.7063 37.3019 25.8132 37.3495 25.8964C37.5637 26.253 37.7661 26.6214 37.7661 26.6214C37.8851 26.8353 37.8494 27.1087 37.6709 27.2869C37.4923 27.4652 37.2186 27.5008 37.0043 27.3701L33.279 25.2309C33.1243 25.1239 33.0172 24.9338 33.0172 24.7436ZM32.2435 36.6876C32.184 36.9253 31.9579 37.0917 31.7079 37.0917C31.7079 37.0917 29.6846 37.0917 28.8634 37.0917C28.6848 37.0917 28.5301 37.2343 28.5301 37.4244C28.5301 37.8879 28.5301 38.6842 28.5301 38.6842C28.5301 38.8862 28.423 39.0645 28.2563 39.1596C28.0897 39.2547 27.8755 39.2547 27.7089 39.1596L23.9835 37.0085C23.8169 36.9134 23.7098 36.7233 23.7098 36.5331C23.7098 36.343 23.8169 36.1528 23.9835 36.0577L27.7089 33.9066C27.8755 33.8115 28.0897 33.8115 28.2563 33.9066L31.9817 36.0577C32.2078 36.1885 32.3149 36.4499 32.2435 36.6876ZM28.9348 35.5823C28.6491 35.416 28.3397 35.2377 28.1492 35.1307C28.0421 35.0713 27.9231 35.0713 27.816 35.1307C27.4351 35.3565 26.4591 35.9151 25.864 36.2598C25.7569 36.3192 25.6974 36.4261 25.6974 36.545C25.6974 36.6638 25.7569 36.7708 25.864 36.8302C26.1854 37.0204 26.6139 37.2581 26.9352 37.4482C27.0423 37.5076 27.1614 37.5076 27.2685 37.4482C27.3756 37.3888 27.4351 37.2818 27.4351 37.163C27.4351 36.854 27.4351 36.545 27.4351 36.545C27.4351 36.236 27.685 35.9983 27.9826 35.9983C27.9826 35.9983 28.3992 35.9983 28.8157 35.9983C28.911 35.9983 29.0062 35.927 29.03 35.8319C29.0657 35.7368 29.03 35.6299 28.9348 35.5823Z" fill="white"/>
</svg>
