<?xml version="1.0" encoding="utf-8"?>
<!-- Generator: Adobe Illustrator 26.0.1, SVG Export Plug-In . SVG Version: 6.00 Build 0)  -->
<svg version="1.1" id="Layer_1" xmlns="http://www.w3.org/2000/svg" xmlns:xlink="http://www.w3.org/1999/xlink" x="0px" y="0px"
	 viewBox="0 0 56 57" style="enable-background:new 0 0 56 57;" xml:space="preserve">
<style type="text/css">
	.st0{fill:#FFFFFF;}
</style>
<g>
	<path class="st0" d="M35.2309,6.4271l1.9758-4.618c0.0238-0.0595,0.0833-0.119,0.1428-0.1428
		c0.0595-0.0238,0.1309-0.0238,0.2023,0.0119c0.4047,0.1666,2.797,1.1902,3.1898,1.3687c0.1309,0.0595,0.1904,0.2023,0.1309,0.3333
		L40.7059,3.761c-0.0595,0.1309-0.2024,0.1904-0.3333,0.1309l-2.5232-1.0831L37.3257,4.011l2.3447,0.9998
		c0.1309,0.0595,0.1904,0.2023,0.1309,0.3333l-0.1666,0.3809c-0.0595,0.1309-0.2023,0.1904-0.3333,0.1309L36.9567,4.856
		l-0.5832,1.3687l2.5471,1.0831c0.1309,0.0595,0.1904,0.2142,0.1428,0.3333l-0.1666,0.369
		c-0.0595,0.1309-0.2024,0.1904-0.3333,0.1428l-3.2254-1.3806C35.2309,6.7009,35.1714,6.5461,35.2309,6.4271z M24.9952,50.5718
		l-1.1188,4.9036c-0.0357,0.1309-0.1547,0.2142-0.2976,0.1904c-0.2856-0.0595-1.9638-0.4403-2.2494-0.5117
		c-0.2262-0.0477-0.4404-0.131-0.6308-0.2262c-0.2024-0.1071-0.3571-0.238-0.488-0.3928c-0.1429-0.1666-0.2262-0.357-0.2857-0.5713
		c-0.0476-0.2261-0.0476-0.4641,0.0119-0.7141c0.0833-0.357,0.25-0.6546,0.4999-0.8926c0.1071-0.0952,0.238-0.1667,0.3809-0.2262
		c-0.0833-0.0952-0.1667-0.1904-0.2024-0.2975c-0.0595-0.1428-0.0833-0.2976-0.0833-0.4642c0-0.1428,0.0119-0.3094,0.0357-0.4642
		c0.0119-0.0833,0.0357-0.1785,0.0595-0.3094c0.0238-0.119,0.0476-0.2381,0.0595-0.3571c0.012-0.1071,0.012-0.2142,0.012-0.3094
		c0-0.0834-0.012-0.1429-0.0358-0.1786c-0.0952-0.1904,0.0715-0.4046,0.2857-0.357l0.5118,0.119
		c0.0833,0.0238,0.1666,0.0833,0.1904,0.1666s0.0357,0.1666,0.0357,0.2619c0,0.0833,0,0.1666-0.0119,0.2499
		c-0.0119,0.0714-0.0476,0.3452-0.0595,0.4047c-0.0238,0.1666-0.0595,0.3451-0.0714,0.5118
		c-0.0119,0.1547-0.0119,0.2856,0.0119,0.4165c0.0238,0.1071,0.0833,0.1905,0.1547,0.2738c0.0714,0.0714,0.1786,0.119,0.3571,0.1547
		l1.5353,0.3452l0.4404-1.9282c0.0357-0.1309,0.1667-0.2261,0.3095-0.2023l0.4642,0.1071
		C24.9357,50.298,25.019,50.4408,24.9952,50.5718z M23.3884,53.1783c-0.4166-0.0952-1.3092-0.2975-1.4996-0.3332
		c-0.1191-0.0238-0.2262-0.0238-0.3333-0.0119c-0.1071,0.0119-0.2023,0.0357-0.2857,0.0833
		c-0.0833,0.0476-0.1547,0.1071-0.2261,0.1785c-0.0595,0.0714-0.0952,0.1666-0.119,0.2737
		c-0.0595,0.2381-0.0357,0.4285,0.0714,0.5832c0.0952,0.1548,0.2737,0.2619,0.5713,0.3333l1.4997,0.3333L23.3884,53.1783z
		 M31.4342,5.7844l3.4278,0.7855c0.1309,0.0357,0.2737-0.0476,0.2975-0.1904l0.0952-0.4047
		c0.0358-0.1309-0.0595-0.2618-0.2023-0.2976l-2.7018-0.6189l0.3214-1.4402l2.4875,0.5594c0.131,0.0357,0.2619-0.0476,0.2976-0.1904
		l0.0952-0.4047c0.0357-0.1309-0.0595-0.2618-0.1904-0.2975l-2.4876-0.5713L33.16,1.4402l2.6779,0.5951
		c0.131,0.0357,0.2738-0.0476,0.3095-0.1904l0.0952-0.3928c0.0357-0.1309-0.0476-0.2737-0.1904-0.3094
		c-0.4285-0.0952-2.9636-0.6665-3.3921-0.7617c-0.1309-0.0357-0.2737,0.0476-0.3095,0.1904l-1.1068,4.9036
		C31.22,5.6178,31.3033,5.7487,31.4342,5.7844z M46.9783,48.2747c0.0476,0.0595,0.0595,0.119,0.0595,0.1904
		c-0.0119,0.0595-0.0357,0.119-0.0953,0.1666c-0.2261,0.1786-1.571,1.2616-1.7972,1.4521
		c-0.1785,0.1428-0.3689,0.2618-0.5713,0.3451c-0.2023,0.0834-0.4165,0.131-0.6189,0.1429c-0.2142,0-0.4284-0.0357-0.6308-0.131
		c-0.2023-0.0952-0.3808-0.2499-0.5475-0.4522c-0.2261-0.2857-0.3689-0.607-0.3927-0.9403
		c-0.0119-0.1547,0.0238-0.2975,0.0714-0.4404c-0.119,0.0119-0.25,0.0238-0.3571-0.0119c-0.1428-0.0476-0.2856-0.119-0.4166-0.2261
		c-0.119-0.0952-0.238-0.1904-0.3451-0.3095c-0.0595-0.0595-0.119-0.1428-0.2023-0.238c-0.0715-0.0833-0.1548-0.1666-0.2381-0.2499
		c-0.0833-0.0834-0.1666-0.1429-0.2499-0.2024c-0.0595-0.0476-0.119-0.0714-0.1548-0.0833
		c-0.2142-0.0357-0.2856-0.3094-0.119-0.4404l0.4166-0.3332c0.0714-0.0595,0.1666-0.0714,0.2499-0.0357
		c0.0833,0.0238,0.1548,0.0714,0.2262,0.119c0.0595,0.0476,0.1309,0.1071,0.1904,0.1785c0.0476,0.0595,0.238,0.25,0.2738,0.2976
		c0.119,0.1309,0.2261,0.2499,0.357,0.3689c0.1071,0.1071,0.2143,0.1905,0.3333,0.2381c0.0952,0.0476,0.2023,0.0595,0.3094,0.0476
		c0.0952-0.0119,0.2143-0.0714,0.3571-0.1905l1.214-0.9759l-1.2378-1.5473c-0.0833-0.1071-0.0714-0.2618,0.0357-0.357l0.3809-0.2976
		c0.0476-0.0476,0.119-0.0595,0.1785-0.0595c0.0595,0.0119,0.1309,0.0357,0.1785,0.0952L46.9783,48.2747z M45.8,48.3818
		l-0.9284-1.1545c-0.3333,0.2618-1.0474,0.845-1.1902,0.9641c-0.0952,0.0714-0.1666,0.1666-0.2261,0.2499
		c-0.0596,0.0952-0.0953,0.1785-0.1072,0.2737c-0.0119,0.0953-0.0119,0.1786,0.0119,0.2738s0.0714,0.1785,0.1429,0.2737
		c0.1547,0.1905,0.3094,0.2976,0.4879,0.3095c0.1786,0.0238,0.3809-0.0595,0.6189-0.2499L45.8,48.3818z M55.762,27.7556
		l-0.4166-0.0238c-0.1428-0.012-0.25,0.0952-0.2619,0.238l-0.1666,2.5589l-3.5468-3.1778c0-0.0238,0.0238-0.0476,0.0238-0.0714
		l-0.3094-2.7494l1.4639-0.1785l0.2857,2.5351c0.0119,0.1428,0.1428,0.238,0.2856,0.2261l0.4047-0.0357
		c0.1428-0.0119,0.238-0.1428,0.2261-0.2737l-0.2856-2.547l1.2973-0.1429l0.3094,2.7256c0.0119,0.1428,0.1429,0.238,0.2738,0.2261
		l0.4047-0.0476c0.1428-0.0119,0.238-0.1428,0.2261-0.2737c-0.0476-0.4285-0.3333-3.0112-0.3809-3.4516
		c-0.0119-0.1428-0.1428-0.238-0.2737-0.2261l-4.987,0.5593c-0.1428,0.012-0.238,0.1429-0.2261,0.2857l0.3809,3.4873
		c0,0.0119,0.0238,0.0238,0.0238,0.0357s-0.0119,0.0119-0.0119,0.0238l-0.25,3.9039c-0.0119,0.1428,0.0952,0.2618,0.2381,0.2737
		l0.4046,0.0238c0.1429,0.0119,0.2619-0.0952,0.2738-0.238l0.1785-2.8565l3.5825,3.2254c0.0357,0.0358,0.0952,0.0596,0.1547,0.0596
		l0.4166,0.0357c0.1428,0.0119,0.2619-0.0953,0.2738-0.2381c0.0238-0.4523,0.1904-3.154,0.2261-3.6063
		C56,27.8865,55.9048,27.7556,55.762,27.7556z M49.93,18.8647c-0.2262,0.1548-0.4166,0.3571-0.5475,0.5951
		c-0.1429,0.2381-0.2143,0.4999-0.2381,0.8094c-0.0238,0.2975,0.0119,0.6308,0.1309,0.9997
		c0.1191,0.369,0.2619,0.6666,0.4642,0.8927c0.1905,0.238,0.4166,0.4047,0.6665,0.5237c0.25,0.1071,0.5118,0.1785,0.7856,0.1785
		c0.2737,0,0.5475-0.0476,0.8093-0.1309l3.0588-0.976c0.131-0.0476,0.2024-0.1904,0.1667-0.3213l-0.1429-0.4523
		c-0.0357-0.1309-0.1904-0.2023-0.3213-0.1666l-2.9636,0.9402c-0.25,0.0833-0.4761,0.119-0.6665,0.119
		c-0.1786,0-0.3214-0.0357-0.4404-0.0952s-0.238-0.1428-0.3214-0.2737c-0.0952-0.1309-0.1785-0.2976-0.238-0.4999
		c-0.0595-0.1904-0.0952-0.3809-0.0952-0.5475c0-0.1547,0.0357-0.2856,0.0952-0.4166c0.0714-0.119,0.1666-0.238,0.3094-0.3332
		c0.1548-0.1071,0.3571-0.2024,0.6071-0.2857l2.9755-0.9402c0.1309-0.0476,0.2023-0.1786,0.1666-0.3095
		c-0.0238-0.0595-0.1309-0.4047-0.1547-0.4642c-0.0476-0.1309-0.1905-0.2023-0.3214-0.1666l-3.0588,0.976
		C50.406,18.5791,50.1561,18.71,49.93,18.8647z M21.2698,4.7013c0.1667,0.3213,0.3928,0.5951,0.6547,0.8093
		c0.2618,0.2261,0.5713,0.3809,0.9283,0.4761c0.1786,0.0476,0.369,0.0714,0.5594,0.0833c0.1904,0,0.3928-0.0119,0.607-0.0476
		c0.2024-0.0357,0.3928-0.0952,0.5713-0.1666c0.1785-0.0714,0.3452-0.1785,0.4999-0.2976c0.1309-0.1071,0.2499-0.238,0.3571-0.3809
		l0.0595,0.238c0.0357,0.1309,0.1547,0.2142,0.2856,0.1904c0.0476-0.0119,0.2976-0.0476,0.3452-0.0595
		c0.1428-0.0238,0.2261-0.1547,0.2023-0.2976l-0.4642-2.5113c-0.0238-0.1428-0.1547-0.2261-0.2975-0.2023L23.4836,2.916
		c-0.1428,0.0238-0.2261,0.1547-0.2023,0.2857l0.0714,0.4047c0.0238,0.1428,0.1547,0.2261,0.2976,0.2023l1.3925-0.2499
		c0.0119,0.1428,0.0357,0.2857,0.0119,0.4166c-0.0238,0.2023-0.0952,0.3809-0.1904,0.5356
		c-0.0953,0.1547-0.2381,0.2976-0.4047,0.4047c-0.1666,0.1071-0.369,0.1904-0.607,0.2261
		c-0.2857,0.0476-0.5356,0.0357-0.7617-0.0357c-0.2262-0.0714-0.4166-0.1785-0.5713-0.3333
		c-0.1667-0.1547-0.2976-0.3452-0.4047-0.5713c-0.1071-0.2261-0.1904-0.4642-0.2261-0.7022
		c-0.0477-0.2499-0.0596-0.4999-0.0358-0.7498c0.0239-0.238,0.0834-0.4642,0.1786-0.6665c0.0952-0.2023,0.238-0.369,0.4166-0.5237
		c0.1785-0.1428,0.4046-0.238,0.7022-0.2857c0.2023-0.0357,0.3927-0.0357,0.5594,0c0.1785,0.0357,0.3332,0.0952,0.4641,0.1785
		c0.131,0.0833,0.25,0.1785,0.3333,0.2857S24.65,1.94,24.6857,2.0471c0.0357,0.1309,0.1548,0.2023,0.2857,0.1785l0.4642-0.0833
		c0.1547-0.0238,0.2499-0.1904,0.2023-0.3333c-0.1071-0.2976-0.2499-0.5475-0.4404-0.7498c-0.1785-0.2023-0.3927-0.369-0.6308-0.488
		c-0.238-0.119-0.488-0.2023-0.7617-0.2261c-0.2738-0.0357-0.5475-0.0238-0.8332,0.0357c-0.4284,0.0714-0.7855,0.2142-1.083,0.4404
		c-0.2976,0.2142-0.5356,0.488-0.7023,0.7855c-0.1666,0.2975-0.2737,0.6308-0.3213,0.9879
		c-0.0476,0.3571-0.0357,0.7141,0.0357,1.0831C20.9961,4.0467,21.1032,4.3918,21.2698,4.7013z M49.0016,19.1861l0.3571-0.2023
		c0.119-0.0715,0.1666-0.2262,0.0952-0.3452l-1.214-2.2495l3.8443-2.0709c0.1191-0.0715,0.1667-0.2262,0.0952-0.3452
		c-0.0238-0.0476-0.1904-0.369-0.2261-0.4166c-0.0357-0.0595-0.0833-0.1071-0.1428-0.119
		c-0.0595-0.0238-0.1309-0.0119-0.2024,0.0119l-4.4275,2.3804c-0.119,0.0714-0.1666,0.2142-0.0952,0.3333l1.5591,2.9041
		C48.716,19.198,48.8707,19.2456,49.0016,19.1861z M44.3836,12.1996l3.9277-3.1421c0.0595-0.0476,0.119-0.0595,0.1785-0.0595
		c0.0595,0.0119,0.1309,0.0357,0.1666,0.0952c0.1667,0.2023,1.1664,1.452,1.3331,1.6662c0.1428,0.1786,0.2618,0.369,0.357,0.5594
		c0.1071,0.2024,0.1667,0.4047,0.1905,0.6189c0.0238,0.2143-0.0119,0.4285-0.0953,0.6309c-0.0833,0.2142-0.238,0.4046-0.4522,0.5713
		c-0.1191,0.0952-0.2619,0.1785-0.4166,0.2261c-0.1547,0.0595-0.3095,0.0833-0.4642,0.0833c-0.1071,0-0.2023-0.0238-0.3094-0.0357
		c0.0238,0.1547,0.0238,0.3095,0,0.4642c-0.0595,0.3451-0.25,0.6546-0.5475,0.8926c-0.0714,0.0595-0.1548,0.1191-0.25,0.1786
		c-0.1071,0.0595-0.2261,0.1071-0.357,0.1428c-0.131,0.0357-0.2738,0.0595-0.4285,0.0714c-0.1666,0-0.3333-0.0357-0.4999-0.0952
		s-0.3451-0.1666-0.5237-0.2976c-0.1785-0.1309-0.357-0.3094-0.5475-0.5475l-1.333-1.6662
		c-0.0476-0.0596-0.0595-0.1191-0.0476-0.1905C44.3003,12.2948,44.3241,12.2353,44.3836,12.1996z M47.3948,11.0332
		c0.25,0.3094,0.7737,0.9522,0.8808,1.095c0.1071,0.1309,0.2023,0.2261,0.3094,0.2975c0.0952,0.0595,0.1905,0.1071,0.2738,0.119
		c0.0833,0.012,0.1547,0.012,0.2261-0.0119c0.0714-0.0238,0.1547-0.0476,0.2143-0.0952c0.3689-0.2975,0.3808-0.6427-0.0119-1.1307
		l-0.8689-1.083L47.3948,11.0332z M45.5143,12.5567c0.2499,0.3094,0.7617,0.9521,0.8689,1.083
		c0.1071,0.131,0.2023,0.2381,0.3094,0.3333c0.0952,0.0833,0.2023,0.1428,0.3095,0.1785c0.0952,0.0357,0.2023,0.0357,0.3094,0.0119
		c0.1071-0.0238,0.2142-0.0833,0.3452-0.1785c0.1904-0.1547,0.2737-0.3214,0.2618-0.5118
		c-0.0119-0.2142-0.1309-0.4761-0.3689-0.7736l-0.8689-1.0831L45.5143,12.5567z M39.0396,8.3909l0.3928,0.2738
		c0.119,0.0833,0.2737,0.0476,0.357-0.0714l1.9639-2.8446l0.0119,4.3799c0,0.0833,0.0357,0.1548,0.1071,0.2024l0.4404,0.3094
		c0.0595,0.0357,0.1309,0.0476,0.1904,0.0357c0.0595-0.0119,0.1309-0.0476,0.1666-0.1071l2.8446-4.1419
		C45.55,6.3676,45.5619,6.2962,45.55,6.2367c-0.0119-0.0595-0.0476-0.119-0.1071-0.1666l-0.3928-0.2618
		c-0.119-0.0833-0.2737-0.0595-0.357,0.0595l-1.952,2.8446l-0.0119-4.368c0-0.0833-0.0357-0.1547-0.1071-0.2023
		c-0.0595-0.0357-0.3928-0.2619-0.4404-0.3095c-0.0595-0.0357-0.1309-0.0476-0.1904-0.0357
		c-0.0595,0.0119-0.119,0.0476-0.1547,0.1071L38.992,8.0458C38.9087,8.1529,38.9325,8.3076,39.0396,8.3909z M26.6496,5.2726
		l0.1666-5.0227C26.8162,0.1071,26.9352,0,27.078,0c0.2857,0.0119,2.0115,0.0595,2.2971,0.0714
		c0.2262,0.0119,0.4404,0.0476,0.6547,0.119c0.2142,0.0714,0.4046,0.1666,0.5593,0.2976c0.1667,0.1309,0.2976,0.3095,0.3809,0.5118
		c0.0952,0.2023,0.1428,0.4404,0.1309,0.7022C31.089,2.071,30.97,2.4042,30.7677,2.678c-0.0952,0.119-0.2024,0.2023-0.3333,0.2857
		c0.0952,0.0714,0.1905,0.1547,0.25,0.2499c0.0833,0.1309,0.1428,0.2737,0.1785,0.4404c0.0238,0.1428,0.0476,0.2975,0.0476,0.4642
		c0,0.0833,0.0119,0.2023,0.0119,0.3213s0.0119,0.2261,0.0119,0.3452c0.0119,0.1071,0.0238,0.2261,0.0476,0.3214
		c0.0238,0.0833,0.0357,0.1309,0.0714,0.1547c0.1309,0.1666,0.0119,0.4166-0.2023,0.4166l-0.5356-0.0119
		c-0.0833,0-0.1666-0.0595-0.2023-0.1309s-0.0714-0.1547-0.0953-0.2499c-0.0119-0.0833-0.0238-0.1666-0.0357-0.2499
		c0-0.0714-0.0119-0.3452-0.0119-0.4047c0-0.1785-0.0238-0.3452-0.0357-0.5237c-0.0119-0.1547-0.0476-0.2857-0.0952-0.3928
		c-0.0476-0.0952-0.1071-0.1785-0.2023-0.238c-0.0833-0.0595-0.2024-0.0952-0.3809-0.0952l-1.5592-0.0476l-0.0714,1.9876
		c0,0.1428-0.119,0.238-0.2618,0.238l-0.4761-0.0119C26.7567,5.5345,26.6496,5.4154,26.6496,5.2726z M27.7327,2.4042
		c0.4165,0.0119,1.3449,0.0476,1.5353,0.0476c0.119,0,0.2262-0.0119,0.3333-0.0357c0.1071-0.0357,0.1904-0.0833,0.2618-0.1428
		s0.1309-0.1309,0.1786-0.2142c0.0476-0.0833,0.0714-0.1904,0.0714-0.3095c0.0119-0.2499-0.0595-0.4285-0.1786-0.5594
		c-0.119-0.1309-0.3213-0.2023-0.6308-0.2142l-1.5353-0.0476L27.7327,2.4042z M40.2179,47.1916
		c-0.0357-0.0595-0.0833-0.1071-0.1428-0.119c-0.0595-0.0238-0.131-0.0119-0.2024,0.0119l-3.0945,1.6424
		c-0.119,0.0596-0.1666,0.2143-0.0952,0.3333l0.1904,0.3571c0.0595,0.119,0.2143,0.1666,0.3333,0.1071l2.4637-1.2973l0.6784,1.3092
		l-2.2495,1.1902c-0.119,0.0595-0.1666,0.2142-0.1071,0.3332l0.1904,0.3571c0.0596,0.119,0.2262,0.1666,0.3452,0.1071l2.2495-1.1902
		l0.607,1.1545l-2.4161,1.2854c-0.119,0.0596-0.1666,0.2143-0.1071,0.3333l0.2023,0.3571c0.0714,0.119,0.2142,0.1666,0.3333,0.1071
		c0.3808-0.2024,2.6898-1.4283,3.0707-1.6306c0.119-0.0595,0.1666-0.2142,0.1071-0.3333L40.2179,47.1916z M6.9874,35.9799
		l-0.976-3.1422c-0.0357-0.1309-0.1785-0.2023-0.3094-0.1666l-0.3809,0.119c-0.1309,0.0357-0.2142,0.1905-0.1785,0.3214
		l0.7617,2.4399l-4.1657,1.2973c-0.1309,0.0357-0.2023,0.1904-0.1666,0.3214c0.0238,0.0595,0.119,0.3927,0.1428,0.4522
		c0.0357,0.131,0.1904,0.2024,0.3213,0.1667l4.7846-1.4878C6.9517,36.2655,7.0231,36.1108,6.9874,35.9799z M13.4859,45.323
		c0-0.0595-0.0119-0.1191-0.0714-0.1786l-0.3333-0.3451c-0.0952-0.0952-0.2618-0.0952-0.357,0l-2.4637,2.428l0.8212-4.2966
		c0.0119-0.0834-0.0119-0.1667-0.0714-0.2262l-0.3809-0.3808c-0.0476-0.0477-0.119-0.0715-0.1785-0.0715
		s-0.1309,0.0238-0.1785,0.0715l-3.5826,3.523c-0.0476,0.0476-0.0714,0.1071-0.0714,0.1785c0,0.0595,0.0238,0.1309,0.0714,0.1785
		l0.3333,0.3452c0.0952,0.0952,0.2499,0.0952,0.3571,0l2.4637-2.4399l-0.8212,4.2966c-0.0119,0.0833,0.0119,0.1666,0.0714,0.2261
		c0.0476,0.0476,0.3333,0.3333,0.3809,0.3809s0.1071,0.0714,0.1785,0.0714c0.0595,0,0.1309-0.0238,0.1785-0.0714l3.5825-3.523
		C13.4621,45.4539,13.4859,45.3944,13.4859,45.323z M16.7233,47.4534l-2.8922-1.9757c-0.0595-0.0357-0.1309-0.0476-0.1905-0.0357
		c-0.0595,0.0119-0.1309,0.0476-0.1666,0.1071l-0.2261,0.3333c-0.0833,0.119-0.0476,0.2618,0.0714,0.3451l2.2971,1.5592
		l-0.8332,1.2259l-2.1066-1.4282c-0.119-0.0834-0.2738-0.0477-0.3571,0.0714l-0.2261,0.3332
		c-0.0833,0.119-0.0357,0.2738,0.0714,0.3571l2.1067,1.4282l-0.738,1.0831l-2.2614-1.5353c-0.119-0.0834-0.2737-0.0358-0.357,0.0714
		l-0.2262,0.3332c-0.0833,0.119-0.0357,0.2619,0.0714,0.3452c0.3571,0.238,2.5114,1.702,2.8684,1.9519
		c0.1191,0.0833,0.2619,0.0476,0.3452-0.0714l2.8327-4.1657C16.878,47.6915,16.8423,47.5367,16.7233,47.4534z M8.8917,40.4074
		l-4.4514,2.3328c-0.119,0.0595-0.2738,0.0238-0.3333-0.0952c-0.119-0.238-0.8688-1.6425-0.9998-1.8805
		c-0.1071-0.2023-0.1904-0.4047-0.25-0.6189c-0.0595-0.2262-0.0833-0.4285-0.0714-0.6427c0.0238-0.2143,0.0833-0.4166,0.2023-0.5951
		c0.119-0.1905,0.3094-0.3571,0.5475-0.488c0.1428-0.0714,0.2975-0.119,0.4523-0.1428c0.1547-0.0238,0.3095-0.0238,0.4642,0
		c0.1071,0.0119,0.2023,0.0714,0.2976,0.1071c0-0.1547,0.0238-0.3095,0.0833-0.4523c0.1309-0.3333,0.369-0.5951,0.7141-0.7736
		c0.0833-0.0476,0.1785-0.0833,0.2737-0.1191c0.119-0.0476,0.2499-0.0714,0.3809-0.0833c0.1428-0.0119,0.2737-0.0119,0.4285,0.0119
		c0.1666,0.0238,0.3333,0.0953,0.488,0.1905c0.1547,0.0952,0.2976,0.2261,0.4404,0.3927c0.1547,0.1667,0.2975,0.3809,0.4285,0.6308
		l0.9998,1.8806C9.0703,40.1813,9.0226,40.3479,8.8917,40.4074z M5.7139,40.9668c-0.1904-0.357-0.5713-1.0831-0.6546-1.2378
		c-0.0833-0.1428-0.1547-0.2618-0.238-0.3452c-0.0833-0.0833-0.1666-0.1428-0.2499-0.1785
		c-0.0833-0.0357-0.1547-0.0476-0.2261-0.0357c-0.0714,0-0.1547,0.0238-0.2261,0.0595c-0.4285,0.2262-0.488,0.5475-0.2023,1.1069
		l0.6546,1.2378L5.7139,40.9668z M7.8562,39.8361c-0.1904-0.357-0.5713-1.0831-0.6546-1.2378
		c-0.0714-0.1428-0.1547-0.2737-0.2499-0.3809c-0.0833-0.1071-0.1785-0.1785-0.2738-0.2261s-0.1904-0.0714-0.2975-0.0714
		s-0.238,0.0357-0.3809,0.1071c-0.2142,0.119-0.3333,0.2619-0.3571,0.4523c-0.0238,0.2142,0.0476,0.4999,0.2261,0.8331
		l0.6546,1.2379L7.8562,39.8361z M29.6846,51.2264c-0.2142-0.2738-0.488-0.488-0.8212-0.6546
		c-0.3333-0.1667-0.7142-0.25-1.1426-0.25c-0.2024,0-0.3928,0.0238-0.5832,0.0595c-0.1905,0.0357-0.3928,0.1072-0.5594,0.2024
		c-0.1548,0.0833-0.2857,0.2023-0.4166,0.3213l-0.0119-0.2499c-0.0119-0.1309-0.119-0.2381-0.25-0.2381c-0.0476,0-0.2975,0-0.3451,0
		c-0.1428,0-0.25,0.1072-0.25,0.25l-0.0238,2.5589c0,0.1428,0.1072,0.25,0.25,0.25l2.1304,0.0119c0.1429,0,0.25-0.1072,0.25-0.25
		l0.0119-0.4166c0-0.1428-0.119-0.2499-0.25-0.2499l-1.4163-0.0119c0.0119-0.1309,0.0119-0.2856,0.0595-0.4047
		c0.0714-0.1904,0.1547-0.357,0.2857-0.4879c0.1309-0.131,0.2856-0.2381,0.4641-0.3095c0.1905-0.0714,0.4047-0.1071,0.6547-0.1071
		c0.2975,0,0.5355,0.0595,0.7379,0.1666c0.2023,0.1071,0.3689,0.2619,0.4999,0.4404c0.1309,0.1904,0.2261,0.3928,0.2856,0.6308
		c0.0595,0.2499,0.1071,0.488,0.0952,0.7379c0,0.25-0.0476,0.4999-0.119,0.7379c-0.0714,0.2381-0.1666,0.4404-0.3094,0.6309
		c-0.131,0.1785-0.2976,0.3094-0.4999,0.4165c-0.2024,0.1071-0.4523,0.1548-0.738,0.1548c-0.2023,0-0.4046-0.0358-0.5593-0.1072
		c-0.1667-0.0714-0.3095-0.1547-0.4166-0.2499c-0.119-0.1071-0.2024-0.2261-0.2738-0.3452c-0.0595-0.119-0.0952-0.238-0.1071-0.3451
		c-0.0119-0.1309-0.119-0.2262-0.2499-0.2262h-0.4761c-0.1547,0-0.2738,0.131-0.25,0.2857
		c0.0477,0.3094,0.1429,0.5832,0.2857,0.8212c0.1428,0.2381,0.3094,0.4285,0.5237,0.5951c0.2023,0.1667,0.4404,0.2857,0.7022,0.3571
		c0.2619,0.0833,0.5237,0.1309,0.8093,0.1309c0.4285,0,0.8213-0.0714,1.1545-0.2261c0.3333-0.1548,0.6189-0.369,0.8332-0.6308
		c0.2261-0.2619,0.3808-0.5713,0.488-0.9165c0.1071-0.3333,0.1666-0.7022,0.1785-1.0712c0-0.3689-0.0476-0.726-0.1428-1.0712
		C30.0536,51.7977,29.8988,51.4882,29.6846,51.2264z M4.7141,32.8139c0.2499-0.119,0.4761-0.2737,0.6546-0.4761
		c0.1785-0.2023,0.3095-0.4522,0.3928-0.7498c0.0833-0.2856,0.0952-0.6189,0.0595-0.9998
		c-0.0476-0.3808-0.1309-0.7022-0.2737-0.9759c-0.1428-0.2619-0.3333-0.488-0.5594-0.6427
		c-0.2261-0.1548-0.4642-0.2619-0.7379-0.3095c-0.2618-0.0476-0.5356-0.0595-0.8212-0.0238l-3.1897,0.3571
		c-0.1428,0.0119-0.238,0.1428-0.2261,0.2856l0.0476,0.4761c0.0119,0.1428,0.1428,0.238,0.2856,0.2261l3.0945-0.357
		c0.2619-0.0357,0.488-0.0238,0.6784,0.0119c0.1785,0.0357,0.3095,0.0952,0.4166,0.1785s0.2023,0.2023,0.2618,0.3333
		c0.0714,0.1547,0.1071,0.3213,0.1309,0.5356c0.0238,0.2023,0.0238,0.3927-0.0119,0.5475
		c-0.0238,0.1547-0.0833,0.2737-0.1785,0.3808c-0.0833,0.1071-0.2142,0.2024-0.3809,0.2738
		c-0.1666,0.0714-0.3809,0.1309-0.6546,0.1547l-3.0945,0.3571c-0.1428,0.0119-0.238,0.1428-0.2261,0.2737
		c0.0119,0.0595,0.0476,0.4047,0.0595,0.4642c0.0119,0.1428,0.1428,0.238,0.2737,0.2261l3.2017-0.357
		C4.2023,32.9925,4.4642,32.921,4.7141,32.8139z M12.3552,11.4855c0.0476,0.0595,0.0952,0.0833,0.1667,0.0952
		c0.0595,0.0119,0.1309,0,0.1904-0.0476l2.7255-2.2019c0.0596-0.0476,0.0834-0.0952,0.0953-0.1666
		c0.0119-0.0595-0.0119-0.1309-0.0595-0.1904l-0.25-0.3214c-0.0833-0.1071-0.2499-0.119-0.357-0.0357l-2.1543,1.7377L11.772,9.2003
		l1.9877-1.5949c0.1071-0.0833,0.1309-0.2499,0.0357-0.3571L13.5335,6.927c-0.0833-0.1071-0.2499-0.1309-0.357-0.0357
		l-1.9758,1.5949l-0.8212-1.0236l2.1304-1.7139c0.1072-0.0833,0.131-0.2499,0.0358-0.3571l-0.25-0.3095
		c-0.0476-0.0595-0.1071-0.0833-0.1785-0.0952c-0.0595-0.0119-0.1309,0-0.1785,0.0476c-0.3333,0.2737-2.3686,1.9043-2.7018,2.1781
		C9.1774,7.2602,9.1536,7.3078,9.1417,7.3793c-0.0119,0.0595,0,0.1309,0.0476,0.1904L12.3552,11.4855z M13.2122,4.4752
		c-0.0595-0.119-0.0119-0.2857,0.1071-0.3452c0.1904-0.0952,1.3449-0.7141,1.5473-0.8093c0.3689-0.1785,0.726-0.2975,1.0592-0.3333
		c0.3333-0.0357,0.6546,0,0.9641,0.0952c0.607,0.2023,1.1069,0.7141,1.5235,1.4997c0.4165,0.7974,0.5475,1.4878,0.3808,2.1067
		c-0.1666,0.6189-0.6308,1.1188-1.3568,1.5354L15.902,9.0337c-0.119,0.0595-0.2856,0.0238-0.3451-0.0952L13.2122,4.4752z
		 M14.3905,4.5942l1.7258,3.285c0.238-0.1309,0.5951-0.3214,0.6784-0.3571c0.2975-0.1547,0.5356-0.3214,0.7141-0.488
		c0.1666-0.1666,0.2738-0.3333,0.3333-0.5237c0.0595-0.1904,0.0595-0.4047,0.0119-0.6308
		c-0.0476-0.2499-0.1548-0.5237-0.3214-0.8331c-0.1666-0.3095-0.3332-0.5594-0.5118-0.7379
		c-0.1666-0.1666-0.3451-0.2737-0.5237-0.3333c-0.1904-0.0595-0.3927-0.0714-0.6308-0.0238
		c-0.238,0.0476-0.5118,0.1547-0.8093,0.3095L14.3905,4.5942z M38.0279,53.9162c0.0357,0.131-0.0357,0.2738-0.1785,0.3095
		c-0.2142,0.0595-1.4521,0.4404-1.6663,0.4999c-0.7974,0.2142-1.4758,0.1785-2.0352-0.1428
		c-0.5475-0.3214-0.9522-0.9165-1.2141-1.7734c-0.1309-0.4285-0.1904-0.8213-0.1904-1.1903c0-0.357,0.0833-0.6784,0.2262-0.964
		c0.2856-0.5713,0.8331-0.9879,1.6186-1.2378l1.6663-0.4999c0.1309-0.0357,0.2738,0.0357,0.3095,0.1785L38.0279,53.9162z
		 M36.8972,53.5711l-1.0593-3.5587c-0.2618,0.0833-0.6427,0.1904-0.7379,0.2261c-0.3213,0.0952-0.5832,0.2142-0.7855,0.3452
		c-0.1904,0.1309-0.3333,0.2856-0.4285,0.4522c-0.0952,0.1667-0.1428,0.3809-0.1428,0.619c0,0.2499,0.0476,0.5474,0.1428,0.8807
		c0.1071,0.3333,0.2262,0.607,0.3571,0.8212c0.1309,0.2024,0.2856,0.3452,0.4522,0.4404c0.1786,0.0952,0.3809,0.1428,0.6071,0.1428
		c0.2499,0,0.5355-0.0476,0.8569-0.1428L36.8972,53.5711z M20.3891,49.1554l-3.2136-1.4163
		c-0.0595-0.0238-0.1428-0.0357-0.2023-0.0119s-0.1071,0.0714-0.1428,0.1428l-0.1666,0.369c-0.0596,0.1309,0,0.2737,0.1309,0.3332
		l2.547,1.1307l-0.607,1.3449l-2.3328-1.0235c-0.1309-0.0595-0.2737,0-0.3332,0.1309l-0.1667,0.369
		c-0.0595,0.1309,0,0.2856,0.1191,0.3332l2.3327,1.0236l-0.5236,1.1902l-2.5114-1.1069c-0.1309-0.0595-0.2856,0-0.3332,0.1309
		l-0.1667,0.369c-0.0595,0.1309,0,0.2856,0.131,0.3332c0.3927,0.1786,2.7731,1.226,3.1778,1.3926
		c0.1309,0.0595,0.2857,0,0.3333-0.119l2.0233-4.5942C20.5676,49.3697,20.52,49.2149,20.3891,49.1554z M5.4044,11.5331
		c0-0.0595,0.0119-0.1309,0.0595-0.1905c0.1904-0.2142,1.2973-1.5353,1.4878-1.7496c0.1428-0.1785,0.3094-0.3214,0.488-0.4404
		c0.1904-0.1309,0.3809-0.2142,0.5832-0.2499c0.2142-0.0476,0.4285-0.0476,0.6427,0.0119s0.4285,0.1666,0.6308,0.3333
		c0.2857,0.2381,0.4761,0.5237,0.5594,0.8569c0.0357,0.1429,0.0357,0.2976,0.0238,0.4404c0.119-0.0238,0.238-0.0476,0.3571-0.0357
		c0.1547,0.0119,0.2975,0.0595,0.4403,0.1309c0.131,0.0714,0.2619,0.1428,0.3928,0.25c0.0714,0.0476,0.1547,0.119,0.2499,0.2023
		c0.0953,0.0714,0.1786,0.1428,0.2738,0.2023c0.0952,0.0595,0.1904,0.1191,0.2737,0.1548c0.0715,0.0357,0.131,0.0476,0.1786,0.0476
		c0.2142,0,0.3332,0.2499,0.1904,0.4165l-0.3333,0.4047c-0.0595,0.0714-0.1547,0.1071-0.238,0.0952
		c-0.0833-0.0119-0.1666-0.0476-0.2499-0.0952c-0.0715-0.0357-0.1429-0.0714-0.2143-0.119
		c-0.0595-0.0476-0.2856-0.2023-0.3332-0.2381c-0.1429-0.1071-0.2857-0.2023-0.4285-0.2975
		c-0.1309-0.0833-0.238-0.1428-0.3571-0.1785c-0.1071-0.0238-0.2142-0.0238-0.3213,0.0119
		c-0.0952,0.0238-0.1904,0.1071-0.3095,0.2499l-1.0117,1.1902l1.5116,1.2854c0.1071,0.0953,0.119,0.25,0.0238,0.3571l-0.3094,0.3571
		c-0.0476,0.0476-0.1071,0.0833-0.1785,0.0952c-0.0595,0-0.1309-0.0119-0.1904-0.0595l-3.7968-3.2731
		C5.4401,11.6521,5.4163,11.5926,5.4044,11.5331z M6.6422,11.3783l1.1188,0.9522c0.2737-0.3213,0.8688-1.0236,0.9998-1.1783
		c0.0714-0.0952,0.1309-0.1904,0.1785-0.2856c0.0357-0.0953,0.0595-0.1905,0.0595-0.2857c0-0.0952-0.0119-0.1904-0.0595-0.2737
		c-0.0357-0.0833-0.0952-0.1667-0.1904-0.25c-0.1904-0.1547-0.369-0.2261-0.5475-0.2023C8.0229,9.8668,7.8443,9.9858,7.642,10.212
		L6.6422,11.3783z M0.227,27.6722l5.0108,0.3809c0.1428,0.0119,0.2618-0.0952,0.2737-0.2261l0.2737-3.4992
		c0-0.0119-0.0119-0.0238-0.0119-0.0357c0.0119-0.0119,0.0238-0.0238,0.0238-0.0357l0.976-3.7849
		c0.0357-0.1309-0.0476-0.2737-0.1785-0.3094l-0.3928-0.0953c-0.1309-0.0357-0.2737,0.0476-0.3095,0.1786l-0.7141,2.7731
		l-2.916-3.8443c-0.0357-0.0476-0.0714-0.0714-0.1309-0.0952l-0.4166-0.1071c-0.1309-0.0358-0.2737,0.0476-0.3095,0.1785
		c-0.119,0.4404-0.7855,3.0707-0.9046,3.4992c-0.0357,0.1309,0.0476,0.2737,0.1785,0.3094l0.3928,0.1072
		c0.1309,0.0357,0.2737-0.0477,0.3094-0.1786l0.6546-2.4756l2.8803,3.7967c-0.0119,0.0239-0.0357,0.0358-0.0357,0.0596
		l-0.2142,2.7731l-1.4759-0.119l0.2023-2.547c0.0119-0.1428-0.0952-0.2619-0.2261-0.2738l-0.4166-0.0357
		c-0.1428-0.0119-0.2618,0.0952-0.2737,0.2262l-0.2023,2.547L0.965,26.732l0.2142-2.7256c0.0119-0.1428-0.0952-0.2618-0.2261-0.2737
		L0.5365,23.697c-0.1428-0.0119-0.2618,0.0952-0.2737,0.238c-0.0357,0.4285-0.2261,3.0231-0.2618,3.4516
		C-0.011,27.5413,0.0961,27.6603,0.227,27.6722z M53.5839,40.6931c0,1.6067-1.3092,2.916-2.916,2.916s-2.916-1.3093-2.916-2.916
		c0-1.6068,1.3092-2.916,2.916-2.916S53.5839,39.0863,53.5839,40.6931z M52.9174,40.6931c0-1.2378-0.9998-2.2495-2.2495-2.2495
		c-1.2378,0-2.2495,1.0117-2.2495,2.2495s1.0117,2.2495,2.2495,2.2495S52.9174,41.9428,52.9174,40.6931z M51.6677,39.36h-1.9996
		c-0.1904,0-0.3332,0.1548-0.3332,0.3333c0,0.1904,0.1547,0.3333,0.3332,0.3333h1.1902l-1.4282,1.4282
		c-0.2143,0.2142-0.0595,0.5713,0.238,0.5713h1.9996c0.1904,0,0.3332-0.1547,0.3332-0.3333c0-0.1904-0.1547-0.3332-0.3332-0.3332
		h-1.1902l1.4282-1.4283C52.108,39.729,51.9652,39.36,51.6677,39.36z M34.1241,22.0069c0,0.6903,0,1.8091,0,2.2614
		c0,0.119,0.0595,0.2261,0.1666,0.2856c0.1785,0.1071,0.488,0.2857,0.7855,0.4523c0.0833,0.0476,0.2023,0.0357,0.2619-0.0357
		c0.0714-0.0714,0.0833-0.1786,0.0357-0.2619c-0.2143-0.357-0.4166-0.726-0.4166-0.726c-0.119-0.2142-0.0833-0.488,0.0833-0.6665
		c0.1785-0.1785,0.4523-0.2142,0.6665-0.0833l7.4388,4.2966c0.1666,0.0952,0.2737,0.2857,0.2737,0.4761v8.5338
		c0,0.0238,0,0.0476,0,0.0714c0,0.2023-0.1071,0.3808-0.2737,0.4761L28.2563,45.68c-0.1666,0.0952-0.3808,0.0952-0.5474,0
		l-14.8895-8.5932c-0.1666-0.0953-0.2737-0.2857-0.2737-0.4761V19.4122c0-0.2023,0.1071-0.3808,0.2737-0.4761l14.8895-8.5932
		l15.4488,8.5813c0.1666,0.0953,0.2737,0.2857,0.2737,0.4761v6.4509c0,0.2024-0.1071,0.3809-0.2737,0.4761
		c-0.1666,0.0952-0.3809,0.0952-0.5475,0c0,0-6.1653-3.5587-7.9744-4.6061c-0.1071-0.0595-0.2261-0.0595-0.3332,0
		C34.1955,21.7807,34.1241,21.8878,34.1241,22.0069z M14.1524,35.3491c0.9998-0.5713,3.1898-1.8449,3.8206-2.2019
		c0.1071-0.0595,0.1666-0.1666,0.1666-0.2857c0-1.4163,0-10.2357,0-10.2357c0-0.2024,0.1071-0.3809,0.2738-0.4761l3.7253-2.1424
		c0.2142-0.1309,0.488-0.0833,0.6665,0.0833c0.1785,0.1786,0.2142,0.4523,0.0833,0.6666c0,0-1.0116,1.7496-1.4163,2.4637
		c-0.0476,0.0714-0.0595,0.1666-0.0357,0.2499s0.0833,0.1547,0.1547,0.2024c0.4047,0.238,1.095,0.6308,1.095,0.6308
		c0.1666,0.0952,0.2737,0.2856,0.2737,0.476c0,0,0,3.5111,0,4.9156c0,0.119,0.0595,0.2261,0.1667,0.2856
		c0.1071,0.0595,0.2261,0.0595,0.3332,0c0.9998-0.5713,3.1898-1.8448,3.8087-2.2018c0.1071-0.0596,0.1666-0.1667,0.1666-0.2857
		c0-1.583,0-12.509,0-15.1513c0-0.119-0.0595-0.2261-0.1666-0.2856c-0.1071-0.0595-0.2262-0.0595-0.3333,0
		c-2.2852,1.3211-11.7473,6.7841-13.116,7.5697c-0.1071,0.0595-0.1667,0.1666-0.1667,0.2856c0,1.583,0,12.5091,0,15.1513
		c0,0.119,0.0596,0.2261,0.1667,0.2857C13.9263,35.4086,14.0453,35.4086,14.1524,35.3491z M20.0677,23.4232
		c0,0,0.2143-0.3689,0.4166-0.726c0.0476-0.0833,0.0357-0.1904-0.0357-0.2619c-0.0714-0.0714-0.1785-0.0833-0.2618-0.0357
		c-0.2857,0.1667-0.5951,0.3452-0.7856,0.4523c-0.1071,0.0595-0.1666,0.1666-0.1666,0.2857c0,1.1188,0,6.8555,0,8.7004
		c0,0.119,0.0595,0.2261,0.1666,0.2856c0.1071,0.0595,0.2262,0.0595,0.3333,0c0.5951-0.3452,1.5711-0.9046,1.9519-1.1307
		c0.1071-0.0595,0.1666-0.1666,0.1666-0.2856c0-0.8808,0-4.5466,0-5.4274c0-0.119-0.0595-0.2261-0.1666-0.2856
		c-0.4046-0.2381-1.4163-0.8213-1.4163-0.8213c-0.1309-0.0714-0.2143-0.1904-0.2619-0.3332
		C19.9725,23.7089,19.9963,23.5541,20.0677,23.4232z M41.4438,36.5988c0-0.119-0.0595-0.2262-0.1666-0.2857
		c-2.2852-1.3211-11.7473-6.7841-13.128-7.5816c-0.1071-0.0595-0.2261-0.0595-0.3332,0c-0.8927,0.5237-5.1417,2.9636-5.1417,2.9636
		c-0.0119,0-0.0119,0.0119-0.0238,0.0119c0,0-6.1415,3.5468-7.9625,4.5942c-0.1071,0.0595-0.1666,0.1666-0.1666,0.2857
		c0,0.119,0.0595,0.2261,0.1666,0.2856c2.2852,1.3211,11.7473,6.7842,13.1161,7.5697c0.1071,0.0595,0.2261,0.0595,0.3332,0
		c1.3688-0.7855,10.8309-6.2486,13.128-7.5697C41.3843,36.8249,41.4438,36.7178,41.4438,36.5988z M33.0172,24.78v-4.2966
		c0-0.2023,0.1071-0.3809,0.2737-0.4761c0.1666-0.0952,0.3809-0.0952,0.5475,0c0,0,6.1653,3.5587,7.9744,4.6061
		c0.1071,0.0595,0.2261,0.0595,0.3332,0s0.1667-0.1666,0.1667-0.2856c0-1.1545,0-3.6897,0-4.4038
		c0-0.119-0.0596-0.2261-0.1667-0.2856c-1.3687-0.7856-10.8308-6.2486-13.116-7.5697c-0.1071-0.0595-0.2262-0.0595-0.3333,0
		c-0.1071,0.0595-0.1666,0.1666-0.1666,0.2856c0,2.6423,0,13.5683,0,15.1513c0,0.119,0.0595,0.2262,0.1666,0.2857
		c1.3688,0.7855,10.8309,6.2485,13.1161,7.5697c0.1071,0.0595,0.2261,0.0595,0.3332,0c0.1071-0.0596,0.1667-0.1667,0.1667-0.2857
		c0-1.5234,0-5.6178,0-6.558c0-0.119-0.0596-0.2262-0.1667-0.2857c-0.6784-0.3927-3.2373-1.8686-4.4989-2.5946
		c-0.0834-0.0476-0.1905-0.0357-0.2619,0.0357c-0.0714,0.0714-0.0833,0.1785-0.0357,0.2618
		c0.2142,0.3571,0.4166,0.7261,0.4166,0.7261c0.119,0.2142,0.0833,0.488-0.0952,0.6665c-0.1786,0.1785-0.4523,0.2142-0.6666,0.0833
		L33.279,25.268C33.1243,25.1609,33.0172,24.9705,33.0172,24.78z M32.2435,36.7416c-0.0595,0.238-0.2856,0.4047-0.5356,0.4047
		c0,0-2.0233,0-2.8445,0c-0.1786,0-0.3333,0.1428-0.3333,0.3332c0,0.4642,0,1.2616,0,1.2616c0,0.2024-0.1071,0.3809-0.2738,0.4761
		c-0.1666,0.0952-0.3808,0.0952-0.5474,0l-3.7254-2.1542c-0.1666-0.0953-0.2737-0.2857-0.2737-0.4761
		c0-0.1905,0.1071-0.3809,0.2737-0.4761l3.7254-2.1543c0.1666-0.0952,0.3808-0.0952,0.5474,0l3.7254,2.1543
		C32.2078,36.2417,32.3149,36.5036,32.2435,36.7416z M28.9348,35.6347c-0.2857-0.1666-0.5951-0.3452-0.7856-0.4523
		c-0.1071-0.0595-0.2261-0.0595-0.3332,0c-0.3809,0.2262-1.3569,0.7856-1.952,1.1307c-0.1071,0.0595-0.1666,0.1667-0.1666,0.2857
		s0.0595,0.2261,0.1666,0.2856c0.3214,0.1905,0.7499,0.4285,1.0712,0.6189c0.1071,0.0595,0.2262,0.0595,0.3333,0
		c0.1071-0.0595,0.1666-0.1666,0.1666-0.2856c0-0.3095,0-0.6189,0-0.6189c0-0.3095,0.2499-0.5475,0.5475-0.5475
		c0,0,0.4166,0,0.8331,0c0.0953,0,0.1905-0.0714,0.2143-0.1667C29.0657,35.7894,29.03,35.6823,28.9348,35.6347z"/>
</g>
</svg>
