<svg width="56" height="57" viewBox="0 0 56 57" fill="none" xmlns="http://www.w3.org/2000/svg">
<g style="mix-blend-mode:difference">
<path d="M35.2309 6.4271L37.2067 1.80911C37.2305 1.7496 37.29 1.69009 37.3495 1.66629C37.409 1.64248 37.4804 1.64248 37.5518 1.67819C37.9565 1.84482 40.3488 2.86839 40.7416 3.04692C40.8725 3.10643 40.932 3.24926 40.8725 3.38018L40.7059 3.76104C40.6464 3.89197 40.5035 3.95148 40.3726 3.89197L37.8494 2.80888L37.3257 4.01099L39.6704 5.01076C39.8013 5.07027 39.8608 5.21309 39.8013 5.34402L39.6347 5.72488C39.5752 5.8558 39.4324 5.91531 39.3014 5.8558L36.9567 4.85603L36.3735 6.22477L38.9206 7.30785C39.0515 7.36736 39.111 7.52209 39.0634 7.64111L38.8968 8.01007C38.8373 8.141 38.6944 8.20051 38.5635 8.1529L35.3381 6.77226C35.2309 6.70085 35.1714 6.54612 35.2309 6.4271ZM24.9952 50.5718L23.8764 55.4754C23.8407 55.6063 23.7217 55.6896 23.5788 55.6658C23.2932 55.6063 21.615 55.2255 21.3294 55.1541C21.1032 55.1064 20.889 55.0231 20.6986 54.9279C20.4962 54.8208 20.3415 54.6899 20.2106 54.5351C20.0677 54.3685 19.9844 54.1781 19.9249 53.9638C19.8773 53.7377 19.8773 53.4997 19.9368 53.2497C20.0201 52.8927 20.1868 52.5951 20.4367 52.3571C20.5438 52.2619 20.6747 52.1904 20.8176 52.1309C20.7343 52.0357 20.6509 51.9405 20.6152 51.8334C20.5557 51.6906 20.5319 51.5358 20.5319 51.3692C20.5319 51.2264 20.5438 51.0598 20.5676 50.905C20.5795 50.8217 20.6033 50.7265 20.6271 50.5956C20.6509 50.4766 20.6747 50.3575 20.6866 50.2385C20.6986 50.1314 20.6986 50.0243 20.6986 49.9291C20.6986 49.8457 20.6866 49.7862 20.6628 49.7505C20.5676 49.5601 20.7343 49.3459 20.9485 49.3935L21.4603 49.5125C21.5436 49.5363 21.6269 49.5958 21.6507 49.6791C21.6745 49.7624 21.6864 49.8457 21.6864 49.941C21.6864 50.0243 21.6864 50.1076 21.6745 50.1909C21.6626 50.2623 21.6269 50.5361 21.615 50.5956C21.5912 50.7622 21.5555 50.9407 21.5436 51.1074C21.5317 51.2621 21.5317 51.393 21.5555 51.5239C21.5793 51.631 21.6388 51.7144 21.7102 51.7977C21.7816 51.8691 21.8888 51.9167 22.0673 51.9524L23.6026 52.2976L24.043 50.3694C24.0787 50.2385 24.2097 50.1433 24.3525 50.1671L24.8167 50.2742C24.9357 50.298 25.019 50.4408 24.9952 50.5718ZM23.3884 53.1783C22.9718 53.0831 22.0792 52.8808 21.8888 52.8451C21.7697 52.8213 21.6626 52.8213 21.5555 52.8332C21.4484 52.8451 21.3532 52.8689 21.2698 52.9165C21.1865 52.9641 21.1151 53.0236 21.0437 53.095C20.9842 53.1664 20.9485 53.2616 20.9247 53.3687C20.8652 53.6068 20.889 53.7972 20.9961 53.9519C21.0913 54.1067 21.2698 54.2138 21.5674 54.2852L23.0671 54.6185L23.3884 53.1783ZM31.4342 5.78439L34.862 6.56993C34.9929 6.60563 35.1357 6.52232 35.1595 6.37949L35.2547 5.97482C35.2905 5.8439 35.1952 5.71298 35.0524 5.67727L32.3506 5.05837L32.672 3.61822L35.1595 4.17762C35.2905 4.21332 35.4214 4.13001 35.4571 3.98718L35.5523 3.58251C35.588 3.45159 35.4928 3.32067 35.3619 3.28496L32.8743 2.71366L33.16 1.44015L35.8379 2.03525C35.9689 2.07095 36.1117 1.98764 36.1474 1.84482L36.2426 1.45205C36.2783 1.32113 36.195 1.1783 36.0522 1.1426C35.6237 1.04738 33.0886 0.476082 32.6601 0.380865C32.5292 0.345159 32.3864 0.428473 32.3506 0.571298L31.2438 5.47494C31.22 5.61776 31.3033 5.74868 31.4342 5.78439ZM46.9783 48.2747C47.0259 48.3342 47.0378 48.3937 47.0378 48.4651C47.0259 48.5246 47.0021 48.5841 46.9425 48.6317C46.7164 48.8103 45.3715 49.8933 45.1453 50.0838C44.9668 50.2266 44.7764 50.3456 44.574 50.4289C44.3717 50.5123 44.1575 50.5599 43.9551 50.5718C43.7409 50.5718 43.5267 50.5361 43.3243 50.4408C43.122 50.3456 42.9435 50.1909 42.7768 49.9886C42.5507 49.7029 42.4079 49.3816 42.3841 49.0483C42.3722 48.8936 42.4079 48.7508 42.4555 48.6079C42.3365 48.6198 42.2055 48.6317 42.0984 48.596C41.9556 48.5484 41.8128 48.477 41.6818 48.3699C41.5628 48.2747 41.4438 48.1795 41.3367 48.0604C41.2772 48.0009 41.2177 47.9176 41.1344 47.8224C41.0629 47.7391 40.9796 47.6558 40.8963 47.5725C40.813 47.4891 40.7297 47.4296 40.6464 47.3701C40.5869 47.3225 40.5274 47.2987 40.4916 47.2868C40.2774 47.2511 40.206 46.9774 40.3726 46.8464L40.7892 46.5132C40.8606 46.4537 40.9558 46.4418 41.0391 46.4775C41.1224 46.5013 41.1939 46.5489 41.2653 46.5965C41.3248 46.6441 41.3962 46.7036 41.4557 46.775C41.5033 46.8345 41.6937 47.025 41.7295 47.0726C41.8485 47.2035 41.9556 47.3225 42.0865 47.4415C42.1936 47.5486 42.3008 47.632 42.4198 47.6796C42.515 47.7272 42.6221 47.7391 42.7292 47.7272C42.8244 47.7153 42.9435 47.6558 43.0863 47.5367L44.3003 46.5608L43.0625 45.0135C42.9792 44.9064 42.9911 44.7517 43.0982 44.6565L43.4791 44.3589C43.5267 44.3113 43.5981 44.2994 43.6576 44.2994C43.7171 44.3113 43.7885 44.3351 43.8361 44.3946L46.9783 48.2747ZM45.8 48.3818L44.8716 47.2273C44.5383 47.4891 43.8242 48.0723 43.6814 48.1914C43.5862 48.2628 43.5148 48.358 43.4553 48.4413C43.3957 48.5365 43.36 48.6198 43.3481 48.715C43.3362 48.8103 43.3362 48.8936 43.36 48.9888C43.3838 49.084 43.4314 49.1673 43.5029 49.2625C43.6576 49.453 43.8123 49.5601 43.9908 49.572C44.1694 49.5958 44.3717 49.5125 44.6097 49.3221L45.8 48.3818ZM55.762 27.7556L55.3454 27.7318C55.2026 27.7198 55.0954 27.827 55.0835 27.9698L54.9169 30.5287L51.3701 27.3509C51.3701 27.3271 51.3939 27.3033 51.3939 27.2795L51.0845 24.5301L52.5484 24.3516L52.8341 26.8867C52.846 27.0295 52.9769 27.1247 53.1197 27.1128L53.5244 27.0771C53.6672 27.0652 53.7624 26.9343 53.7505 26.8034L53.4649 24.2564L54.7622 24.1135L55.0716 26.8391C55.0835 26.9819 55.2145 27.0771 55.3454 27.0652L55.7501 27.0176C55.8929 27.0057 55.9881 26.8748 55.9762 26.7439C55.9286 26.3154 55.6429 23.7327 55.5953 23.2923C55.5834 23.1495 55.4525 23.0543 55.3216 23.0662L50.3346 23.6255C50.1918 23.6375 50.0966 23.7684 50.1085 23.9112L50.4894 27.3985C50.4894 27.4104 50.5132 27.4223 50.5132 27.4342C50.5132 27.4461 50.5013 27.4461 50.5013 27.458L50.2513 31.3619C50.2394 31.5047 50.3465 31.6237 50.4894 31.6356L50.894 31.6594C51.0369 31.6713 51.1559 31.5642 51.1678 31.4214L51.3463 28.5649L54.9288 31.7903C54.9645 31.8261 55.024 31.8499 55.0835 31.8499L55.5001 31.8856C55.6429 31.8975 55.762 31.7903 55.7739 31.6475C55.7977 31.1952 55.9643 28.4935 56 28.0412C56 27.8865 55.9048 27.7556 55.762 27.7556ZM49.93 18.8647C49.7038 19.0195 49.5134 19.2218 49.3825 19.4598C49.2396 19.6979 49.1682 19.9597 49.1444 20.2692C49.1206 20.5667 49.1563 20.9 49.2753 21.2689C49.3944 21.6379 49.5372 21.9355 49.7395 22.1616C49.93 22.3996 50.1561 22.5663 50.406 22.6853C50.656 22.7924 50.9178 22.8638 51.1916 22.8638C51.4653 22.8638 51.7391 22.8162 52.0009 22.7329L55.0597 21.7569C55.1907 21.7093 55.2621 21.5665 55.2264 21.4356L55.0835 20.9833C55.0478 20.8524 54.8931 20.781 54.7622 20.8167L51.7986 21.7569C51.5486 21.8402 51.3225 21.8759 51.1321 21.8759C50.9535 21.8759 50.8107 21.8402 50.6917 21.7807C50.5727 21.7212 50.4537 21.6379 50.3703 21.507C50.2751 21.3761 50.1918 21.2094 50.1323 21.0071C50.0728 20.8167 50.0371 20.6262 50.0371 20.4596C50.0371 20.3049 50.0728 20.174 50.1323 20.043C50.2037 19.924 50.2989 19.805 50.4417 19.7098C50.5965 19.6027 50.7988 19.5074 51.0488 19.4241L54.0243 18.4839C54.1552 18.4363 54.2266 18.3053 54.1909 18.1744C54.1671 18.1149 54.06 17.7697 54.0362 17.7102C53.9886 17.5793 53.8457 17.5079 53.7148 17.5436L50.656 18.5196C50.406 18.5791 50.1561 18.71 49.93 18.8647ZM21.2698 4.70131C21.4365 5.02266 21.6626 5.29641 21.9245 5.51064C22.1863 5.73678 22.4958 5.89151 22.8528 5.98673C23.0314 6.03433 23.2218 6.05814 23.4122 6.07004C23.6026 6.07004 23.805 6.05814 24.0192 6.02243C24.2216 5.98673 24.412 5.92722 24.5905 5.8558C24.769 5.78439 24.9357 5.67727 25.0904 5.55825C25.2213 5.45113 25.3403 5.32021 25.4475 5.17739L25.507 5.41543C25.5427 5.54635 25.6617 5.62966 25.7926 5.60586C25.8402 5.59396 26.0902 5.55825 26.1378 5.54635C26.2806 5.52255 26.3639 5.39162 26.3401 5.2488L25.8759 2.73747C25.8521 2.59464 25.7212 2.51133 25.5784 2.53513L23.4836 2.916C23.3408 2.9398 23.2575 3.07073 23.2813 3.20165L23.3527 3.60632C23.3765 3.74914 23.5074 3.83246 23.6503 3.80865L25.0428 3.55871C25.0547 3.70153 25.0785 3.84436 25.0547 3.97528C25.0309 4.17762 24.9595 4.35615 24.8643 4.51087C24.769 4.6656 24.6262 4.80842 24.4596 4.91554C24.293 5.02266 24.0906 5.10598 23.8526 5.14168C23.5669 5.18929 23.317 5.17739 23.0909 5.10598C22.8647 5.03456 22.6743 4.92744 22.5196 4.77272C22.3529 4.61799 22.222 4.42756 22.1149 4.20142C22.0078 3.97528 21.9245 3.73724 21.8888 3.4992C21.8411 3.24926 21.8292 2.99931 21.853 2.74937C21.8769 2.51133 21.9364 2.28519 22.0316 2.08286C22.1268 1.88052 22.2696 1.71389 22.4482 1.55917C22.6267 1.41634 22.8528 1.32113 23.1504 1.27352C23.3527 1.23781 23.5431 1.23781 23.7098 1.27352C23.8883 1.30922 24.043 1.36873 24.1739 1.45205C24.3049 1.53536 24.4239 1.63058 24.5072 1.7377C24.5905 1.84482 24.65 1.94003 24.6857 2.04715C24.7214 2.17807 24.8405 2.24949 24.9714 2.22568L25.4356 2.14237C25.5903 2.11856 25.6855 1.95193 25.6379 1.80911C25.5308 1.51156 25.388 1.26162 25.1975 1.05928C25.019 0.856947 24.8048 0.690318 24.5667 0.571298C24.3287 0.452278 24.0787 0.368963 23.805 0.345159C23.5312 0.309453 23.2575 0.321355 22.9718 0.380865C22.5434 0.452278 22.1863 0.595102 21.8888 0.821241C21.5912 1.03548 21.3532 1.30922 21.1865 1.60678C21.0199 1.90433 20.9128 2.23758 20.8652 2.59464C20.8176 2.95171 20.8295 3.30877 20.9009 3.67773C20.9961 4.04669 21.1032 4.39185 21.2698 4.70131ZM49.0016 19.1861L49.3587 18.9838C49.4777 18.9123 49.5253 18.7576 49.4539 18.6386L48.2399 16.3891L52.0842 14.3182C52.2033 14.2467 52.2509 14.092 52.1794 13.973C52.1556 13.9254 51.989 13.604 51.9533 13.5564C51.9176 13.4969 51.87 13.4493 51.8105 13.4374C51.751 13.4136 51.6796 13.4255 51.6081 13.4493L47.1806 15.8297C47.0616 15.9011 47.014 16.0439 47.0854 16.163L48.6445 19.0671C48.716 19.198 48.8707 19.2456 49.0016 19.1861ZM44.3836 12.1996L48.3113 9.05745C48.3708 9.00984 48.4303 8.99794 48.4898 8.99794C48.5493 9.00984 48.6207 9.03365 48.6564 9.09316C48.8231 9.29549 49.8228 10.5452 49.9895 10.7594C50.1323 10.938 50.2513 11.1284 50.3465 11.3188C50.4536 11.5212 50.5132 11.7235 50.537 11.9377C50.5608 12.152 50.5251 12.3662 50.4417 12.5686C50.3584 12.7828 50.2037 12.9732 49.9895 13.1399C49.8704 13.2351 49.7276 13.3184 49.5729 13.366C49.4182 13.4255 49.2634 13.4493 49.1087 13.4493C49.0016 13.4493 48.9064 13.4255 48.7993 13.4136C48.8231 13.5683 48.8231 13.7231 48.7993 13.8778C48.7398 14.2229 48.5493 14.5324 48.2518 14.7704C48.1804 14.8299 48.097 14.8895 48.0018 14.949C47.8947 15.0085 47.7757 15.0561 47.6448 15.0918C47.5138 15.1275 47.371 15.1513 47.2163 15.1632C47.0497 15.1632 46.883 15.1275 46.7164 15.068C46.5498 15.0085 46.3713 14.9014 46.1927 14.7704C46.0142 14.6395 45.8357 14.461 45.6452 14.2229L44.3122 12.5567C44.2646 12.4971 44.2527 12.4376 44.2646 12.3662C44.3003 12.2948 44.3241 12.2353 44.3836 12.1996ZM47.3948 11.0332C47.6448 11.3426 48.1685 11.9854 48.2756 12.1282C48.3827 12.2591 48.4779 12.3543 48.585 12.4257C48.6802 12.4852 48.7755 12.5328 48.8588 12.5447C48.9421 12.5567 49.0135 12.5567 49.0849 12.5328C49.1563 12.509 49.2396 12.4852 49.2992 12.4376C49.6681 12.1401 49.68 11.7949 49.2873 11.3069L48.4184 10.2239L47.3948 11.0332ZM45.5143 12.5567C45.7642 12.8661 46.276 13.5088 46.3832 13.6397C46.4903 13.7707 46.5855 13.8778 46.6926 13.973C46.7878 14.0563 46.8949 14.1158 47.0021 14.1515C47.0973 14.1872 47.2044 14.1872 47.3115 14.1634C47.4186 14.1396 47.5257 14.0801 47.6567 13.9849C47.8471 13.8302 47.9304 13.6635 47.9185 13.4731C47.9066 13.2589 47.7876 12.997 47.5496 12.6995L46.6807 11.6164L45.5143 12.5567ZM39.0396 8.39094L39.4324 8.66469C39.5514 8.748 39.7061 8.71229 39.7894 8.59327L41.7533 5.74868L41.7652 10.1286C41.7652 10.2119 41.8009 10.2834 41.8723 10.331L42.3127 10.6404C42.3722 10.6761 42.4436 10.688 42.5031 10.6761C42.5626 10.6642 42.634 10.6285 42.6697 10.569L45.5143 6.4271C45.55 6.36759 45.5619 6.29618 45.55 6.23667C45.5381 6.17716 45.5024 6.11765 45.4429 6.07004L45.0501 5.8082C44.9311 5.72488 44.7764 5.74868 44.6931 5.86771L42.7411 8.71229L42.7292 4.34424C42.7292 4.26093 42.6935 4.18952 42.6221 4.14191C42.5626 4.1062 42.2293 3.88006 42.1817 3.83246C42.1222 3.79675 42.0508 3.78485 41.9913 3.79675C41.9318 3.80865 41.8723 3.84436 41.8366 3.90387L38.992 8.04578C38.9087 8.1529 38.9325 8.30762 39.0396 8.39094ZM26.6496 5.2726L26.8162 0.249943C26.8162 0.107118 26.9352 0 27.078 0C27.3637 0.011902 29.0895 0.0595102 29.3751 0.0714122C29.6013 0.0833143 29.8155 0.11902 30.0298 0.190433C30.244 0.261845 30.4344 0.357061 30.5891 0.487984C30.7558 0.618906 30.8867 0.797437 30.97 0.999771C31.0652 1.20211 31.1128 1.44015 31.1009 1.70199C31.089 2.07095 30.97 2.40421 30.7677 2.67796C30.6725 2.79698 30.5653 2.88029 30.4344 2.96361C30.5296 3.03502 30.6249 3.11833 30.6844 3.21355C30.7677 3.34447 30.8272 3.4873 30.8629 3.65393C30.8867 3.79675 30.9105 3.95148 30.9105 4.11811C30.9105 4.20142 30.9224 4.32044 30.9224 4.43946C30.9224 4.55848 30.9343 4.6656 30.9343 4.78462C30.9462 4.89174 30.9581 5.01076 30.9819 5.10598C31.0057 5.18929 31.0176 5.2369 31.0533 5.2607C31.1842 5.42733 31.0652 5.67727 30.851 5.67727L30.3154 5.66537C30.2321 5.66537 30.1488 5.60586 30.1131 5.53445C30.0774 5.46304 30.0417 5.37972 30.0178 5.28451C30.0059 5.20119 29.994 5.11788 29.9821 5.03456C29.9821 4.96315 29.9702 4.6894 29.9702 4.62989C29.9702 4.45136 29.9464 4.28473 29.9345 4.1062C29.9226 3.95148 29.8869 3.82055 29.8393 3.71344C29.7917 3.61822 29.7322 3.53491 29.637 3.4754C29.5537 3.41589 29.4346 3.38018 29.2561 3.38018L27.6969 3.33257L27.6255 5.32021C27.6255 5.46304 27.5065 5.55825 27.3637 5.55825L26.8876 5.54635C26.7567 5.53445 26.6496 5.41543 26.6496 5.2726ZM27.7327 2.40421C28.1492 2.41611 29.0776 2.45182 29.268 2.45182C29.387 2.45182 29.4942 2.43992 29.6013 2.41611C29.7084 2.38041 29.7917 2.3328 29.8631 2.27329C29.9345 2.21378 29.994 2.14237 30.0417 2.05905C30.0893 1.97574 30.1131 1.86862 30.1131 1.7496C30.125 1.49966 30.0536 1.32113 29.9345 1.1902C29.8155 1.05928 29.6132 0.987869 29.3037 0.975967L27.7684 0.928359L27.7327 2.40421ZM40.2179 47.1916C40.1822 47.1321 40.1346 47.0845 40.0751 47.0726C40.0156 47.0488 39.9441 47.0607 39.8727 47.0845L36.7782 48.7269C36.6592 48.7865 36.6116 48.9412 36.683 49.0602L36.8734 49.4173C36.9329 49.5363 37.0877 49.5839 37.2067 49.5244L39.6704 48.2271L40.3488 49.5363L38.0993 50.7265C37.9803 50.786 37.9327 50.9407 37.9922 51.0597L38.1826 51.4168C38.2422 51.5358 38.4088 51.5834 38.5278 51.5239L40.7773 50.3337L41.3843 51.4882L38.9682 52.7736C38.8492 52.8332 38.8016 52.9879 38.8611 53.1069L39.0634 53.464C39.1348 53.583 39.2776 53.6306 39.3967 53.5711C39.7775 53.3687 42.0865 52.1428 42.4674 51.9405C42.5864 51.881 42.634 51.7263 42.5745 51.6072L40.2179 47.1916ZM6.9874 35.9799L6.01143 32.8377C5.97573 32.7068 5.8329 32.6354 5.70198 32.6711L5.32112 32.7901C5.19019 32.8258 5.10688 32.9806 5.14259 33.1115L5.90432 35.5514L1.7386 36.8487C1.60768 36.8844 1.53627 37.0391 1.57197 37.1701C1.59578 37.2296 1.69099 37.5628 1.7148 37.6223C1.7505 37.7533 1.90523 37.8247 2.03615 37.789L6.82077 36.3012C6.9517 36.2655 7.02311 36.1108 6.9874 35.9799ZM13.4859 45.323C13.4859 45.2635 13.474 45.2039 13.4145 45.1444L13.0812 44.7993C12.986 44.7041 12.8194 44.7041 12.7242 44.7993L10.2605 47.2273L11.0817 42.9307C11.0936 42.8473 11.0698 42.764 11.0103 42.7045L10.6294 42.3237C10.5818 42.276 10.5104 42.2522 10.4509 42.2522C10.3914 42.2522 10.32 42.276 10.2724 42.3237L6.68985 45.8467C6.64224 45.8943 6.61844 45.9538 6.61844 46.0252C6.61844 46.0847 6.64224 46.1561 6.68985 46.2037L7.02311 46.5489C7.11832 46.6441 7.27305 46.6441 7.38017 46.5489L9.84389 44.109L9.02265 48.4056C9.01075 48.4889 9.03455 48.5722 9.09406 48.6317C9.14167 48.6793 9.42732 48.965 9.47493 49.0126C9.52254 49.0602 9.58205 49.084 9.65346 49.084C9.71297 49.084 9.78438 49.0602 9.83199 49.0126L13.4145 45.4896C13.4621 45.4539 13.4859 45.3944 13.4859 45.323ZM16.7233 47.4534L13.8311 45.4777C13.7716 45.442 13.7002 45.4301 13.6406 45.442C13.5811 45.4539 13.5097 45.4896 13.474 45.5491L13.2479 45.8824C13.1646 46.0014 13.2003 46.1442 13.3193 46.2275L15.6164 47.7867L14.7832 49.0126L12.6766 47.5844C12.5576 47.501 12.4028 47.5367 12.3195 47.6558L12.0934 47.989C12.0101 48.108 12.0577 48.2628 12.1648 48.3461L14.2715 49.7743L13.5335 50.8574L11.2721 49.3221C11.1531 49.2387 10.9984 49.2863 10.9151 49.3935L10.6889 49.7267C10.6056 49.8457 10.6532 49.9886 10.7603 50.0719C11.1174 50.3099 13.2717 51.7739 13.6287 52.0238C13.7478 52.1071 13.8906 52.0714 13.9739 51.9524L16.8066 47.7867C16.878 47.6915 16.8423 47.5367 16.7233 47.4534ZM8.89173 40.4074L4.44037 42.7402C4.32135 42.7997 4.16662 42.764 4.10711 42.645C3.98809 42.407 3.23826 41.0025 3.10734 40.7645C3.00022 40.5622 2.9169 40.3598 2.85739 40.1456C2.79788 39.9194 2.77408 39.7171 2.78598 39.5029C2.80979 39.2886 2.8693 39.0863 2.98832 38.9078C3.10734 38.7173 3.29777 38.5507 3.53581 38.4198C3.67864 38.3484 3.83336 38.3008 3.98809 38.277C4.14281 38.2532 4.29754 38.2532 4.45227 38.277C4.55939 38.2889 4.6546 38.3484 4.74982 38.3841C4.74982 38.2294 4.77362 38.0746 4.83313 37.9318C4.96406 37.5985 5.2021 37.3367 5.54726 37.1582C5.63057 37.1106 5.72579 37.0749 5.821 37.0391C5.94002 36.9915 6.07094 36.9677 6.20187 36.9558C6.34469 36.9439 6.47561 36.9439 6.63034 36.9677C6.79697 36.9915 6.9636 37.063 7.11832 37.1582C7.27305 37.2534 7.41588 37.3843 7.5587 37.5509C7.71343 37.7176 7.85625 37.9318 7.98717 38.1817L8.98695 40.0623C9.07026 40.1813 9.02265 40.3479 8.89173 40.4074ZM5.71388 40.9668C5.52345 40.6098 5.14259 39.8837 5.05927 39.729C4.97596 39.5862 4.90455 39.4672 4.82123 39.3838C4.73792 39.3005 4.6546 39.241 4.57129 39.2053C4.48797 39.1696 4.41656 39.1577 4.34515 39.1696C4.27374 39.1696 4.19042 39.1934 4.11901 39.2291C3.69054 39.4553 3.63103 39.7766 3.91668 40.336L4.57129 41.5738L5.71388 40.9668ZM7.85625 39.8361C7.66582 39.4791 7.28495 38.753 7.20164 38.5983C7.13023 38.4555 7.04691 38.3246 6.9517 38.2174C6.86838 38.1103 6.77317 38.0389 6.67795 37.9913C6.58273 37.9437 6.48752 37.9199 6.3804 37.9199C6.27328 37.9199 6.14236 37.9556 5.99953 38.027C5.7853 38.146 5.66628 38.2889 5.64247 38.4793C5.61867 38.6935 5.69008 38.9792 5.86861 39.3124L6.52322 40.5503L7.85625 39.8361ZM29.6846 51.2264C29.4704 50.9526 29.1966 50.7384 28.8634 50.5718C28.5301 50.4051 28.1492 50.3218 27.7208 50.3218C27.5184 50.3218 27.328 50.3456 27.1376 50.3813C26.9471 50.417 26.7448 50.4885 26.5782 50.5837C26.4234 50.667 26.2925 50.786 26.1616 50.905L26.1497 50.6551C26.1378 50.5242 26.0307 50.417 25.8997 50.417C25.8521 50.417 25.6022 50.417 25.5546 50.417C25.4118 50.417 25.3046 50.5242 25.3046 50.667L25.2808 53.2259C25.2808 53.3687 25.388 53.4759 25.5308 53.4759L27.6612 53.4878C27.8041 53.4878 27.9112 53.3806 27.9112 53.2378L27.9231 52.8212C27.9231 52.6784 27.8041 52.5713 27.6731 52.5713L26.2568 52.5594C26.2687 52.4285 26.2687 52.2738 26.3163 52.1547C26.3877 51.9643 26.471 51.7977 26.602 51.6668C26.7329 51.5358 26.8876 51.4287 27.0661 51.3573C27.2566 51.2859 27.4708 51.2502 27.7208 51.2502C28.0183 51.2502 28.2563 51.3097 28.4587 51.4168C28.661 51.5239 28.8276 51.6787 28.9586 51.8572C29.0895 52.0476 29.1847 52.25 29.2442 52.488C29.3037 52.7379 29.3513 52.976 29.3394 53.2259C29.3394 53.4759 29.2918 53.7258 29.2204 53.9638C29.149 54.2019 29.0538 54.4042 28.911 54.5947C28.78 54.7732 28.6134 54.9041 28.4111 55.0112C28.2087 55.1183 27.9588 55.166 27.6731 55.166C27.4708 55.166 27.2685 55.1302 27.1138 55.0588C26.9471 54.9874 26.8043 54.9041 26.6972 54.8089C26.5782 54.7018 26.4948 54.5828 26.4234 54.4637C26.3639 54.3447 26.3282 54.2257 26.3163 54.1186C26.3044 53.9877 26.1973 53.8924 26.0664 53.8924H25.5903C25.4356 53.8924 25.3165 54.0234 25.3403 54.1781C25.388 54.4875 25.4832 54.7613 25.626 54.9993C25.7688 55.2374 25.9354 55.4278 26.1497 55.5944C26.352 55.7611 26.5901 55.8801 26.8519 55.9515C27.1138 56.0348 27.3756 56.0824 27.6612 56.0824C28.0897 56.0824 28.4825 56.011 28.8157 55.8563C29.149 55.7015 29.4346 55.4873 29.6489 55.2255C29.875 54.9636 30.0297 54.6542 30.1369 54.309C30.244 53.9757 30.3035 53.6068 30.3154 53.2378C30.3154 52.8689 30.2678 52.5118 30.1726 52.1666C30.0536 51.7977 29.8988 51.4882 29.6846 51.2264ZM4.71411 32.8139C4.96406 32.6949 5.19019 32.5402 5.36872 32.3378C5.54726 32.1355 5.67818 31.8856 5.76149 31.588C5.84481 31.3024 5.85671 30.9691 5.821 30.5882C5.77339 30.2074 5.69008 29.886 5.54726 29.6123C5.40443 29.3504 5.214 29.1243 4.98786 28.9696C4.76172 28.8148 4.52368 28.7077 4.24993 28.6601C3.98809 28.6125 3.71434 28.6006 3.42869 28.6363L0.238946 28.9934C0.0961212 29.0053 0.000904927 29.1362 0.012807 29.279L0.0604151 29.7551C0.0723172 29.8979 0.20324 29.9931 0.346064 29.9812L3.44059 29.6242C3.70244 29.5885 3.92858 29.6004 4.11901 29.6361C4.29754 29.6718 4.42846 29.7313 4.53558 29.8146C4.6427 29.8979 4.73792 30.0169 4.79743 30.1479C4.86884 30.3026 4.90455 30.4692 4.92835 30.6835C4.95215 30.8858 4.95215 31.0762 4.91645 31.231C4.89264 31.3857 4.83313 31.5047 4.73792 31.6118C4.6546 31.7189 4.52368 31.8142 4.35705 31.8856C4.19042 31.957 3.97619 32.0165 3.70244 32.0403L0.607909 32.3974C0.465084 32.4093 0.369868 32.5402 0.38177 32.6711C0.393672 32.7306 0.429378 33.0758 0.44128 33.1353C0.453182 33.2781 0.584105 33.3733 0.715027 33.3614L3.91668 33.0044C4.20233 32.9925 4.46417 32.921 4.71411 32.8139ZM12.3552 11.4855C12.4028 11.545 12.4504 11.5688 12.5219 11.5807C12.5814 11.5926 12.6528 11.5807 12.7123 11.5331L15.4378 9.3312C15.4974 9.28359 15.5212 9.23598 15.5331 9.16457C15.545 9.10506 15.5212 9.03365 15.4736 8.97414L15.2236 8.65278C15.1403 8.54566 14.9737 8.53376 14.8666 8.61708L12.7123 10.3548L11.772 9.20028L13.7597 7.6054C13.8668 7.52209 13.8906 7.35546 13.7954 7.24834L13.5335 6.92699C13.4502 6.81987 13.2836 6.79606 13.1765 6.89128L11.2007 8.48615L10.3795 7.46258L12.5099 5.74868C12.6171 5.66537 12.6409 5.49874 12.5457 5.39162L12.2957 5.08217C12.2481 5.02266 12.1886 4.99886 12.1172 4.98695C12.0577 4.97505 11.9863 4.98695 11.9387 5.03456C11.6054 5.30831 9.57014 6.93889 9.23689 7.21264C9.17738 7.26024 9.15357 7.30785 9.14167 7.37926C9.12977 7.43877 9.14167 7.51019 9.18928 7.5697L12.3552 11.4855ZM13.2122 4.47517C13.1527 4.35615 13.2003 4.18952 13.3193 4.13001C13.5097 4.03479 14.6642 3.41589 14.8666 3.32067C15.2355 3.14214 15.5926 3.02312 15.9258 2.98741C16.2591 2.95171 16.5804 2.98741 16.8899 3.08263C17.4969 3.28496 17.9968 3.79675 18.4134 4.58229C18.8299 5.37972 18.9609 6.07004 18.7942 6.68895C18.6276 7.30785 18.1634 7.80774 17.4374 8.22431L15.902 9.03365C15.783 9.09316 15.6164 9.05745 15.5569 8.93843L13.2122 4.47517ZM14.3905 4.59419L16.1163 7.87915C16.3543 7.74823 16.7114 7.5578 16.7947 7.52209C17.0922 7.36736 17.3303 7.20073 17.5088 7.03411C17.6754 6.86748 17.7826 6.70085 17.8421 6.51042C17.9016 6.31998 17.9016 6.10575 17.854 5.87961C17.8064 5.62966 17.6992 5.35592 17.5326 5.04646C17.366 4.73701 17.1994 4.48707 17.0208 4.30854C16.8542 4.14191 16.6757 4.03479 16.4971 3.97528C16.3067 3.91577 16.1044 3.90387 15.8663 3.95148C15.6283 3.99909 15.3545 4.1062 15.057 4.26093L14.3905 4.59419ZM38.0279 53.9162C38.0636 54.0472 37.9922 54.19 37.8494 54.2257C37.6352 54.2852 36.3973 54.6661 36.1831 54.7256C35.3857 54.9398 34.7073 54.9041 34.1479 54.5828C33.6004 54.2614 33.1957 53.6663 32.9338 52.8094C32.8029 52.3809 32.7434 51.9881 32.7434 51.6191C32.7434 51.2621 32.8267 50.9407 32.9696 50.6551C33.2552 50.0838 33.8027 49.6672 34.5882 49.4173L36.2545 48.9174C36.3854 48.8817 36.5283 48.9531 36.564 49.0959L38.0279 53.9162ZM36.8972 53.5711L35.8379 50.0124C35.5761 50.0957 35.1952 50.2028 35.1 50.2385C34.7787 50.3337 34.5168 50.4527 34.3145 50.5837C34.1241 50.7146 33.9812 50.8693 33.886 51.0359C33.7908 51.2026 33.7432 51.4168 33.7432 51.6549C33.7432 51.9048 33.7908 52.2023 33.886 52.5356C33.9931 52.8689 34.1122 53.1426 34.2431 53.3568C34.374 53.5592 34.5287 53.702 34.6953 53.7972C34.8739 53.8924 35.0762 53.94 35.3024 53.94C35.5523 53.94 35.8379 53.8924 36.1593 53.7972L36.8972 53.5711ZM20.3891 49.1554L17.1755 47.7391C17.116 47.7153 17.0327 47.7034 16.9732 47.7272C16.9137 47.751 16.8661 47.7986 16.8304 47.87L16.6638 48.239C16.6042 48.3699 16.6638 48.5127 16.7947 48.5722L19.3417 49.7029L18.7347 51.0478L16.4019 50.0243C16.271 49.9648 16.1282 50.0243 16.0687 50.1552L15.902 50.5242C15.8425 50.6551 15.902 50.8098 16.0211 50.8574L18.3538 51.881L17.8302 53.0712L15.3188 51.9643C15.1879 51.9048 15.0332 51.9643 14.9856 52.0952L14.8189 52.4642C14.7594 52.5951 14.8189 52.7498 14.9499 52.7974C15.3426 52.976 17.723 54.0234 18.1277 54.19C18.2586 54.2495 18.4134 54.19 18.461 54.071L20.4843 49.4768C20.5676 49.3697 20.52 49.2149 20.3891 49.1554ZM5.40443 11.5331C5.40443 11.4736 5.41633 11.4022 5.46394 11.3426C5.65437 11.1284 6.76126 9.80728 6.9517 9.59304C7.09452 9.41451 7.26115 9.27169 7.43968 9.15267C7.63011 9.02175 7.82055 8.93843 8.02288 8.90273C8.23712 8.85512 8.45135 8.85512 8.66559 8.91463C8.87983 8.97414 9.09406 9.08126 9.2964 9.24788C9.58205 9.48593 9.77248 9.77157 9.85579 10.1048C9.8915 10.2477 9.8915 10.4024 9.8796 10.5452C9.99862 10.5214 10.1176 10.4976 10.2367 10.5095C10.3914 10.5214 10.5342 10.569 10.677 10.6404C10.808 10.7118 10.9389 10.7832 11.0698 10.8904C11.1412 10.938 11.2245 11.0094 11.3197 11.0927C11.415 11.1641 11.4983 11.2355 11.5935 11.295C11.6887 11.3545 11.7839 11.4141 11.8672 11.4498C11.9387 11.4855 11.9982 11.4974 12.0458 11.4974C12.26 11.4974 12.379 11.7473 12.2362 11.9139L11.9029 12.3186C11.8434 12.39 11.7482 12.4257 11.6649 12.4138C11.5816 12.4019 11.4983 12.3662 11.415 12.3186C11.3435 12.2829 11.2721 12.2472 11.2007 12.1996C11.1412 12.152 10.9151 11.9973 10.8675 11.9615C10.7246 11.8544 10.5818 11.7592 10.439 11.664C10.3081 11.5807 10.201 11.5212 10.0819 11.4855C9.97481 11.4617 9.8677 11.4617 9.76058 11.4974C9.66536 11.5212 9.57015 11.6045 9.45112 11.7473L8.43945 12.9375L9.95101 14.2229C10.0581 14.3182 10.07 14.4729 9.97481 14.58L9.66536 14.9371C9.61775 14.9847 9.55824 15.0204 9.48683 15.0323C9.42732 15.0323 9.35591 15.0204 9.2964 14.9728L5.49965 11.6997C5.44014 11.6521 5.41633 11.5926 5.40443 11.5331ZM6.64224 11.3783L7.76103 12.3305C8.03478 12.0092 8.62988 11.3069 8.76081 11.1522C8.83222 11.057 8.89173 10.9618 8.93934 10.8666C8.97504 10.7713 8.99885 10.6761 8.99885 10.5809C8.99885 10.4857 8.98694 10.3905 8.93934 10.3072C8.90363 10.2239 8.84412 10.1405 8.7489 10.0572C8.55847 9.9025 8.37994 9.83108 8.20141 9.85489C8.02288 9.86679 7.84435 9.98581 7.64201 10.212L6.64224 11.3783ZM0.227044 27.6722L5.2378 28.0531C5.38063 28.065 5.49965 27.9579 5.51155 27.827L5.7853 24.3278C5.7853 24.3159 5.77339 24.304 5.77339 24.2921C5.7853 24.2802 5.7972 24.2683 5.7972 24.2564L6.77317 20.4715C6.80887 20.3406 6.72556 20.1978 6.59463 20.1621L6.20187 20.0668C6.07094 20.0311 5.92812 20.1144 5.89241 20.2454L5.17829 23.0185L2.26229 19.1742C2.22659 19.1266 2.19088 19.1028 2.13137 19.079L1.7148 18.9719C1.58388 18.9361 1.44105 19.0195 1.40535 19.1504C1.28633 19.5908 0.619811 22.2211 0.500791 22.6496C0.465084 22.7805 0.548399 22.9233 0.679321 22.959L1.07209 23.0662C1.20301 23.1019 1.34584 23.0185 1.38154 22.8876L2.03615 20.412L4.91645 24.2087C4.90455 24.2326 4.88074 24.2445 4.88074 24.2683L4.6665 27.0414L3.19065 26.9224L3.39299 24.3754C3.40489 24.2326 3.29777 24.1135 3.16685 24.1016L2.75028 24.0659C2.60745 24.054 2.48843 24.1611 2.47653 24.2921L2.27419 26.8391L0.96497 26.732L1.17921 24.0064C1.19111 23.8636 1.08399 23.7446 0.953068 23.7327L0.536497 23.697C0.393672 23.6851 0.274652 23.7922 0.26275 23.935C0.227044 24.3635 0.036611 26.9581 0.000904927 27.3866C-0.0109971 27.5413 0.0961212 27.6603 0.227044 27.6722ZM53.5839 40.6931C53.5839 42.2998 52.2747 43.6091 50.6679 43.6091C49.0611 43.6091 47.7519 42.2998 47.7519 40.6931C47.7519 39.0863 49.0611 37.7771 50.6679 37.7771C52.2747 37.7771 53.5839 39.0863 53.5839 40.6931ZM52.9174 40.6931C52.9174 39.4553 51.9176 38.4436 50.6679 38.4436C49.4301 38.4436 48.4184 39.4553 48.4184 40.6931C48.4184 41.9309 49.4301 42.9426 50.6679 42.9426C51.9057 42.9426 52.9174 41.9428 52.9174 40.6931ZM51.6677 39.36H49.6681C49.4777 39.36 49.3349 39.5148 49.3349 39.6933C49.3349 39.8837 49.4896 40.0266 49.6681 40.0266H50.8583L49.4301 41.4548C49.2158 41.669 49.3706 42.0261 49.6681 42.0261H51.6677C51.8581 42.0261 52.0009 41.8714 52.0009 41.6928C52.0009 41.5024 51.8462 41.3596 51.6677 41.3596H50.4775L51.9057 39.9313C52.108 39.729 51.9652 39.36 51.6677 39.36ZM34.1241 22.0069C34.1241 22.6972 34.1241 23.816 34.1241 24.2683C34.1241 24.3873 34.1836 24.4944 34.2907 24.5539C34.4692 24.661 34.7787 24.8396 35.0762 25.0062C35.1595 25.0538 35.2785 25.0419 35.3381 24.9705C35.4095 24.8991 35.4214 24.7919 35.3738 24.7086C35.1595 24.3516 34.9572 23.9826 34.9572 23.9826C34.8382 23.7684 34.8739 23.4946 35.0405 23.3161C35.219 23.1376 35.4928 23.1019 35.707 23.2328L43.1458 27.5294C43.3124 27.6246 43.4195 27.8151 43.4195 28.0055V36.5393C43.4195 36.5631 43.4195 36.5869 43.4195 36.6107C43.4195 36.813 43.3124 36.9915 43.1458 37.0868L28.2563 45.68C28.0897 45.7752 27.8755 45.7752 27.7089 45.68L12.8194 37.0868C12.6528 36.9915 12.5457 36.8011 12.5457 36.6107V19.4122C12.5457 19.2099 12.6528 19.0314 12.8194 18.9361L27.7089 10.3429L43.1577 18.9242C43.3243 19.0195 43.4314 19.2099 43.4314 19.4003V25.8512C43.4314 26.0536 43.3243 26.2321 43.1577 26.3273C42.9911 26.4225 42.7768 26.4225 42.6102 26.3273C42.6102 26.3273 36.4449 22.7686 34.6358 21.7212C34.5287 21.6617 34.4097 21.6617 34.3026 21.7212C34.1955 21.7807 34.1241 21.8878 34.1241 22.0069ZM14.1524 35.3491C15.1522 34.7778 17.3422 33.5042 17.973 33.1472C18.0801 33.0877 18.1396 32.9806 18.1396 32.8615C18.1396 31.4452 18.1396 22.6258 18.1396 22.6258C18.1396 22.4234 18.2467 22.2449 18.4134 22.1497L22.1387 20.0073C22.3529 19.8764 22.6267 19.924 22.8052 20.0906C22.9837 20.2692 23.0194 20.5429 22.8885 20.7572C22.8885 20.7572 21.8769 22.5068 21.4722 23.2209C21.4246 23.2923 21.4127 23.3875 21.4365 23.4708C21.4603 23.5541 21.5198 23.6255 21.5912 23.6732C21.9959 23.9112 22.6862 24.304 22.6862 24.304C22.8528 24.3992 22.9599 24.5896 22.9599 24.78C22.9599 24.78 22.9599 28.2911 22.9599 29.6956C22.9599 29.8146 23.0194 29.9217 23.1266 29.9812C23.2337 30.0407 23.3527 30.0407 23.4598 29.9812C24.4596 29.4099 26.6496 28.1364 27.2685 27.7794C27.3756 27.7198 27.4351 27.6127 27.4351 27.4937C27.4351 25.9107 27.4351 14.9847 27.4351 12.3424C27.4351 12.2234 27.3756 12.1163 27.2685 12.0568C27.1614 11.9973 27.0423 11.9973 26.9352 12.0568C24.65 13.3779 15.1879 18.8409 13.8192 19.6265C13.7121 19.686 13.6525 19.7931 13.6525 19.9121C13.6525 21.4951 13.6525 32.4212 13.6525 35.0634C13.6525 35.1824 13.7121 35.2895 13.8192 35.3491C13.9263 35.4086 14.0453 35.4086 14.1524 35.3491ZM20.0677 23.4232C20.0677 23.4232 20.282 23.0543 20.4843 22.6972C20.5319 22.6139 20.52 22.5068 20.4486 22.4353C20.3772 22.3639 20.2701 22.352 20.1868 22.3996C19.9011 22.5663 19.5917 22.7448 19.4012 22.8519C19.2941 22.9114 19.2346 23.0185 19.2346 23.1376C19.2346 24.2564 19.2346 29.9931 19.2346 31.838C19.2346 31.957 19.2941 32.0641 19.4012 32.1236C19.5083 32.1831 19.6274 32.1831 19.7345 32.1236C20.3296 31.7784 21.3056 31.219 21.6864 30.9929C21.7935 30.9334 21.853 30.8263 21.853 30.7073C21.853 29.8265 21.853 26.1607 21.853 25.2799C21.853 25.1609 21.7935 25.0538 21.6864 24.9943C21.2818 24.7562 20.2701 24.173 20.2701 24.173C20.1392 24.1016 20.0558 23.9826 20.0082 23.8398C19.9725 23.7089 19.9963 23.5541 20.0677 23.4232ZM41.4438 36.5988C41.4438 36.4798 41.3843 36.3726 41.2772 36.3131C38.992 34.992 29.5299 29.529 28.1492 28.7315C28.0421 28.672 27.9231 28.672 27.816 28.7315C26.9233 29.2552 22.6743 31.6951 22.6743 31.6951C22.6624 31.6951 22.6624 31.707 22.6505 31.707C22.6505 31.707 16.509 35.2538 14.688 36.3012C14.5809 36.3607 14.5214 36.4678 14.5214 36.5869C14.5214 36.7059 14.5809 36.813 14.688 36.8725C16.9732 38.1936 26.4353 43.6567 27.8041 44.4422C27.9112 44.5017 28.0302 44.5017 28.1373 44.4422C29.5061 43.6567 38.9682 38.1936 41.2653 36.8725C41.3843 36.8249 41.4438 36.7178 41.4438 36.5988ZM33.0172 24.78V20.4834C33.0172 20.2811 33.1243 20.1025 33.2909 20.0073C33.4575 19.9121 33.6718 19.9121 33.8384 20.0073C33.8384 20.0073 40.0037 23.566 41.8128 24.6134C41.9199 24.6729 42.0389 24.6729 42.146 24.6134C42.2531 24.5539 42.3127 24.4468 42.3127 24.3278C42.3127 23.1733 42.3127 20.6381 42.3127 19.924C42.3127 19.805 42.2531 19.6979 42.146 19.6384C40.7773 18.8528 31.3152 13.3898 29.03 12.0687C28.9229 12.0092 28.8038 12.0092 28.6967 12.0687C28.5896 12.1282 28.5301 12.2353 28.5301 12.3543C28.5301 14.9966 28.5301 25.9226 28.5301 27.5056C28.5301 27.6246 28.5896 27.7318 28.6967 27.7913C30.0655 28.5768 39.5276 34.0398 41.8128 35.361C41.9199 35.4205 42.0389 35.4205 42.146 35.361C42.2531 35.3014 42.3127 35.1943 42.3127 35.0753C42.3127 33.5519 42.3127 29.4575 42.3127 28.5173C42.3127 28.3983 42.2531 28.2911 42.146 28.2316C41.4676 27.8389 38.9087 26.363 37.6471 25.637C37.5637 25.5894 37.4566 25.6013 37.3852 25.6727C37.3138 25.7441 37.3019 25.8512 37.3495 25.9345C37.5637 26.2916 37.7661 26.6606 37.7661 26.6606C37.8851 26.8748 37.8494 27.1486 37.6709 27.3271C37.4923 27.5056 37.2186 27.5413 37.0043 27.4104L33.279 25.268C33.1243 25.1609 33.0172 24.9705 33.0172 24.78ZM32.2435 36.7416C32.184 36.9796 31.9579 37.1463 31.7079 37.1463C31.7079 37.1463 29.6846 37.1463 28.8634 37.1463C28.6848 37.1463 28.5301 37.2891 28.5301 37.4795C28.5301 37.9437 28.5301 38.7411 28.5301 38.7411C28.5301 38.9435 28.423 39.122 28.2563 39.2172C28.0897 39.3124 27.8755 39.3124 27.7089 39.2172L23.9835 37.063C23.8169 36.9677 23.7098 36.7773 23.7098 36.5869C23.7098 36.3964 23.8169 36.206 23.9835 36.1108L27.7089 33.9565C27.8755 33.8613 28.0897 33.8613 28.2563 33.9565L31.9817 36.1108C32.2078 36.2417 32.3149 36.5036 32.2435 36.7416ZM28.9348 35.6347C28.6491 35.4681 28.3397 35.2895 28.1492 35.1824C28.0421 35.1229 27.9231 35.1229 27.816 35.1824C27.4351 35.4086 26.4591 35.968 25.864 36.3131C25.7569 36.3726 25.6974 36.4798 25.6974 36.5988C25.6974 36.7178 25.7569 36.8249 25.864 36.8844C26.1854 37.0749 26.6139 37.3129 26.9352 37.5033C27.0423 37.5628 27.1614 37.5628 27.2685 37.5033C27.3756 37.4438 27.4351 37.3367 27.4351 37.2177C27.4351 36.9082 27.4351 36.5988 27.4351 36.5988C27.4351 36.2893 27.685 36.0513 27.9826 36.0513C27.9826 36.0513 28.3992 36.0513 28.8157 36.0513C28.911 36.0513 29.0062 35.9799 29.03 35.8846C29.0657 35.7894 29.03 35.6823 28.9348 35.6347Z" fill="white"/>
</g>
</svg>
