<?xml version="1.0" encoding="utf-8"?>
<!-- Generator: Adobe Illustrator 22.0.1, SVG Export Plug-In . SVG Version: 6.00 Build 0)  -->
<svg version="1.1" id="Camada_1" xmlns="http://www.w3.org/2000/svg" xmlns:xlink="http://www.w3.org/1999/xlink" x="0px" y="0px"
	 viewBox="0 0 56 56" style="enable-background:new 0 0 56 56;" xml:space="preserve">
<style type="text/css">
	.st0{fill:#FFFFFF;}
</style>
<path class="st0" d="M35.2,6.4l2-4.6c0-0.1,0.1-0.1,0.1-0.1c0.1,0,0.1,0,0.2,0C38,1.8,40.3,2.9,40.7,3c0.1,0.1,0.2,0.2,0.1,0.3
	l-0.2,0.4c-0.1,0.1-0.2,0.2-0.3,0.1l-2.5-1.1L37.3,4l2.3,1c0.1,0.1,0.2,0.2,0.1,0.3l-0.2,0.4c-0.1,0.1-0.2,0.2-0.3,0.1l-2.3-1
	l-0.6,1.4l2.5,1.1c0.1,0.1,0.2,0.2,0.1,0.3L38.9,8c-0.1,0.1-0.2,0.2-0.3,0.1l-3.2-1.4C35.2,6.7,35.2,6.5,35.2,6.4z M25,50.5
	l-1.1,4.9c0,0.1-0.2,0.2-0.3,0.2c-0.3-0.1-2-0.4-2.2-0.5c-0.2,0-0.4-0.1-0.6-0.2c-0.2-0.1-0.4-0.2-0.5-0.4c-0.1-0.2-0.2-0.4-0.3-0.6
	c0-0.2,0-0.5,0-0.7c0.1-0.4,0.3-0.7,0.5-0.9c0.1-0.1,0.2-0.2,0.4-0.2c-0.1-0.1-0.2-0.2-0.2-0.3c-0.1-0.1-0.1-0.3-0.1-0.5
	c0-0.1,0-0.3,0-0.5c0-0.1,0-0.2,0.1-0.3c0-0.1,0-0.2,0.1-0.4c0-0.1,0-0.2,0-0.3c0-0.1,0-0.1,0-0.2c-0.1-0.2,0.1-0.4,0.3-0.4l0.5,0.1
	c0.1,0,0.2,0.1,0.2,0.2c0,0.1,0,0.2,0,0.3c0,0.1,0,0.2,0,0.2c0,0.1,0,0.3-0.1,0.4c0,0.2-0.1,0.3-0.1,0.5c0,0.2,0,0.3,0,0.4
	c0,0.1,0.1,0.2,0.2,0.3c0.1,0.1,0.2,0.1,0.4,0.2l1.5,0.3l0.4-1.9c0-0.1,0.2-0.2,0.3-0.2l0.5,0.1C24.9,50.2,25,50.4,25,50.5z
	 M23.4,53.1c-0.4-0.1-1.3-0.3-1.5-0.3c-0.1,0-0.2,0-0.3,0c-0.1,0-0.2,0-0.3,0.1c-0.1,0-0.2,0.1-0.2,0.2c-0.1,0.1-0.1,0.2-0.1,0.3
	c-0.1,0.2,0,0.4,0.1,0.6c0.1,0.2,0.3,0.3,0.6,0.3l1.5,0.3L23.4,53.1z M31.4,5.8l3.4,0.8c0.1,0,0.3,0,0.3-0.2L35.3,6
	c0-0.1-0.1-0.3-0.2-0.3l-2.7-0.6l0.3-1.4l2.5,0.6c0.1,0,0.3,0,0.3-0.2l0.1-0.4c0-0.1-0.1-0.3-0.2-0.3l-2.5-0.6l0.3-1.3L35.8,2
	c0.1,0,0.3,0,0.3-0.2l0.1-0.4c0-0.1,0-0.3-0.2-0.3c-0.4-0.1-3-0.7-3.4-0.8c-0.1,0-0.3,0-0.3,0.2l-1.1,4.9
	C31.2,5.6,31.3,5.7,31.4,5.8z M47,48.2c0,0.1,0.1,0.1,0.1,0.2c0,0.1,0,0.1-0.1,0.2c-0.2,0.2-1.6,1.3-1.8,1.4
	c-0.2,0.1-0.4,0.3-0.6,0.3c-0.2,0.1-0.4,0.1-0.6,0.1c-0.2,0-0.4,0-0.6-0.1c-0.2-0.1-0.4-0.2-0.5-0.5c-0.2-0.3-0.4-0.6-0.4-0.9
	c0-0.2,0-0.3,0.1-0.4c-0.1,0-0.3,0-0.4,0c-0.1,0-0.3-0.1-0.4-0.2c-0.1-0.1-0.2-0.2-0.3-0.3c-0.1-0.1-0.1-0.1-0.2-0.2
	c-0.1-0.1-0.2-0.2-0.2-0.2c-0.1-0.1-0.2-0.1-0.2-0.2c-0.1,0-0.1-0.1-0.2-0.1c-0.2,0-0.3-0.3-0.1-0.4l0.4-0.3c0.1-0.1,0.2-0.1,0.2,0
	c0.1,0,0.2,0.1,0.2,0.1c0.1,0,0.1,0.1,0.2,0.2c0,0.1,0.2,0.2,0.3,0.3c0.1,0.1,0.2,0.2,0.4,0.4c0.1,0.1,0.2,0.2,0.3,0.2
	c0.1,0,0.2,0.1,0.3,0c0.1,0,0.2-0.1,0.4-0.2l1.2-1l-1.2-1.5c-0.1-0.1-0.1-0.3,0-0.4l0.4-0.3c0,0,0.1-0.1,0.2-0.1
	c0.1,0,0.1,0,0.2,0.1L47,48.2z M45.8,48.3l-0.9-1.2c-0.3,0.3-1,0.8-1.2,1c-0.1,0.1-0.2,0.2-0.2,0.2c-0.1,0.1-0.1,0.2-0.1,0.3
	c0,0.1,0,0.2,0,0.3s0.1,0.2,0.1,0.3c0.2,0.2,0.3,0.3,0.5,0.3c0.2,0,0.4-0.1,0.6-0.2L45.8,48.3z M55.8,27.7l-0.4,0
	c-0.1,0-0.3,0.1-0.3,0.2l-0.2,2.6l-3.5-3.2c0,0,0,0,0-0.1l-0.3-2.7l1.5-0.2l0.3,2.5c0,0.1,0.1,0.2,0.3,0.2l0.4,0
	c0.1,0,0.2-0.1,0.2-0.3l-0.3-2.5l1.3-0.1l0.3,2.7c0,0.1,0.1,0.2,0.3,0.2l0.4,0c0.1,0,0.2-0.1,0.2-0.3c0-0.4-0.3-3-0.4-3.4
	c0-0.1-0.1-0.2-0.3-0.2l-5,0.6c-0.1,0-0.2,0.1-0.2,0.3l0.4,3.5c0,0,0,0,0,0s0,0,0,0l-0.3,3.9c0,0.1,0.1,0.3,0.2,0.3l0.4,0
	c0.1,0,0.3-0.1,0.3-0.2l0.2-2.9l3.6,3.2c0,0,0.1,0.1,0.2,0.1l0.4,0c0.1,0,0.3-0.1,0.3-0.2c0-0.5,0.2-3.1,0.2-3.6
	C56,27.8,55.9,27.7,55.8,27.7z M49.9,18.8c-0.2,0.2-0.4,0.4-0.5,0.6c-0.1,0.2-0.2,0.5-0.2,0.8c0,0.3,0,0.6,0.1,1
	c0.1,0.4,0.3,0.7,0.5,0.9c0.2,0.2,0.4,0.4,0.7,0.5c0.3,0.1,0.5,0.2,0.8,0.2c0.3,0,0.5,0,0.8-0.1l3.1-1c0.1,0,0.2-0.2,0.2-0.3
	L55.1,21c0-0.1-0.2-0.2-0.3-0.2l-3,0.9c-0.3,0.1-0.5,0.1-0.7,0.1c-0.2,0-0.3,0-0.4-0.1c-0.1-0.1-0.2-0.1-0.3-0.3
	c-0.1-0.1-0.2-0.3-0.2-0.5c-0.1-0.2-0.1-0.4-0.1-0.5c0-0.2,0-0.3,0.1-0.4c0.1-0.1,0.2-0.2,0.3-0.3c0.2-0.1,0.4-0.2,0.6-0.3l3-0.9
	c0.1,0,0.2-0.2,0.2-0.3c0-0.1-0.1-0.4-0.2-0.5c0-0.1-0.2-0.2-0.3-0.2l-3.1,1C50.4,18.6,50.2,18.7,49.9,18.8z M21.3,4.7
	c0.2,0.3,0.4,0.6,0.7,0.8c0.3,0.2,0.6,0.4,0.9,0.5C23,6,23.2,6,23.4,6.1c0.2,0,0.4,0,0.6,0c0.2,0,0.4-0.1,0.6-0.2s0.3-0.2,0.5-0.3
	c0.1-0.1,0.2-0.2,0.4-0.4l0.1,0.2c0,0.1,0.2,0.2,0.3,0.2c0,0,0.3,0,0.3-0.1c0.1,0,0.2-0.2,0.2-0.3l-0.5-2.5c0-0.1-0.2-0.2-0.3-0.2
	l-2.1,0.4c-0.1,0-0.2,0.2-0.2,0.3l0.1,0.4c0,0.1,0.2,0.2,0.3,0.2L25,3.6c0,0.1,0,0.3,0,0.4c0,0.2-0.1,0.4-0.2,0.5
	c-0.1,0.2-0.2,0.3-0.4,0.4c-0.2,0.1-0.4,0.2-0.6,0.2c-0.3,0-0.5,0-0.8,0c-0.2-0.1-0.4-0.2-0.6-0.3c-0.2-0.2-0.3-0.3-0.4-0.6
	C22,4,21.9,3.7,21.9,3.5c0-0.2-0.1-0.5,0-0.7c0-0.2,0.1-0.5,0.2-0.7c0.1-0.2,0.2-0.4,0.4-0.5c0.2-0.1,0.4-0.2,0.7-0.3
	c0.2,0,0.4,0,0.6,0c0.2,0,0.3,0.1,0.5,0.2c0.1,0.1,0.3,0.2,0.3,0.3c0.1,0.1,0.1,0.2,0.2,0.3c0,0.1,0.2,0.2,0.3,0.2l0.5-0.1
	c0.2,0,0.2-0.2,0.2-0.3c-0.1-0.3-0.2-0.5-0.4-0.7c-0.2-0.2-0.4-0.4-0.6-0.5c-0.2-0.1-0.5-0.2-0.8-0.2c-0.3,0-0.5,0-0.8,0
	c-0.4,0.1-0.8,0.2-1.1,0.4c-0.3,0.2-0.5,0.5-0.7,0.8c-0.2,0.3-0.3,0.6-0.3,1c0,0.4,0,0.7,0,1.1C21,4,21.1,4.4,21.3,4.7z M49,19.2
	l0.4-0.2c0.1-0.1,0.2-0.2,0.1-0.3l-1.2-2.2l3.8-2.1c0.1-0.1,0.2-0.2,0.1-0.3c0,0-0.2-0.4-0.2-0.4c0-0.1-0.1-0.1-0.1-0.1
	c-0.1,0-0.1,0-0.2,0l-4.4,2.4c-0.1,0.1-0.2,0.2-0.1,0.3l1.6,2.9C48.7,19.2,48.9,19.2,49,19.2z M44.4,12.2L48.3,9
	C48.4,9,48.4,9,48.5,9c0.1,0,0.1,0,0.2,0.1c0.2,0.2,1.2,1.4,1.3,1.7c0.1,0.2,0.3,0.4,0.4,0.6c0.1,0.2,0.2,0.4,0.2,0.6
	c0,0.2,0,0.4-0.1,0.6c-0.1,0.2-0.2,0.4-0.5,0.6c-0.1,0.1-0.3,0.2-0.4,0.2c-0.2,0.1-0.3,0.1-0.5,0.1c-0.1,0-0.2,0-0.3,0
	c0,0.2,0,0.3,0,0.5c-0.1,0.3-0.3,0.7-0.5,0.9c-0.1,0.1-0.2,0.1-0.3,0.2c-0.1,0.1-0.2,0.1-0.4,0.1c-0.1,0-0.3,0.1-0.4,0.1
	c-0.2,0-0.3,0-0.5-0.1c-0.2-0.1-0.3-0.2-0.5-0.3c-0.2-0.1-0.4-0.3-0.5-0.5l-1.3-1.7c0-0.1-0.1-0.1,0-0.2
	C44.3,12.3,44.3,12.2,44.4,12.2z M47.4,11c0.3,0.3,0.8,1,0.9,1.1c0.1,0.1,0.2,0.2,0.3,0.3c0.1,0.1,0.2,0.1,0.3,0.1
	c0.1,0,0.2,0,0.2,0c0.1,0,0.2,0,0.2-0.1c0.4-0.3,0.4-0.6,0-1.1l-0.9-1.1L47.4,11z M45.5,12.5c0.2,0.3,0.8,1,0.9,1.1
	c0.1,0.1,0.2,0.2,0.3,0.3c0.1,0.1,0.2,0.1,0.3,0.2c0.1,0,0.2,0,0.3,0c0.1,0,0.2-0.1,0.3-0.2c0.2-0.2,0.3-0.3,0.3-0.5
	c0-0.2-0.1-0.5-0.4-0.8l-0.9-1.1L45.5,12.5z M39,8.4l0.4,0.3c0.1,0.1,0.3,0,0.4-0.1l2-2.8l0,4.4c0,0.1,0,0.2,0.1,0.2l0.4,0.3
	c0.1,0,0.1,0,0.2,0c0.1,0,0.1,0,0.2-0.1l2.8-4.1c0-0.1,0-0.1,0-0.2c0-0.1,0-0.1-0.1-0.2l-0.4-0.3c-0.1-0.1-0.3-0.1-0.4,0.1l-2,2.8
	l0-4.4c0-0.1,0-0.2-0.1-0.2c-0.1,0-0.4-0.3-0.4-0.3c-0.1,0-0.1,0-0.2,0c-0.1,0-0.1,0-0.2,0.1L39,8C38.9,8.1,38.9,8.3,39,8.4z
	 M26.6,5.3l0.2-5c0-0.1,0.1-0.2,0.3-0.2c0.3,0,2,0.1,2.3,0.1c0.2,0,0.4,0,0.7,0.1c0.2,0.1,0.4,0.2,0.6,0.3C30.8,0.6,30.9,0.8,31,1
	c0.1,0.2,0.1,0.4,0.1,0.7c0,0.4-0.1,0.7-0.3,1c-0.1,0.1-0.2,0.2-0.3,0.3c0.1,0.1,0.2,0.2,0.3,0.2c0.1,0.1,0.1,0.3,0.2,0.4
	c0,0.1,0,0.3,0,0.5c0,0.1,0,0.2,0,0.3c0,0.1,0,0.2,0,0.3c0,0.1,0,0.2,0,0.3c0,0.1,0,0.1,0.1,0.2c0.1,0.2,0,0.4-0.2,0.4l-0.5,0
	c-0.1,0-0.2-0.1-0.2-0.1c0-0.1-0.1-0.2-0.1-0.2c0-0.1,0-0.2,0-0.2c0-0.1,0-0.3,0-0.4c0-0.2,0-0.3,0-0.5c0-0.2,0-0.3-0.1-0.4
	c0-0.1-0.1-0.2-0.2-0.2c-0.1-0.1-0.2-0.1-0.4-0.1l-1.6,0l-0.1,2c0,0.1-0.1,0.2-0.3,0.2l-0.5,0C26.8,5.5,26.6,5.4,26.6,5.3z
	 M27.7,2.4c0.4,0,1.3,0,1.5,0c0.1,0,0.2,0,0.3,0c0.1,0,0.2-0.1,0.3-0.1C29.9,2.2,30,2.1,30,2.1c0-0.1,0.1-0.2,0.1-0.3
	c0-0.2-0.1-0.4-0.2-0.6C29.8,1.1,29.6,1,29.3,1l-1.5,0L27.7,2.4z M40.2,47.1c0-0.1-0.1-0.1-0.1-0.1c-0.1,0-0.1,0-0.2,0l-3.1,1.6
	c-0.1,0.1-0.2,0.2-0.1,0.3l0.2,0.4c0.1,0.1,0.2,0.2,0.3,0.1l2.5-1.3l0.7,1.3l-2.2,1.2C38,50.7,37.9,50.9,38,51l0.2,0.4
	c0.1,0.1,0.2,0.2,0.3,0.1l2.2-1.2l0.6,1.2L39,52.7c-0.1,0.1-0.2,0.2-0.1,0.3l0.2,0.4c0.1,0.1,0.2,0.2,0.3,0.1
	c0.4-0.2,2.7-1.4,3.1-1.6c0.1-0.1,0.2-0.2,0.1-0.3L40.2,47.1z M7,35.9l-1-3.1c0-0.1-0.2-0.2-0.3-0.2l-0.4,0.1
	c-0.1,0-0.2,0.2-0.2,0.3l0.8,2.4l-4.2,1.3c-0.1,0-0.2,0.2-0.2,0.3c0,0.1,0.1,0.4,0.1,0.5c0,0.1,0.2,0.2,0.3,0.2l4.8-1.5
	C7,36.2,7,36.1,7,35.9z M13.5,45.3c0-0.1,0-0.1-0.1-0.2l-0.3-0.3c-0.1-0.1-0.3-0.1-0.4,0l-2.5,2.4l0.8-4.3c0-0.1,0-0.2-0.1-0.2
	l-0.4-0.4c0,0-0.1-0.1-0.2-0.1s-0.1,0-0.2,0.1l-3.6,3.5c0,0-0.1,0.1-0.1,0.2c0,0.1,0,0.1,0.1,0.2L7,46.5c0.1,0.1,0.2,0.1,0.4,0
	L9.8,44L9,48.3c0,0.1,0,0.2,0.1,0.2c0,0,0.3,0.3,0.4,0.4c0,0,0.1,0.1,0.2,0.1c0.1,0,0.1,0,0.2-0.1l3.6-3.5
	C13.5,45.4,13.5,45.3,13.5,45.3z M16.7,47.4l-2.9-2c-0.1,0-0.1,0-0.2,0c-0.1,0-0.1,0-0.2,0.1l-0.2,0.3c-0.1,0.1,0,0.3,0.1,0.3
	l2.3,1.6l-0.8,1.2l-2.1-1.4c-0.1-0.1-0.3,0-0.4,0.1l-0.2,0.3c-0.1,0.1,0,0.3,0.1,0.4l2.1,1.4l-0.7,1.1l-2.3-1.5
	c-0.1-0.1-0.3,0-0.4,0.1l-0.2,0.3c-0.1,0.1,0,0.3,0.1,0.3c0.4,0.2,2.5,1.7,2.9,1.9c0.1,0.1,0.3,0,0.3-0.1l2.8-4.2
	C16.9,47.6,16.8,47.5,16.7,47.4z M8.9,40.3l-4.5,2.3c-0.1,0.1-0.3,0-0.3-0.1c-0.1-0.2-0.9-1.6-1-1.9c-0.1-0.2-0.2-0.4-0.2-0.6
	c-0.1-0.2-0.1-0.4-0.1-0.6c0-0.2,0.1-0.4,0.2-0.6c0.1-0.2,0.3-0.4,0.5-0.5c0.1-0.1,0.3-0.1,0.5-0.1c0.2,0,0.3,0,0.5,0
	c0.1,0,0.2,0.1,0.3,0.1c0-0.2,0-0.3,0.1-0.5c0.1-0.3,0.4-0.6,0.7-0.8c0.1,0,0.2-0.1,0.3-0.1c0.1,0,0.2-0.1,0.4-0.1
	c0.1,0,0.3,0,0.4,0c0.2,0,0.3,0.1,0.5,0.2c0.2,0.1,0.3,0.2,0.4,0.4c0.2,0.2,0.3,0.4,0.4,0.6L9,40C9.1,40.1,9,40.3,8.9,40.3z
	 M5.7,40.9c-0.2-0.4-0.6-1.1-0.7-1.2c-0.1-0.1-0.2-0.3-0.2-0.3c-0.1-0.1-0.2-0.1-0.2-0.2c-0.1,0-0.2,0-0.2,0c-0.1,0-0.2,0-0.2,0.1
	c-0.4,0.2-0.5,0.5-0.2,1.1l0.7,1.2L5.7,40.9z M7.9,39.8c-0.2-0.4-0.6-1.1-0.7-1.2C7.1,38.4,7,38.3,7,38.2c-0.1-0.1-0.2-0.2-0.3-0.2
	c-0.1,0-0.2-0.1-0.3-0.1S6.1,37.9,6,38c-0.2,0.1-0.3,0.3-0.4,0.5c0,0.2,0,0.5,0.2,0.8l0.7,1.2L7.9,39.8z M29.7,51.2
	c-0.2-0.3-0.5-0.5-0.8-0.7c-0.3-0.2-0.7-0.2-1.1-0.2c-0.2,0-0.4,0-0.6,0.1c-0.2,0-0.4,0.1-0.6,0.2c-0.2,0.1-0.3,0.2-0.4,0.3l0-0.2
	c0-0.1-0.1-0.2-0.3-0.2c0,0-0.3,0-0.3,0c-0.1,0-0.3,0.1-0.3,0.2l0,2.6c0,0.1,0.1,0.2,0.3,0.2l2.1,0c0.1,0,0.3-0.1,0.3-0.2l0-0.4
	c0-0.1-0.1-0.2-0.3-0.2l-1.4,0c0-0.1,0-0.3,0.1-0.4c0.1-0.2,0.2-0.4,0.3-0.5c0.1-0.1,0.3-0.2,0.5-0.3c0.2-0.1,0.4-0.1,0.7-0.1
	c0.3,0,0.5,0.1,0.7,0.2c0.2,0.1,0.4,0.3,0.5,0.4c0.1,0.2,0.2,0.4,0.3,0.6c0.1,0.2,0.1,0.5,0.1,0.7c0,0.2,0,0.5-0.1,0.7
	c-0.1,0.2-0.2,0.4-0.3,0.6c-0.1,0.2-0.3,0.3-0.5,0.4c-0.2,0.1-0.5,0.2-0.7,0.2c-0.2,0-0.4,0-0.6-0.1c-0.2-0.1-0.3-0.2-0.4-0.2
	c-0.1-0.1-0.2-0.2-0.3-0.3c-0.1-0.1-0.1-0.2-0.1-0.3c0-0.1-0.1-0.2-0.2-0.2h-0.5c-0.2,0-0.3,0.1-0.3,0.3c0,0.3,0.1,0.6,0.3,0.8
	c0.1,0.2,0.3,0.4,0.5,0.6c0.2,0.2,0.4,0.3,0.7,0.4c0.3,0.1,0.5,0.1,0.8,0.1c0.4,0,0.8-0.1,1.2-0.2c0.3-0.2,0.6-0.4,0.8-0.6
	c0.2-0.3,0.4-0.6,0.5-0.9c0.1-0.3,0.2-0.7,0.2-1.1c0-0.4,0-0.7-0.1-1.1C30.1,51.7,29.9,51.4,29.7,51.2z M4.7,32.8
	c0.2-0.1,0.5-0.3,0.7-0.5c0.2-0.2,0.3-0.5,0.4-0.7c0.1-0.3,0.1-0.6,0.1-1c0-0.4-0.1-0.7-0.3-1c-0.1-0.3-0.3-0.5-0.6-0.6
	c-0.2-0.2-0.5-0.3-0.7-0.3c-0.3,0-0.5-0.1-0.8,0L0.2,29C0.1,29,0,29.1,0,29.2l0,0.5c0,0.1,0.1,0.2,0.3,0.2l3.1-0.4
	c0.3,0,0.5,0,0.7,0c0.2,0,0.3,0.1,0.4,0.2s0.2,0.2,0.3,0.3c0.1,0.2,0.1,0.3,0.1,0.5c0,0.2,0,0.4,0,0.5c0,0.2-0.1,0.3-0.2,0.4
	c-0.1,0.1-0.2,0.2-0.4,0.3C4.2,31.9,4,32,3.7,32l-3.1,0.4c-0.1,0-0.2,0.1-0.2,0.3c0,0.1,0,0.4,0.1,0.5c0,0.1,0.1,0.2,0.3,0.2L3.9,33
	C4.2,32.9,4.5,32.9,4.7,32.8z M12.4,11.5c0,0.1,0.1,0.1,0.2,0.1c0.1,0,0.1,0,0.2,0l2.7-2.2c0.1,0,0.1-0.1,0.1-0.2
	c0-0.1,0-0.1-0.1-0.2l-0.3-0.3c-0.1-0.1-0.2-0.1-0.4,0l-2.2,1.7l-0.9-1.2l2-1.6c0.1-0.1,0.1-0.2,0-0.4l-0.3-0.3
	c-0.1-0.1-0.2-0.1-0.4,0l-2,1.6l-0.8-1l2.1-1.7c0.1-0.1,0.1-0.2,0-0.4l-0.3-0.3C12.2,5,12.2,5,12.1,5c-0.1,0-0.1,0-0.2,0
	c-0.3,0.3-2.4,1.9-2.7,2.2c-0.1,0-0.1,0.1-0.1,0.2c0,0.1,0,0.1,0,0.2L12.4,11.5z M13.2,4.5c-0.1-0.1,0-0.3,0.1-0.3
	c0.2-0.1,1.3-0.7,1.5-0.8C15.2,3.1,15.6,3,15.9,3c0.3,0,0.7,0,1,0.1c0.6,0.2,1.1,0.7,1.5,1.5c0.4,0.8,0.5,1.5,0.4,2.1
	c-0.2,0.6-0.6,1.1-1.4,1.5L15.9,9c-0.1,0.1-0.3,0-0.3-0.1L13.2,4.5z M14.4,4.6l1.7,3.3c0.2-0.1,0.6-0.3,0.7-0.4
	c0.3-0.2,0.5-0.3,0.7-0.5c0.2-0.2,0.3-0.3,0.3-0.5c0.1-0.2,0.1-0.4,0-0.6c0-0.2-0.2-0.5-0.3-0.8c-0.2-0.3-0.3-0.6-0.5-0.7
	C16.9,4.1,16.7,4,16.5,4c-0.2-0.1-0.4-0.1-0.6,0c-0.2,0-0.5,0.2-0.8,0.3L14.4,4.6z M38,53.8c0,0.1,0,0.3-0.2,0.3
	c-0.2,0.1-1.5,0.4-1.7,0.5c-0.8,0.2-1.5,0.2-2-0.1c-0.5-0.3-1-0.9-1.2-1.8c-0.1-0.4-0.2-0.8-0.2-1.2c0-0.4,0.1-0.7,0.2-1
	c0.3-0.6,0.8-1,1.6-1.2l1.7-0.5c0.1,0,0.3,0,0.3,0.2L38,53.8z M36.9,53.5l-1.1-3.6c-0.3,0.1-0.6,0.2-0.7,0.2
	c-0.3,0.1-0.6,0.2-0.8,0.3c-0.2,0.1-0.3,0.3-0.4,0.5c-0.1,0.2-0.1,0.4-0.1,0.6c0,0.2,0,0.5,0.1,0.9c0.1,0.3,0.2,0.6,0.4,0.8
	c0.1,0.2,0.3,0.3,0.5,0.4c0.2,0.1,0.4,0.1,0.6,0.1c0.2,0,0.5,0,0.9-0.1L36.9,53.5z M20.4,49.1l-3.2-1.4c-0.1,0-0.1,0-0.2,0
	c-0.1,0-0.1,0.1-0.1,0.1l-0.2,0.4c-0.1,0.1,0,0.3,0.1,0.3l2.5,1.1L18.7,51l-2.3-1c-0.1-0.1-0.3,0-0.3,0.1l-0.2,0.4
	c-0.1,0.1,0,0.3,0.1,0.3l2.3,1L17.8,53l-2.5-1.1c-0.1-0.1-0.3,0-0.3,0.1l-0.2,0.4c-0.1,0.1,0,0.3,0.1,0.3c0.4,0.2,2.8,1.2,3.2,1.4
	c0.1,0.1,0.3,0,0.3-0.1l2-4.6C20.6,49.3,20.5,49.1,20.4,49.1z M5.4,11.5c0-0.1,0-0.1,0.1-0.2C5.7,11.1,6.8,9.8,7,9.6
	c0.1-0.2,0.3-0.3,0.5-0.4C7.6,9,7.8,8.9,8,8.9c0.2,0,0.4,0,0.6,0C8.9,9,9.1,9.1,9.3,9.2c0.3,0.2,0.5,0.5,0.6,0.9c0,0.1,0,0.3,0,0.4
	c0.1,0,0.2,0,0.4,0c0.2,0,0.3,0.1,0.4,0.1c0.1,0.1,0.3,0.1,0.4,0.2c0.1,0,0.2,0.1,0.2,0.2c0.1,0.1,0.2,0.1,0.3,0.2
	c0.1,0.1,0.2,0.1,0.3,0.2c0.1,0,0.1,0,0.2,0c0.2,0,0.3,0.2,0.2,0.4l-0.3,0.4c-0.1,0.1-0.2,0.1-0.2,0.1c-0.1,0-0.2,0-0.2-0.1
	c-0.1,0-0.1-0.1-0.2-0.1c-0.1,0-0.3-0.2-0.3-0.2c-0.1-0.1-0.3-0.2-0.4-0.3c-0.1-0.1-0.2-0.1-0.4-0.2c-0.1,0-0.2,0-0.3,0
	c-0.1,0-0.2,0.1-0.3,0.2l-1,1.2l1.5,1.3c0.1,0.1,0.1,0.2,0,0.4l-0.3,0.4c0,0-0.1,0.1-0.2,0.1c-0.1,0-0.1,0-0.2-0.1l-3.8-3.3
	C5.4,11.6,5.4,11.6,5.4,11.5z M6.6,11.4l1.1,1c0.3-0.3,0.9-1,1-1.2c0.1-0.1,0.1-0.2,0.2-0.3C9,10.8,9,10.7,9,10.6
	c0-0.1,0-0.2-0.1-0.3c0-0.1-0.1-0.2-0.2-0.2C8.6,9.9,8.4,9.8,8.2,9.8C8,9.9,7.8,10,7.6,10.2L6.6,11.4z M0.2,27.6l5,0.4
	c0.1,0,0.3-0.1,0.3-0.2l0.3-3.5c0,0,0,0,0,0c0,0,0,0,0,0l1-3.8c0-0.1,0-0.3-0.2-0.3L6.2,20c-0.1,0-0.3,0-0.3,0.2L5.2,23l-2.9-3.8
	c0,0-0.1-0.1-0.1-0.1l-0.4-0.1c-0.1,0-0.3,0-0.3,0.2c-0.1,0.4-0.8,3.1-0.9,3.5c0,0.1,0,0.3,0.2,0.3L1.1,23c0.1,0,0.3,0,0.3-0.2
	L2,20.4l2.9,3.8c0,0,0,0,0,0.1L4.7,27l-1.5-0.1l0.2-2.5c0-0.1-0.1-0.3-0.2-0.3l-0.4,0c-0.1,0-0.3,0.1-0.3,0.2l-0.2,2.5L1,26.7
	L1.2,24c0-0.1-0.1-0.3-0.2-0.3l-0.4,0c-0.1,0-0.3,0.1-0.3,0.2c0,0.4-0.2,3-0.3,3.4C0,27.5,0.1,27.6,0.2,27.6z M53.6,40.6
	c0,1.6-1.3,2.9-2.9,2.9s-2.9-1.3-2.9-2.9s1.3-2.9,2.9-2.9S53.6,39,53.6,40.6z M52.9,40.6c0-1.2-1-2.2-2.2-2.2c-1.2,0-2.2,1-2.2,2.2
	s1,2.2,2.2,2.2S52.9,41.9,52.9,40.6z M51.7,39.3h-2c-0.2,0-0.3,0.2-0.3,0.3c0,0.2,0.2,0.3,0.3,0.3h1.2l-1.4,1.4
	c-0.2,0.2-0.1,0.6,0.2,0.6h2c0.2,0,0.3-0.2,0.3-0.3c0-0.2-0.2-0.3-0.3-0.3h-1.2l1.4-1.4C52.1,39.7,52,39.3,51.7,39.3z M34.1,22
	c0,0.7,0,1.8,0,2.3c0,0.1,0.1,0.2,0.2,0.3c0.2,0.1,0.5,0.3,0.8,0.5c0.1,0,0.2,0,0.3,0c0.1-0.1,0.1-0.2,0-0.3
	c-0.2-0.4-0.4-0.7-0.4-0.7c-0.1-0.2-0.1-0.5,0.1-0.7c0.2-0.2,0.5-0.2,0.7-0.1l7.4,4.3c0.2,0.1,0.3,0.3,0.3,0.5v8.5c0,0,0,0,0,0.1
	c0,0.2-0.1,0.4-0.3,0.5l-14.9,8.6c-0.2,0.1-0.4,0.1-0.5,0L12.8,37c-0.2-0.1-0.3-0.3-0.3-0.5V19.4c0-0.2,0.1-0.4,0.3-0.5l14.9-8.6
	l15.4,8.6c0.2,0.1,0.3,0.3,0.3,0.5v6.4c0,0.2-0.1,0.4-0.3,0.5c-0.2,0.1-0.4,0.1-0.5,0c0,0-6.2-3.6-8-4.6c-0.1-0.1-0.2-0.1-0.3,0
	C34.2,21.7,34.1,21.9,34.1,22z M14.2,35.3c1-0.6,3.2-1.8,3.8-2.2c0.1-0.1,0.2-0.2,0.2-0.3c0-1.4,0-10.2,0-10.2
	c0-0.2,0.1-0.4,0.3-0.5l3.7-2.1c0.2-0.1,0.5-0.1,0.7,0.1c0.2,0.2,0.2,0.5,0.1,0.7c0,0-1,1.7-1.4,2.5c0,0.1-0.1,0.2,0,0.2
	s0.1,0.2,0.2,0.2c0.4,0.2,1.1,0.6,1.1,0.6c0.2,0.1,0.3,0.3,0.3,0.5c0,0,0,3.5,0,4.9c0,0.1,0.1,0.2,0.2,0.3c0.1,0.1,0.2,0.1,0.3,0
	c1-0.6,3.2-1.8,3.8-2.2c0.1-0.1,0.2-0.2,0.2-0.3c0-1.6,0-12.5,0-15.1c0-0.1-0.1-0.2-0.2-0.3C27.2,12,27,12,26.9,12
	c-2.3,1.3-11.7,6.8-13.1,7.6c-0.1,0.1-0.2,0.2-0.2,0.3c0,1.6,0,12.5,0,15.1c0,0.1,0.1,0.2,0.2,0.3C13.9,35.4,14,35.4,14.2,35.3z
	 M20.1,23.4c0,0,0.2-0.4,0.4-0.7c0-0.1,0-0.2,0-0.3c-0.1-0.1-0.2-0.1-0.3,0c-0.3,0.2-0.6,0.3-0.8,0.5c-0.1,0.1-0.2,0.2-0.2,0.3
	c0,1.1,0,6.8,0,8.7c0,0.1,0.1,0.2,0.2,0.3c0.1,0.1,0.2,0.1,0.3,0c0.6-0.3,1.6-0.9,2-1.1c0.1-0.1,0.2-0.2,0.2-0.3c0-0.9,0-4.5,0-5.4
	c0-0.1-0.1-0.2-0.2-0.3c-0.4-0.2-1.4-0.8-1.4-0.8c-0.1-0.1-0.2-0.2-0.3-0.3C20,23.7,20,23.5,20.1,23.4z M41.4,36.5
	c0-0.1-0.1-0.2-0.2-0.3c-2.3-1.3-11.7-6.8-13.1-7.6c-0.1-0.1-0.2-0.1-0.3,0c-0.9,0.5-5.1,3-5.1,3c0,0,0,0,0,0c0,0-6.1,3.5-8,4.6
	c-0.1,0.1-0.2,0.2-0.2,0.3c0,0.1,0.1,0.2,0.2,0.3c2.3,1.3,11.7,6.8,13.1,7.6c0.1,0.1,0.2,0.1,0.3,0c1.4-0.8,10.8-6.2,13.1-7.6
	C41.4,36.8,41.4,36.7,41.4,36.5z M33,24.7v-4.3c0-0.2,0.1-0.4,0.3-0.5c0.2-0.1,0.4-0.1,0.5,0c0,0,6.2,3.6,8,4.6
	c0.1,0.1,0.2,0.1,0.3,0c0.1-0.1,0.2-0.2,0.2-0.3c0-1.2,0-3.7,0-4.4c0-0.1-0.1-0.2-0.2-0.3c-1.4-0.8-10.8-6.2-13.1-7.6
	c-0.1-0.1-0.2-0.1-0.3,0c-0.1,0.1-0.2,0.2-0.2,0.3c0,2.6,0,13.5,0,15.1c0,0.1,0.1,0.2,0.2,0.3c1.4,0.8,10.8,6.2,13.1,7.6
	c0.1,0.1,0.2,0.1,0.3,0c0.1-0.1,0.2-0.2,0.2-0.3c0-1.5,0-5.6,0-6.5c0-0.1-0.1-0.2-0.2-0.3c-0.7-0.4-3.2-1.9-4.5-2.6
	c-0.1,0-0.2,0-0.3,0s-0.1,0.2,0,0.3c0.2,0.4,0.4,0.7,0.4,0.7c0.1,0.2,0.1,0.5-0.1,0.7c-0.2,0.2-0.5,0.2-0.7,0.1l-3.7-2.1
	C33.1,25.1,33,24.9,33,24.7z M32.2,36.7c-0.1,0.2-0.3,0.4-0.5,0.4c0,0-2,0-2.8,0c-0.2,0-0.3,0.1-0.3,0.3c0,0.5,0,1.3,0,1.3
	c0,0.2-0.1,0.4-0.3,0.5c-0.2,0.1-0.4,0.1-0.5,0L24,37c-0.2-0.1-0.3-0.3-0.3-0.5c0-0.2,0.1-0.4,0.3-0.5l3.7-2.2
	c0.2-0.1,0.4-0.1,0.5,0l3.7,2.2C32.2,36.2,32.3,36.4,32.2,36.7z M28.9,35.6c-0.3-0.2-0.6-0.3-0.8-0.5c-0.1-0.1-0.2-0.1-0.3,0
	c-0.4,0.2-1.4,0.8-2,1.1c-0.1,0.1-0.2,0.2-0.2,0.3c0,0.1,0.1,0.2,0.2,0.3c0.3,0.2,0.7,0.4,1.1,0.6c0.1,0.1,0.2,0.1,0.3,0
	c0.1-0.1,0.2-0.2,0.2-0.3c0-0.3,0-0.6,0-0.6c0-0.3,0.2-0.5,0.5-0.5c0,0,0.4,0,0.8,0c0.1,0,0.2-0.1,0.2-0.2
	C29.1,35.7,29,35.6,28.9,35.6z"/>
</svg>
